<?xml version="1.0" encoding="UTF-8"?>
<!-- Generator: Adobe Illustrator 20.0.0, SVG Export Plug-In . SVG Version: 6.00 Build 0)  -->
<svg version="1.1" id="Layer_1" xmlns="http://www.w3.org/2000/svg" xmlns:xlink="http://www.w3.org/1999/xlink" x="0px" y="0px" viewBox="0 0 200 135" style="enable-background:new 0 0 200 135;" xml:space="preserve">
<style type="text/css">
	.st0{fill:#2C3739;}
</style>
<g>
	<g>
		<path class="st0" d="M52.3,81c0-2.4,2.9,0.6,2.9-3.8V49.2c0-4.4-3-1.5-3-3.8v-1h15.5c10.6,0,17.3,7.7,17.3,18.3    C85.1,74.9,76.4,82,68,82H52.3V81z M66,79.7c9.1,0,13.1-6.1,13.1-16.9c0-8.2-3-16.2-12.2-16.2h-6.1v33.1H66z"/>
		<path class="st0" d="M89.6,63.2c0-10.2,6.9-19.7,17.7-19.7c10.8,0,17.1,9.6,17.1,19.8c0,10.2-6.9,19.7-17.7,19.7    C95.9,82.9,89.6,73.3,89.6,63.2z M118.2,63.4c0-7.2-1.5-18-11.1-18S95.8,55.5,95.8,63c0,7.2,1.5,18,11.1,18    C116.3,81,118.2,70.9,118.2,63.4z"/>
		<path class="st0" d="M133.1,74.5c0,7.5,3.7,3.4,3.7,6.5v1h-10v-1c0-3.2,3.4,1,3.4-6.5V49.2c0-4.4-3-1.5-3-3.8v-1h10l17.6,26.7    V51.9c0-7.5-3.3-3.4-3.3-6.5v-1h9.5v1c0,3.2-3.3-1-3.3,6.5V82h-2.6l-22-33.4V74.5z"/>
		<path class="st0" d="M186.1,71.5h-14.8l-1.3,3.5c-0.3,0.8-0.9,2.2-0.9,3.1c0,2.4,2.7,0.8,2.7,2.9v1h-9.5v-1c0-2.3,2.1,0.5,4.6-5.4    l10.5-25.7l-0.6-1.6c-0.2-0.5-0.7-1.6-0.7-2.1c0-0.7,1.9-1.6,2.2-1.8c0.1-0.1,1.8-1.1,2-1.1s0.5,0.9,0.5,1l13.5,32.6    c2,5,3.7,1.8,3.7,4.3v1h-12v-1c0-2,2.8-0.5,2.8-2.6c0-0.9-0.5-2.1-0.9-2.9L186.1,71.5z M178.7,53.3L172.3,69h12.8L178.7,53.3z"/>
	</g>
	<g>
		<path class="st0" d="M27.4,43.7c0,0-0.1,0-0.1,0c-3.1,0-5.6,2.5-5.6,5.6c0,1.2,0.4,2.4,1.2,3.4l0,0c0.1,0.1,4.5,6.3,4.5,6.3    c0,0,4.5-6.2,4.5-6.3l0,0c0.8-1,1.2-2.2,1.2-3.4C33,46.3,30.5,43.7,27.4,43.7z"/>
		<path class="st0" d="M20.5,60.1c1.2,1.5,3,4,3,4c0,0,1.8-2.6,3-4c-1.2-1.5-3-4-3-4C23.5,56.1,21.7,58.7,20.5,60.1z"/>
		<g>
			<path class="st0" d="M21.5,53.7L21.5,53.7c-1-1.3-1.5-2.8-1.5-4.5c0-1.9,0.8-3.7,2-5c-0.7-0.3-1.5-0.5-2.3-0.5c0,0-0.1,0-0.1,0     c-3.1,0-5.6,2.5-5.6,5.6c0,1.2,0.4,2.4,1.2,3.4l0,0c0.1,0.1,4.5,6.3,4.5,6.3c0,0,1.6-2.7,2.9-4.3C21.9,54.2,21.5,53.7,21.5,53.7z     "/>
		</g>
	</g>
	<g>
		<path class="st0" d="M27.4,43.7c0,0-0.1,0-0.1,0c-3.1,0-5.6,2.5-5.6,5.6c0,1.2,0.4,2.4,1.2,3.4l0,0c0.1,0.1,4.5,6.3,4.5,6.3    c0,0,4.5-6.2,4.5-6.3l0,0c0.8-1,1.2-2.2,1.2-3.4C33,46.3,30.5,43.7,27.4,43.7z"/>
		<path class="st0" d="M20.5,60.1c1.2,1.5,3,4,3,4c0,0,1.8-2.6,3-4c-1.2-1.5-3-4-3-4C23.5,56.1,21.7,58.7,20.5,60.1z"/>
		<g>
			<path class="st0" d="M21.5,53.7L21.5,53.7c-1-1.3-1.5-2.8-1.5-4.5c0-1.9,0.8-3.7,2-5c-0.7-0.3-1.5-0.5-2.3-0.5c0,0-0.1,0-0.1,0     c-3.1,0-5.6,2.5-5.6,5.6c0,1.2,0.4,2.4,1.2,3.4l0,0c0.1,0.1,4.5,6.3,4.5,6.3c0,0,1.6-2.7,2.9-4.3C21.9,54.2,21.5,53.7,21.5,53.7z     "/>
		</g>
	</g>
	<g>
		<path class="st0" d="M45.3,62.5c0,0,0-0.1,0-0.1c-1-3-4.2-4.6-7.1-3.6c-1.2,0.4-2.2,1.1-2.9,2.2l0,0c-0.1,0.1-4.6,6.2-4.6,6.3    c0,0,7.3,2.3,7.4,2.4l0,0c1.2,0.4,2.4,0.4,3.6,0C44.7,68.6,46.3,65.4,45.3,62.5z"/>
		<path class="st0" d="M27.6,61c-1,1.6-2.9,4.1-2.9,4.1c0,0,3,0.9,4.8,1.6c1-1.6,2.9-4.1,2.9-4.1C32.4,62.6,29.4,61.7,27.6,61z"/>
		<g>
			<path class="st0" d="M34,60L34,60c0.9-1.4,2.2-2.3,3.8-2.8c1.8-0.6,3.8-0.4,5.4,0.4c0.1-0.8,0-1.6-0.2-2.4c0,0,0-0.1,0-0.1     c-1-3-4.2-4.6-7.1-3.6c-1.2,0.4-2.2,1.1-2.9,2.2l0,0c-0.1,0.1-4.6,6.2-4.6,6.3c0,0,3,0.7,4.9,1.4C33.7,60.5,34,60,34,60z"/>
		</g>
	</g>
	<g>
		<path class="st0" d="M33,85.3C33,85.3,33.1,85.3,33,85.3c2.6-1.9,3.2-5.4,1.3-7.9c-0.7-1-1.7-1.7-2.9-2.1l0,0    c-0.1,0-7.4-2.5-7.4-2.4c0,0,0.1,7.7,0,7.8l0,0c0,1.2,0.3,2.4,1.1,3.4C27,86.6,30.5,87.2,33,85.3z"/>
		<path class="st0" d="M29,68c-1.8-0.5-4.8-1.5-4.8-1.5c0,0,0.1,3.1,0,5C26,72,28.9,73,28.9,73C28.9,73,28.9,69.9,29,68z"/>
		<g>
			<path class="st0" d="M31.9,73.8L31.9,73.8c1.6,0.5,2.9,1.4,3.8,2.7c1.1,1.6,1.6,3.4,1.3,5.2c0.8-0.2,1.5-0.5,2.2-1     c0,0,0.1-0.1,0.1-0.1c2.5-1.8,3.1-5.4,1.2-7.9c-0.7-1-1.7-1.7-2.9-2.1l0,0c-0.1,0-7.4-2.5-7.4-2.4c0,0,0.3,3.1,0.2,5.1     C31.3,73.6,31.9,73.8,31.9,73.8z"/>
		</g>
	</g>
	<g>
		<path class="st0" d="M7.5,80.7C7.5,80.7,7.6,80.8,7.5,80.7c2.6,1.9,6.1,1.3,8-1.2c0.7-1,1.1-2.2,1.1-3.4l0,0c0-0.1,0.1-7.8,0-7.8    c0,0-7.3,2.4-7.4,2.4l0,0C8,71.1,7,71.8,6.3,72.8C4.4,75.3,5,78.9,7.5,80.7z"/>
		<path class="st0" d="M22.7,71.5c-0.1-1.9,0-5,0-5c0,0-2.9,1-4.8,1.5c0.1,1.9,0,5,0,5C17.9,73,20.9,72,22.7,71.5z"/>
		<g>
			<path class="st0" d="M18.1,76.1L18.1,76.1c0,1.7-0.4,3.2-1.4,4.5c-1.1,1.6-2.8,2.5-4.6,2.9c0.4,0.7,0.9,1.3,1.6,1.8     c0,0,0.1,0.1,0.1,0.1c2.5,1.8,6.1,1.3,7.9-1.2c0.7-1,1.1-2.2,1.1-3.4l0,0c0-0.1,0.1-7.8,0-7.8c0,0-2.8,1.3-4.8,1.8     C18.1,75.4,18.1,76,18.1,76.1z"/>
		</g>
	</g>
	<g>
		<path class="st0" d="M4,55c0,0,0,0.1,0,0.1c-1,3,0.7,6.1,3.6,7.1c1.2,0.4,2.4,0.4,3.6,0l0,0c0.1,0,7.4-2.3,7.4-2.4    c0,0-4.5-6.2-4.6-6.3l0,0c-0.7-1-1.7-1.8-2.9-2.2C8.2,50.4,5,52,4,55z"/>
		<path class="st0" d="M17.5,66.6c1.8-0.7,4.8-1.6,4.8-1.6c0,0-1.9-2.5-2.9-4.1c-1.8,0.7-4.8,1.6-4.8,1.6    C14.6,62.5,16.4,65,17.5,66.6z"/>
		<g>
			<path class="st0" d="M11.7,63.6L11.7,63.6c-1.6,0.5-3.2,0.6-4.7,0.1c-1.8-0.6-3.3-1.9-4.1-3.5c-0.5,0.6-1,1.3-1.2,2.1     c0,0,0,0.1,0,0.1c-1,3,0.7,6.1,3.6,7.1c1.2,0.4,2.4,0.4,3.6,0l0,0c0.1,0,7.4-2.3,7.4-2.4c0,0-2.1-2.3-3.2-4     C12.3,63.4,11.7,63.6,11.7,63.6z"/>
		</g>
	</g>
	<g>
		<g>
			<path class="st0" d="M52.3,86.7h2.3v10.4h-2.3V86.7z"/>
			<path class="st0" d="M59,86.7h3.1l4.4,7.3h0v-7.3h2.3v10.4h-3l-4.6-7.4h0v7.4H59V86.7z"/>
			<path class="st0" d="M75.3,88.7h-3v-2h8.3v2h-3v8.4h-2.3V88.7z"/>
			<path class="st0" d="M83.7,86.7h7.1v2.1H86v1.9h4.5v2.1H86V95h5.1v2.1h-7.4V86.7z"/>
			<path class="st0" d="M94.7,86.7h4c0.5,0,1,0.1,1.5,0.2c0.5,0.1,0.9,0.3,1.3,0.5c0.4,0.2,0.6,0.6,0.9,1c0.2,0.4,0.3,0.9,0.3,1.5     c0,0.7-0.2,1.4-0.6,1.9c-0.4,0.5-0.9,0.8-1.7,1l2.7,4.4h-2.8L98.1,93H97v4.2h-2.3V86.7z M97,91h1.4c0.2,0,0.4,0,0.7,0     c0.2,0,0.4-0.1,0.6-0.1c0.2-0.1,0.3-0.2,0.5-0.3c0.1-0.2,0.2-0.4,0.2-0.7c0-0.3-0.1-0.5-0.2-0.6c-0.1-0.2-0.2-0.3-0.4-0.4     c-0.2-0.1-0.4-0.1-0.6-0.2c-0.2,0-0.4,0-0.6,0H97V91z"/>
			<path class="st0" d="M106.5,86.7h3.1l4.4,7.3h0v-7.3h2.3v10.4h-3l-4.6-7.4h0v7.4h-2.3V86.7z"/>
			<path class="st0" d="M124.3,86.7h1.9l4.5,10.4h-2.6l-0.9-2.2h-4.1l-0.9,2.2h-2.5L124.3,86.7z M125.2,89.7l-1.3,3.2h2.6     L125.2,89.7z"/>
			<path class="st0" d="M134.7,88.7h-3v-2h8.3v2h-3v8.4h-2.3V88.7z"/>
			<path class="st0" d="M143.4,86.7h2.3v10.4h-2.3V86.7z"/>
			<path class="st0" d="M149.1,91.9c0-0.8,0.1-1.6,0.4-2.3c0.3-0.7,0.7-1.3,1.2-1.7c0.5-0.5,1.1-0.8,1.8-1.1     c0.7-0.3,1.4-0.4,2.3-0.4c0.8,0,1.6,0.1,2.3,0.4s1.3,0.6,1.8,1.1c0.5,0.5,0.9,1.1,1.2,1.7c0.3,0.7,0.4,1.4,0.4,2.3     c0,0.8-0.1,1.6-0.4,2.3c-0.3,0.7-0.7,1.3-1.2,1.7s-1.1,0.8-1.8,1.1c-0.7,0.3-1.4,0.4-2.3,0.4c-0.8,0-1.6-0.1-2.3-0.4     c-0.7-0.3-1.3-0.6-1.8-1.1c-0.5-0.5-0.9-1.1-1.2-1.7C149.2,93.5,149.1,92.7,149.1,91.9z M151.5,91.9c0,0.5,0.1,0.9,0.2,1.3     c0.2,0.4,0.4,0.8,0.7,1.1c0.3,0.3,0.6,0.5,1,0.7c0.4,0.2,0.8,0.3,1.3,0.3c0.5,0,0.9-0.1,1.3-0.3c0.4-0.2,0.7-0.4,1-0.7     c0.3-0.3,0.5-0.7,0.7-1.1c0.2-0.4,0.2-0.9,0.2-1.3c0-0.5-0.1-0.9-0.2-1.3c-0.2-0.4-0.4-0.8-0.7-1.1c-0.3-0.3-0.6-0.5-1-0.7     c-0.4-0.2-0.8-0.3-1.3-0.3c-0.5,0-0.9,0.1-1.3,0.3s-0.7,0.4-1,0.7c-0.3,0.3-0.5,0.7-0.7,1.1C151.5,91,151.5,91.4,151.5,91.9z"/>
			<path class="st0" d="M163.2,86.7h3.1l4.4,7.3h0v-7.3h2.3v10.4h-3l-4.6-7.4h0v7.4h-2.3V86.7z"/>
			<path class="st0" d="M181,86.7h1.9l4.5,10.4h-2.6l-0.9-2.2h-4.1l-0.9,2.2h-2.5L181,86.7z M181.9,89.7l-1.3,3.2h2.6L181.9,89.7z"/>
			<path class="st0" d="M190.8,86.7h2.3V95h4.7v2.1h-7V86.7z"/>
		</g>
	</g>
</g>
</svg>