<?xml version="1.0" encoding="UTF-8"?>
<!-- Generator: Adobe Illustrator 20.0.0, SVG Export Plug-In . SVG Version: 6.00 Build 0)  -->
<svg version="1.1" id="Layer_1" xmlns="http://www.w3.org/2000/svg" xmlns:xlink="http://www.w3.org/1999/xlink" x="0px" y="0px" viewBox="0 0 200 135" style="enable-background:new 0 0 200 135;" xml:space="preserve">
<style type="text/css">
	.st0{fill:#2C3739;}
	.st1{fill-rule:evenodd;clip-rule:evenodd;fill:#2C3739;}
</style>
<g>
	<path class="st0" d="M64.5,60.3C63.3,60.7,62.2,61,61,61c-2.7,0-4.6-1.5-4.6-4.4c0-2.7,2.1-4.2,4.8-4.2c1.1,0,2.2,0.3,3.2,0.6v-4.4   c-1.7-0.3-2.8-0.5-4.6-0.5c-5.4,0-10.1,2.8-10.1,8.4c0,6,4.5,8.9,10.1,8.9c1.6,0,3.4-0.3,4.6-0.7V60.3L64.5,60.3z"/>
	<path class="st1" d="M66.7,56.6c1.2-0.6,2.7-1.1,4.2-1.1c1.5,0,3.2,0.2,3.2,1.8c-0.6-0.1-1.5-0.2-2.4-0.2c-3,0-6.5,0.8-6.5,4.6   c0,2.6,2.3,3.7,4.6,3.7c1.7,0,3.2-0.7,4.1-2.1h0v1.8h5.6v-7.6c0-4.6-4.2-5.2-7.7-5.2c-2.4,0-3.4,0.2-5.2,0.7V56.6L66.7,56.6z    M74,60c0,1.1-0.6,2.2-1.9,2.2c-0.9,0-1.4-0.3-1.4-1.2c0-1.3,1.4-1.4,2.7-1.4H74V60L74,60z"/>
	<path class="st1" d="M81.5,70.2h6.1v-6.7h0c0.9,1.3,2.2,1.9,3.8,1.9c3.8,0,5.3-3,5.3-6.3c0-3.6-1.5-6.8-5.5-6.8c-2,0-3.2,0.7-4,2.6   h0v-2.3h-5.6V70.2L81.5,70.2z M87.4,58.9c0-1.2,0.2-2.6,1.5-2.6c1.3,0,1.5,1.4,1.5,2.7c0,1.3-0.2,2.6-1.5,2.6   C87.6,61.7,87.4,60.4,87.4,58.9L87.4,58.9z"/>
	<path class="st1" d="M98.3,65.1h6.1V52.6h-6.1V65.1L98.3,65.1z M104.4,47.1h-6.1v4.2h6.1V47.1L104.4,47.1z"/>
	<path class="st0" d="M105.5,52.6v3.6h2.1v4.3c0,3.3,1.5,4.9,4.6,4.9c1.5,0,2.8-0.3,4.2-0.6v-3.6c-0.4,0.1-0.9,0.2-1.4,0.2   c-0.8,0-1.3-0.6-1.3-1.6v-3.5h2.7v-3.6h-2.7v-4.7l-6.1,1.9v2.9H105.5L105.5,52.6z"/>
	<path class="st1" d="M118.4,56.6c1.2-0.6,2.7-1.1,4.2-1.1c1.5,0,3.2,0.2,3.2,1.8c-0.6-0.1-1.5-0.2-2.4-0.2c-3,0-6.5,0.8-6.5,4.6   c0,2.6,2.3,3.7,4.6,3.7c1.7,0,3.2-0.7,4.1-2.1h0v1.8h5.6v-7.6c0-4.6-4.2-5.2-7.7-5.2c-2.4,0-3.4,0.2-5.2,0.7V56.6L118.4,56.6z    M125.8,60c0,1.1-0.6,2.2-1.9,2.2c-0.9,0-1.4-0.3-1.4-1.2c0-1.3,1.4-1.4,2.7-1.4h0.6V60L125.8,60z"/>
	<path class="st0" d="M133.2,47.1v18h6.1v-18H133.2L133.2,47.1z"/>
	<path class="st0" d="M164.4,60.3c-1.2,0.4-2.3,0.7-3.5,0.7c-2.7,0-4.6-1.5-4.6-4.4c0-2.7,2.1-4.2,4.8-4.2c1.1,0,2.2,0.3,3.2,0.6   v-4.4c-1.7-0.3-2.8-0.5-4.6-0.5c-5.4,0-10.1,2.8-10.1,8.4c0,6,4.5,8.9,10.1,8.9c1.6,0,3.4-0.3,4.6-0.7V60.3L164.4,60.3z"/>
	<path class="st1" d="M165.9,65.1h6.1V52.6h-6.1V65.1L165.9,65.1z M172,47.1h-6.1v4.2h6.1V47.1L172,47.1z"/>
	<path class="st0" d="M173.1,52.6v3.6h2.1v4.3c0,3.3,1.5,4.9,4.6,4.9c1.5,0,2.8-0.3,4.2-0.6v-3.6c-0.4,0.1-0.9,0.2-1.4,0.2   c-0.8,0-1.3-0.6-1.3-1.6v-3.5h2.7v-3.6h-2.7v-4.7l-6.1,1.9v2.9H173.1L173.1,52.6z"/>
	<path class="st0" d="M183.9,52.6l3.2,8.8c0.4,1.4,1.3,3.2,1.3,4.2c0,0.7-0.7,1.2-1.9,1.2c-0.8,0-1.3-0.1-1.8-0.2V70   c1.2,0.2,2.4,0.4,4,0.4c4.7,0,5.9-3.4,7.1-7.4l3.3-10.5h-5.8l-1.5,7.7h0l-1.6-7.7H183.9L183.9,52.6z"/>
	<path class="st1" d="M51.4,85.8h9.7c3.5,0,6.9-0.4,6.9-4.7c0-1.7-1.4-3.5-3.8-3.8v0c2.2-0.6,3.5-1.8,3.5-4.1c0-3.2-2.9-4.1-5.8-4.1   H51.4V85.8L51.4,85.8z M57.5,78.9h1.7c1.2,0,2.4,0.3,2.4,1.7c0,1.3-1.3,1.7-2.5,1.7h-1.7V78.9L57.5,78.9z M57.5,72.2h1.8   c1.2,0,2.2,0.4,2.2,1.6c0,1.3-1.2,1.6-2.4,1.6h-1.6V72.2L57.5,72.2z"/>
	<path class="st1" d="M70.6,77.2c1.2-0.6,2.7-1.1,4.2-1.1c1.5,0,3.2,0.2,3.2,1.8c-0.6,0-1.5-0.2-2.4-0.2c-3,0-6.5,0.8-6.5,4.6   c0,2.6,2.3,3.7,4.6,3.7c1.7,0,3.2-0.7,4.1-2.1h0v1.8h5.6v-7.6c0-4.6-4.2-5.2-7.7-5.2c-2.4,0-3.4,0.2-5.2,0.7V77.2L70.6,77.2z    M78,80.7c0,1.1-0.6,2.2-1.9,2.2c-0.9,0-1.4-0.3-1.4-1.2c0-1.3,1.4-1.4,2.7-1.4H78V80.7L78,80.7z"/>
	<path class="st0" d="M85.4,85.8h6.1v-7.2c0-0.7,0-1.7,1.1-1.7c1.1,0,1.1,1,1.1,1.7v7.2h6.1v-8.7c0-2.4-1.2-4.1-4.4-4.1   c-1.7,0-3.4,0.7-4.1,2.4h0v-2.2h-5.7V85.8L85.4,85.8z"/>
	<polygon class="st0" points="107.9,67.8 101.8,67.8 101.8,85.8 107.9,85.8 107.9,79.7 107.9,79.7 111.4,85.8 118.4,85.8 114,78.8    118.3,73.3 111.4,73.3 107.9,78.2 107.9,78.2 107.9,67.8  "/>
	<g>
		<g>
			<path class="st0" d="M42,81.5c1.2,0,2.1,1,2.1,2.2c0,1.2-0.9,2.2-2.1,2.2c-1.2,0-2.2-1-2.2-2.2C39.8,82.5,40.8,81.5,42,81.5     L42,81.5z M42,81.9c-1,0-1.7,0.8-1.7,1.8c0,1,0.8,1.8,1.8,1.8c1,0,1.7-0.8,1.7-1.8C43.7,82.7,42.9,81.9,42,81.9L42,81.9z      M41.6,85h-0.4v-2.4c0.2,0,0.4-0.1,0.7-0.1c0.4,0,0.6,0.1,0.8,0.2c0.1,0.1,0.2,0.3,0.2,0.5c0,0.3-0.2,0.5-0.5,0.6v0     c0.2,0,0.4,0.2,0.4,0.6c0.1,0.4,0.1,0.5,0.2,0.6h-0.4c-0.1-0.1-0.1-0.3-0.2-0.6c-0.1-0.3-0.2-0.4-0.5-0.4h-0.3V85z M41.6,83.6     h0.3c0.3,0,0.6-0.1,0.6-0.4c0-0.2-0.2-0.4-0.6-0.4c-0.1,0-0.2,0-0.3,0V83.6z"/>
		</g>
		<g>
			<path class="st0" d="M22.4,47.3l-0.9,2.4L13,49.1c6.2-3.6,15.5-2.8,21.2,1.2c3,2,5.6,5.1,7.1,8.1c3.6,6.2,2.8,15.5-1.2,21.2     c-5,7.2-13.2,10.6-21.9,9c-4-0.8-7.5-2.8-10.6-5.7l3.3-0.2l-0.5,1.8c4-2.7,8-5.7,12-8.6c4.2,2.8,8,5.8,12.1,8.7     c-1.3-4.7-3.1-9.4-4.5-14.2L42,61.5H27.1L22.4,47.3z"/>
			<path class="st0" d="M21.4,50.1c-0.3,0.9-0.6,1.8-0.9,2.7l-11.8-1l1.3-1C13.9,50.7,17.5,50.3,21.4,50.1z"/>
			<path class="st0" d="M6.5,54.1c4.6-0.3,9.3-0.6,13.9-0.9L19.5,56L5.9,54.8L6.5,54.1z"/>
			<path class="st0" d="M4.2,57.2c5-0.2,10.2-0.7,15.2-0.9L18.5,59L3.8,57.9L4.2,57.2z"/>
			<path class="st0" d="M17.9,59.4h0.5l-0.6,2.1H2.9l2.5,2c0,0-3.5-0.3-3.6-0.3c0,0,0.5-1.8,0.8-2.7L17.9,59.4z"/>
			<polygon class="st0" points="6.1,63.9 9.4,66.4 1.4,65.8 1.6,64.2    "/>
			<path class="st0" d="M13.6,69.4l-12.3-1v-1.1c0,0,8.8-0.5,8.8-0.5L13.6,69.4z"/>
			<path class="st0" d="M14,69.7l0.8,0.6l-0.6,2.2c0,0-12.5-0.9-12.5-0.9c-0.1-0.4-0.1-0.7-0.1-1.1L14,69.7z"/>
			<path class="st0" d="M2.5,75c-0.2-0.4-0.4-1.3-0.4-1.3L14,72.9l-0.9,2.9L2.5,75z"/>
			<polygon class="st0" points="12.1,79 4.1,78.4 3.3,76.8 13,76.2    "/>
			<polygon class="st0" points="11.9,79.4 11,82.3 6.7,82 5.1,79.9    "/>
		</g>
	</g>
</g>
</svg>