<?xml version="1.0" encoding="UTF-8"?>
<!-- Generator: Adobe Illustrator 20.0.0, SVG Export Plug-In . SVG Version: 6.00 Build 0)  -->
<svg version="1.1" id="Layer_1" xmlns="http://www.w3.org/2000/svg" xmlns:xlink="http://www.w3.org/1999/xlink" x="0px" y="0px" viewBox="0 0 200 135" style="enable-background:new 0 0 200 135;" xml:space="preserve">
<style type="text/css">
	.st0{fill:#2C3739;}
</style>
<g>
	<path class="st0" d="M30.7,22.7v65h135.9v-65H30.7z M81.9,39.8v14.6c0,13.1-3.3,24-19.8,24c-11.1,0-17-5.6-17-18.1V39.2   c0-5.5-6.2-3.5-6.2-5.9c0-0.8,0.8-1,1.2-1c0.8,0,5.2,0.2,8.2,0.2c3,0,7.2-0.2,8.4-0.2c0.6,0,0.7,0.5,0.7,0.9c0,2.2-4.9-1.2-4.9,9.4   v14c0,9.9,2.4,18.1,12.9,18.1c11.9,0,13.4-10.2,13.4-21.1V40.7c0-7.4-7.3-5.4-7.3-7.7c0-1,1-0.7,1.8-0.7c1.7,0.1,3.3,0.2,5,0.2   c1.9,0,3.8-0.1,6.8-0.2c0.7,0,1,0.1,1,0.8C86,34.8,81.9,32.5,81.9,39.8z M103.3,78.4c-4.6,0-8.5-1.6-12.7-2.4   c-1.9-0.4-1.8-0.9-2.2-2.5L86,64.7c-0.3-0.9-1-2.8,0.9-2.8c1.2,0,1.3,0.6,1.6,1.4c2.5,6.2,7,12.1,15.4,12.1   c5.8,0,10.3-3.1,10.3-8.3c0-5.5-4.7-6.3-16.7-10.9c-6.5-2.5-10.8-5-10.8-11.8c0-7.4,6-12.8,14.7-12.8c6.1,0,9.3,2.5,11.5,2.5   c0.9,0,2.9-1,3.8-1c1.1,0,1,1,1,2.5l0.9,8.6c0.1,1.4-0.1,2.2-1.7,2.2c-1.7,0-2.9-12-15.7-12c-4.9,0-8.4,2.5-8.4,6.8   c0,4.3,4.1,5.2,14.2,9c8,3,12.9,5.8,12.9,14C119.9,72.6,113.1,78.4,103.3,78.4z M157.3,42.6c-3.3,0,2.3-7.7-11.4-7.7   c-8.6,0-8.9,0.1-8.9,4.6v9.2c0,2.8,0,3.3,3,3.3h4.5c6.1,0,6.3-6,7.7-6c0.5,0,1.2-0.2,1.3,1.6l0.5,11.7c0.1,0.8,0.5,3.2-1.1,3.2   c-2.3,0-0.3-6.9-7.7-6.9H140c-3.2,0-3,0.8-3,4.6v9.7c0,7.3,8,5.6,8,7.4c0,1.3-1.5,1.1-3.2,1.1c-2.8,0-5.3-0.3-8.5-0.3   c-2.2,0-5.1,0.3-9,0.3c-1,0-1.3-0.3-1.3-0.7c0-3,5.3,0.5,5.3-7.5V39.4c0-5.9-8-3.8-8-6.4c0-0.6,0.6-1.1,1.6-1.1   c2.9,0,8,0.3,18.8,0.3c4.9,0,9.9-0.3,16.1-0.3c1,0,1.4,0.6,1.4,1.3l0.3,6.5C158.6,40.5,159,42.6,157.3,42.6z"/>
	<path class="st0" d="M52.6,111.2c-0.9-0.3-1.6-0.5-1.6-1.5V94.2c0-1.1,0.6-1.3,1.2-1.5c0.3-0.1,0.7-0.2,0.7-0.6   c0-0.5-0.3-0.8-1.1-0.8c-0.3,0-0.5,0-0.8,0c-0.4,0-0.8,0.1-1.3,0.1c-0.2,0-0.7,0-1.2,0c-0.6,0-1.3-0.1-1.9-0.1   c-0.5,0-0.8,0.2-0.8,0.7c0,0.5,0.5,0.6,0.9,0.7c0.7,0.2,1.3,0.4,1.3,1.5v6c0,0.3,0,0.5-0.1,0.5H37.4c-0.1,0-0.1,0-0.2,0   c0,0,0-0.1,0-0.2v-6.3c0-1.2,0.7-1.4,1.3-1.6c0.4-0.1,0.8-0.2,0.8-0.6c0-0.3-0.1-0.6-0.8-0.6c-0.5,0-1,0-1.5,0.1   c-0.5,0-0.9,0.1-1.3,0.1c-0.5,0-1,0-1.5-0.1c-0.5,0-1.1-0.1-1.7-0.1c-0.5,0-0.8,0.3-0.8,0.7c0,0.5,0.5,0.6,1,0.7   c0.9,0.2,1.6,0.4,1.6,1.5v14.9c0,1.6-0.7,1.8-1.4,2c-0.4,0.1-0.9,0.2-0.9,0.8c0,0.7,0.5,0.8,0.6,0.8c0.1,0,0.1,0,0.2,0   c0.3,0,0.8-0.1,2.4-0.1c1,0,2.2,0,3,0.1c0.5,0,0.9,0,1,0c0.4,0,0.7-0.3,0.7-0.6c0-0.6-0.6-0.7-1.2-0.9c-0.9-0.2-1.6-0.5-1.6-1.4   v-7.3c0-0.1,0-0.1,0-0.2c0,0,0,0,0.1,0h10.7c0,0,0,0.1,0,0.2c0,0.1,0,0.2,0,0.2v7c0,0.8-0.5,1.1-1.2,1.3c-0.4,0.2-0.9,0.3-0.9,0.8   c0,0.3,0.1,0.4,0.2,0.5c0.2,0.2,0.5,0.2,0.7,0.2c0,0,0,0,0.1,0c0.2,0,0.5,0,0.8,0c0.6,0,1.3-0.1,2.6-0.1c0.6,0,1,0,1.5,0.1   c0.4,0,0.8,0.1,1.1,0.1c0.5,0,0.7-0.4,0.7-0.7C53.6,111.5,53.1,111.3,52.6,111.2z"/>
	<path class="st0" d="M75.3,107.9c-0.2,0-0.3,0.2-0.6,0.4c-0.6,0.7-2.3,2.6-7.5,2.6c-1,0-1.5-0.1-1.7-0.4c-0.2-0.2-0.2-0.7-0.2-1.4   l0-0.3v-5.4c0-0.1,0-0.1,0-0.2c0-0.2,0-0.4,0-0.4c0,0,0.1,0,0.2,0h4.3c1.3,0,1.4,0.7,1.6,1.5c0.1,0.5,0.2,1.1,0.8,1.1   c0.1,0,0.6,0,0.6-0.7v-5.3c0-0.4-0.2-0.8-0.6-0.8c-0.4,0-0.6,0.4-0.7,0.8c-0.2,0.6-0.4,1.5-2.3,1.5h-3.1c-0.4,0-0.7,0-0.8,0   c0-0.1,0-0.4,0-0.6v-5.4c0-0.7,0-1.2,0.1-1.4c0.2-0.2,0.8-0.2,1.7-0.2l0.6,0l0.5,0c1.2,0,3.6-0.1,4.2,0.7c0.1,0.2,0.2,0.6,0.2,0.9   c0,0.5,0.1,1.3,0.8,1.3c0.3,0,0.5-0.3,0.6-0.7c0.2-0.6,0.3-1.6,0.3-3.1c0-0.7-0.3-1-0.6-1c-0.5,0-1.6,0-2.6,0.1c-0.7,0-1.4,0-1.6,0   c-0.4,0-0.8,0-1.4,0c-1.2,0-3.1-0.1-6.9-0.1c-0.6,0-1.4,0-1.4,0.7c0,0.5,0.6,0.6,0.9,0.7c0.1,0,0.1,0,0.2,0l0,0l0,0   c1.3,0.2,1.4,1.1,1.4,2.6v13.3c0,1.3-0.1,2-0.7,2.3c-0.3,0.2-0.5,0.3-0.7,0.3c-0.4,0.1-0.7,0.3-0.7,0.7c0,0.4,0.3,0.6,0.7,0.6   c0.6,0,1.3,0,1.9-0.1c0.6,0,1.2-0.1,1.7-0.1c1.3,0,2.6,0,3.9,0c0.9,0,1.9,0.1,2.8,0.1h0.1c1.2,0,1.9,0,3-1.1   c0.7-0.9,1.5-1.9,1.5-3.1C75.8,107.9,75.4,107.9,75.3,107.9z"/>
	<path class="st0" d="M100,111.3c-0.6-0.1-1.2-0.2-1.6-0.9c-0.6-0.9-0.9-1.9-1.3-2.9l-0.1-0.4c0,0-6.1-15.1-6.1-15.1   c0,0,0-0.1-0.1-0.2c-0.1-0.5-0.3-1.1-0.8-1.1c-0.5,0-0.6,0.3-1.5,2.3l-0.9,2c0,0-7,14.9-7,14.9c-0.4,0.9-1,1.1-1.4,1.2   c-0.3,0.1-0.7,0.2-0.7,0.7c0,0.4,0.2,0.7,0.6,0.7c0.4,0,0.8,0,1.2-0.1c0.4,0,0.7-0.1,1.1-0.1c0.4,0,0.8,0,1.2,0.1   c0.4,0,0.8,0.1,1.3,0.1c0,0,0.1,0,0.1,0c0.3,0,0.5,0,0.7-0.2c0.1-0.1,0.2-0.3,0.2-0.6c0-0.5-0.5-0.6-0.9-0.7   c-0.6-0.1-1.2-0.2-1.2-1.2c0-0.3,0.1-0.6,0.2-0.8l0-0.1c0,0,1.8-4.1,1.8-4.1c0.2-0.4,0.5-0.4,1.1-0.4h6.4c0.6,0,0.8,0.2,1,0.9   c0,0,0.9,2.4,0.9,2.4c0.6,1.2,0.9,2.2,0.9,2.7c0,0.4-0.3,0.5-0.9,0.7c-0.4,0.1-1,0.3-1,0.8c0,0.3,0.2,0.6,1,0.6   c0.5,0,0.9,0,1.3-0.1c0.4,0,0.7-0.1,1.1-0.1c0.6,0,1.2,0,1.8,0.1c0.6,0,1.2,0.1,1.8,0.1c0.5,0,0.7-0.2,0.7-0.6   C101,111.5,100.4,111.4,100,111.3z M89.2,95.6l2.8,6.9c0,0.1,0.1,0.1,0.1,0.2c0,0-0.1,0-0.2,0h-5.8c-0.1,0-0.1,0-0.1,0   c0,0,0,0,0-0.1C86,102.6,88.8,96.4,89.2,95.6z"/>
	<path class="st0" d="M118.4,107.9c-0.2,0-0.4,0.2-0.6,0.4c-0.6,0.7-2.2,2.6-7.5,2.6c-1,0-1.5-0.1-1.7-0.4c-0.2-0.2-0.2-0.7-0.2-1.4   v-0.3V94.6c0-1.4,0.7-1.6,1.4-1.8c0.4-0.1,0.8-0.2,0.8-0.7c0-0.7-0.7-0.7-0.9-0.7c-0.2,0-0.4,0-0.6,0c-0.5,0-1.1,0.1-2.2,0.1   c-0.8,0-1.5,0-2-0.1c-0.4,0-0.7,0-1,0c-0.2,0-0.9,0-0.9,0.7c0,0.5,0.5,0.6,1,0.8c0.8,0.2,1.4,0.5,1.4,1.1v14.8c0,1.3-0.1,2-0.6,2.3   c-0.3,0.1-0.5,0.2-0.7,0.3c-0.4,0.2-0.7,0.3-0.8,0.6l0,0v0c0,0.1,0.1,0.6,0.8,0.6c0.6,0,1.2,0,1.8-0.1c0.6,0,1.2-0.1,1.7-0.1   c1.3,0,2.6,0,3.9,0c0.9,0,1.9,0.1,2.8,0.1h0.1c1.2,0,1.9,0,2.9-1.1c0.7-0.9,1.5-1.9,1.5-3.1C118.9,107.9,118.5,107.9,118.4,107.9z"/>
	<path class="st0" d="M138.1,92.5c0-0.3,0-0.7-0.3-0.9c-0.2-0.2-0.6-0.3-0.9-0.3c-0.1,0-0.4,0-0.8,0c-1.2,0-3.7,0.1-7.7,0.1   c-2.1,0-3.7,0-5.1-0.1c-1.1,0-2.1,0-3.1,0c-0.8,0-0.8,1-0.8,1.4l-0.4,2.8l0,0v0c0,0.3,0.3,0.7,0.6,0.7c0.6,0,0.8-0.6,0.9-0.9l0,0   c0,0,0-0.1,0-0.1c0.5-1.5,0.5-1.7,2.1-1.7h4.7c0,0.1,0.1,0.3,0.1,0.9c0,0.1,0,0.1,0,0.1v15.2c0,0.8-0.5,1-1.3,1.3   c-0.5,0.2-1,0.4-1,0.9c0,0.6,0.5,0.7,0.6,0.7c0.1,0,0.1,0,0.2,0c0.3,0,1.2-0.1,3.8-0.1c0.4,0,0.9,0,1.3,0.1c0.4,0,0.7,0.1,1.1,0.1   c0.1,0,0.6,0,0.6-0.7c0-0.6-0.5-0.7-1-0.8c-0.7-0.2-1.4-0.3-1.4-1.6V94.7v-0.3c0-0.4,0-0.7,0-0.8c0.1,0,0.3,0,0.6,0l0.2,0h4.2   c1.6,0,1.7,0.6,1.7,1.2c0,0.4,0.1,1,0.7,1c0.7,0,0.7-0.7,0.7-1C138.3,94.8,138.1,92.5,138.1,92.5z"/>
	<path class="st0" d="M164.6,111.2c-0.9-0.3-1.6-0.5-1.6-1.5V94.2c0-1.1,0.7-1.3,1.3-1.5c0.3-0.1,0.7-0.2,0.7-0.6   c0-0.2-0.1-0.8-1.2-0.8c-0.3,0-0.5,0-0.8,0c-0.3,0-0.7,0.1-1.3,0.1c-0.2,0-0.7,0-1.1,0c-0.6,0-1.4-0.1-1.9-0.1   c-0.5,0-0.8,0.2-0.8,0.7c0,0.5,0.5,0.6,0.9,0.7c0.7,0.2,1.3,0.4,1.3,1.5v6c0,0,0,0,0,0.1c0,0.3,0,0.4,0,0.4h-10.6c0,0-0.1,0-0.1,0   c0-0.1,0-0.1,0-0.2v-6.3c0-1.2,0.7-1.4,1.3-1.6c0.4-0.1,0.8-0.2,0.8-0.6c0-0.1,0-0.6-0.9-0.6c-0.5,0-0.9,0-1.4,0.1   c-0.4,0-0.9,0.1-1.4,0.1c-0.5,0-1,0-1.5-0.1c-0.5,0-1.1-0.1-1.7-0.1c-0.4,0-0.7,0.3-0.7,0.7c0,0.5,0.5,0.6,0.9,0.7   c0.7,0.2,1.5,0.4,1.5,1.5v14.9c0,1.6-0.7,1.8-1.4,2c-0.4,0.1-0.9,0.2-0.9,0.8c0,0.7,0.4,0.8,0.7,0.8c0,0,0.1,0,0.1,0   c0.2,0,0.6-0.1,2.4-0.1c1,0,2.3,0.1,3.2,0.1c0.4,0,0.8,0,0.9,0c0.5,0,0.8-0.3,0.8-0.6c0-0.6-0.6-0.7-1.2-0.9   c-0.9-0.2-1.6-0.5-1.6-1.4v-7.3c0-0.1,0-0.1,0-0.2h10.7c0,0,0,0.1,0,0.2c0,0.1,0,0.2,0,0.2v7c0,0.8-0.5,1.1-1.2,1.3   c-0.4,0.2-0.9,0.3-0.9,0.8c0,0.3,0.1,0.4,0.2,0.5c0.2,0.2,0.5,0.2,0.8,0.2c0,0,0.1,0,0.1,0c0.2,0,0.4,0,0.7,0   c0.5,0,1.3-0.1,2.5-0.1c0.5,0,1,0,1.5,0.1c0.4,0,0.8,0.1,1.3,0.1c0.4,0,0.6-0.4,0.6-0.7C165.7,111.5,165.2,111.3,164.6,111.2z"/>
	<g>
		<path class="st0" d="M173.7,23c1.7,0,3,1.4,3,3.1c0,1.7-1.3,3.1-3,3.1c-1.7,0-3.1-1.4-3.1-3.1C170.6,24.3,172,23,173.7,23    L173.7,23z M173.7,23.5c-1.4,0-2.5,1.2-2.5,2.6c0,1.5,1.1,2.6,2.5,2.6c1.4,0,2.5-1.1,2.5-2.6C176.1,24.6,175,23.5,173.7,23.5    L173.7,23.5z M173.1,27.9h-0.5v-3.4c0.3,0,0.6-0.1,1-0.1c0.5,0,0.9,0.1,1.1,0.3c0.2,0.2,0.3,0.4,0.3,0.7c0,0.5-0.3,0.7-0.7,0.8v0    c0.3,0.1,0.5,0.3,0.6,0.8c0.1,0.5,0.2,0.7,0.2,0.8h-0.6c-0.1-0.1-0.2-0.4-0.2-0.9c-0.1-0.4-0.3-0.6-0.7-0.6h-0.4V27.9z     M173.1,25.9h0.4c0.5,0,0.8-0.2,0.8-0.6c0-0.3-0.2-0.6-0.8-0.6c-0.2,0-0.3,0-0.4,0V25.9z"/>
	</g>
</g>
</svg>