<?xml version="1.0" encoding="UTF-8"?>
<!-- Generator: Adobe Illustrator 19.2.1, SVG Export Plug-In . SVG Version: 6.00 Build 0)  -->
<svg version="1.1" id="Layer_1" xmlns="http://www.w3.org/2000/svg" xmlns:xlink="http://www.w3.org/1999/xlink" x="0px" y="0px" viewBox="0 0 200 135" style="enable-background:new 0 0 200 135;" xml:space="preserve">
<style type="text/css">
	.st0{fill:#2C3739;}
</style>
<g id="adidas">
	<path class="st0" d="M163.1,117c-6.9,0-11-3.5-11.3-8.6h6.5c0,1.6,1,3.8,5.2,3.9c2.8,0,4.2-1.7,4.2-2.9c-0.2-2-2.6-2.2-5.3-2.6   c-2.6-0.4-4.9-0.9-6.5-1.8c-2.1-1-3.4-3.4-3.4-6c0-4.5,3.8-8,10.3-8c6.2,0,10.2,3.3,10.6,8.2h-6.2c-0.1-1.3-0.3-3.4-4-3.4   c-2.5,0-4.1,0.5-4.2,2.2c0,2.6,5.2,2.4,9.2,3.4c3.8,1,6.3,3.4,6.3,6.7C174.3,114.6,169.3,117,163.1,117L163.1,117z"/>
	<polygon class="st0" points="43.5,75.6 65.2,63.1 76.6,82.9 47.7,82.9  "/>
	<polygon class="st0" points="92.1,116.3 85.9,116.3 85.9,91.4 92.1,91.4  "/>
	<path class="st0" d="M33.6,104c0,3.8,3.3,7,7.2,7s7.3-3.2,7.3-7c0-3.8-3.3-7.2-7.3-7.2C36.9,96.8,33.6,100.1,33.6,104L33.6,104z    M40.7,117c-7,0-13-5.8-13-13c0-7.2,5.8-12.9,13-12.9c2.7,0,5.3,0.7,7.4,2.2v-2h6.1v25h-6.1v-1.7C45.9,116.1,43.5,117,40.7,117   L40.7,117z"/>
	<polygon class="st0" points="123.8,82.9 93.7,30.6 115.3,18 152.8,82.9  "/>
	<path class="st0" d="M62.2,104c0,3.8,3.3,7,7.3,7c3.8,0,7.2-3.2,7.2-7c0-3.8-3.3-7.2-7.2-7.2C65.5,96.8,62.2,100.1,62.2,104   L62.2,104z M69.3,117c-7.2,0-13-5.8-13-13c0-7.2,5.8-12.9,13-12.9c2.7,0,5.2,0.7,7.4,2.2V82.9h6.2v33.5h-6.2v-1.7   C74.5,116.1,72,117,69.3,117L69.3,117z"/>
	<polygon class="st0" points="68.8,53.3 90.5,40.9 114.9,82.9 92.1,82.9 92.1,89.1 85.9,89.1 85.9,82.9  "/>
	<path class="st0" d="M170.3,89.1c-1.7,0-3.1-1.4-3.1-3.1c0-1.7,1.4-3.1,3.1-3.1c1.7,0,3.1,1.4,3.1,3.1   C173.4,87.7,171.9,89.1,170.3,89.1L170.3,89.1z M170.3,83.3c-1.4,0-2.6,1.2-2.6,2.6s1.2,2.6,2.6,2.6c1.4,0,2.6-1.2,2.6-2.6   S171.7,83.3,170.3,83.3L170.3,83.3z"/>
	<path class="st0" d="M171,87.7l-0.8-1.4h-0.5v1.4h-0.5v-3.4h1.1c0.6,0,1,0.4,1,1c0,0.5-0.3,0.8-0.7,1l0.8,1.4L171,87.7L171,87.7z    M170.3,84.7h-0.6v1.2h0.6c0.4,0,0.6-0.2,0.6-0.6C171,84.9,170.7,84.7,170.3,84.7L170.3,84.7z"/>
	<path class="st0" d="M129,104c0,3.8,3.3,7,7.2,7c3.8,0,7-3.2,7-7c0-3.8-3.2-7.2-7-7.2C132.3,96.8,129,100.1,129,104L129,104z    M135.9,117c-7,0-13-5.8-13-13c0-7.2,5.8-12.9,13-12.9c2.7,0,5.3,0.7,7.4,2.2v-2h6.2v25h-6.2v-1.7C141.2,116.1,138.7,117,135.9,117   L135.9,117z"/>
	<path class="st0" d="M100.5,104c0,3.8,3.3,7,7.1,7c3.9,0,7.2-3.2,7.2-7c0-3.8-3.3-7.2-7.2-7.2C103.8,96.8,100.5,100.1,100.5,104   L100.5,104z M114.9,82.9h6.1v33.5h-6.1v-1.7c-2.1,1.4-4.6,2.2-7.4,2.2c-7.1,0-13-5.8-13-13c0-7.2,5.8-12.9,13-12.9   c2.8,0,5.3,0.7,7.4,2.2V82.9L114.9,82.9z"/>
</g>
</svg>