<?xml version="1.0" encoding="UTF-8"?>
<!-- Generator: Adobe Illustrator 20.0.0, SVG Export Plug-In . SVG Version: 6.00 Build 0)  -->
<svg version="1.1" id="Layer_1" xmlns="http://www.w3.org/2000/svg" xmlns:xlink="http://www.w3.org/1999/xlink" x="0px" y="0px" viewBox="0 0 200 135" style="enable-background:new 0 0 200 135;" xml:space="preserve">
<style type="text/css">
	.st0{fill:#2C3739;}
</style>
<g>
	<path class="st0" d="M77.2,23v49.5h49.5V23H77.2z M112.6,58.5v-7.1H98.4l7.1-7.1h14.1v21.3H84.3V30.3h35.4l-7.1,7.1H91.4v21.3    M91.4,58.5h21.3"/>
	<path class="st0" d="M182.2,91.4c1.7,0,2.9,0,3.8,0.1c1.3,0.1,2.4,0.5,3.4,1c1.4,0.6,2,1.7,2,3.1c0,1.5-0.9,2.6-2.7,3.5   c-1.6,0.7-3.6,1.3-6.1,1.5l10.5,8.9h-4.1l-9.9-8.8h-2.2v8.8h-3.4V91.4H182.2L182.2,91.4z M188.2,96c0-1.6-0.9-2.6-2.7-3.2   c-1.2-0.4-2.8-0.6-5-0.6h-1.8H177c-0.1,0.6,0,5.9,0,7.9c0.5,0,5.2,0,6.1-0.1C186.5,99.3,188.2,98,188.2,96L188.2,96z"/>
	<polygon class="st0" points="167.8,91.4 167.8,92.2 155.5,92.2 155.5,99.8 166.8,99.8 166.8,100.6 155.5,100.6 155.5,108.8    168,108.8 168,109.5 152.3,109.5 152.3,91.4  "/>
	<polygon class="st0" points="147.3,91.4 147.3,92.2 138.1,92.2 138.1,109.5 134.9,109.5 134.9,92.2 125.7,92.2 125.7,91.4  "/>
	<path class="st0" d="M122.9,104.6c0,2-1.5,3.5-4.5,4.5c-1.6,0.5-3.6,0.7-5.9,0.7c-2,0-4.1-0.4-6.2-1.2V108c2.1,0.7,4.1,1.2,6.1,1.2   c1.9,0,3.5-0.3,4.8-0.8c1.7-0.6,2.4-1.7,2.4-2.8c0-1-0.5-1.9-1.8-2.6c-0.6-0.3-1.8-0.7-3.7-1.4c-2.2-0.7-3.9-1.4-5-1.8   c-2.1-0.8-3-2.1-3-3.7c0-1.4,0.8-2.5,2.5-3.5c1.8-0.9,4-1.4,6.6-1.4c1.9,0,4,0.3,6.1,0.8l-0.1,0.6c-1.8-0.4-3.6-0.6-5.1-0.6   c-1.9,0-3.6,0.3-4.9,0.9c-1.4,0.6-1.9,1.4-1.9,2.4c0,0.8,0.4,1.6,1.3,2.1c0.6,0.4,1.8,0.8,3.2,1.3l4.6,1.6   C121.5,101.4,122.9,102.8,122.9,104.6L122.9,104.6z"/>
	<polygon class="st0" points="79,91.4 98.9,107.1 98.9,91.4 100.1,91.4 100.1,109.8 97.5,109.8 77.7,94.1 77.7,109.5 76.3,109.5    76.3,91.4  "/>
	<path class="st0" d="M48.1,91.4v11.9c0,1.6,0.6,2.8,2,3.8c1.4,1,3.4,1.5,6.1,1.5c2,0,4-0.3,5.9-0.8c1.7-0.5,2.8-1,3.6-1.6V91.4h3.4   v18.1h-3.2V107c-3,1.9-6.8,2.8-11.3,2.8c-2,0-3.7-0.3-5.2-0.8c-1.6-0.6-2.7-1.5-3.4-2.5c-0.5-0.8-0.7-2-0.7-3.6l-0.1-11.5   L48.1,91.4L48.1,91.4z"/>
	<path class="st0" d="M15.6,93.6c2.9-1.7,6.5-2.6,10.7-2.6c4.3,0,7.9,0.8,10.5,2.4l-0.6,0.5c-2.3-1.2-4.9-1.8-7.9-1.8   c-3.7,0-6.8,0.6-9.4,1.9c-2.9,1.5-4.4,3.6-4.4,6.2c0,2.5,1.4,4.6,4.2,6.2c2.6,1.6,5.8,2.4,9.5,2.4c2.2,0,4.2-0.2,6.3-0.5V102h-6.4   v-0.8h9.7v7.4c-3.7,0.8-7.4,1.3-11.5,1.3c-4.4,0-8.1-0.8-10.9-2.6c-2.9-1.8-4.3-4-4.3-6.8C10.9,97.7,12.5,95.5,15.6,93.6L15.6,93.6   z"/>
</g>
</svg>