<?xml version="1.0" encoding="UTF-8"?>
<!-- Generator: Adobe Illustrator 19.2.1, SVG Export Plug-In . SVG Version: 6.00 Build 0)  -->
<svg version="1.1" id="Layer_1" xmlns="http://www.w3.org/2000/svg" xmlns:xlink="http://www.w3.org/1999/xlink" x="0px" y="0px" viewBox="0 0 200 135" style="enable-background:new 0 0 200 135;" xml:space="preserve">
<style type="text/css">
	.st0{fill:#2C3739;}
</style>
<g id="mosaic">
	<g>
		<path class="st0" d="M85.8,73.5c-0.7-0.1-13.5,7.2-13.5,7.2S92.9,85,122.8,94c0,0,6-8.5,10.1-13.1C133,80.9,115.6,77.6,85.8,73.5"/>
		<path class="st0" d="M62.1,72.7C72.2,70.9,82.7,73,82.7,73s-16.6,7.9-32.2,17.7c0,0-13.1-3.9-22.6-4.9    C27.9,85.8,52.2,74.4,62.1,72.7"/>
		<path class="st0" d="M97.9,89.8c0,0,9.7,2.6,23.1,7.1c0,0-8.5,12.6-11.5,18.5c0,0-8.5-4.9-24.5-12C84.9,103.4,88.3,99.8,97.9,89.8    "/>
		<path class="st0" d="M54.2,91.9c0,0,6.4-4.5,15.4-9.6c0,0,10.3,2.1,25.4,6.5l-13.5,13c0,0-7.9-3.3-14.6-5.7    C60.2,93.7,54.2,91.9,54.2,91.9"/>
		<path class="st0" d="M54.5,72l-0.4,0.3l-10.5,0.2l-0.3-0.3l1.9-9.7l1.3-6.6l2.7-13.2l-9.5,19.6L35.2,72l-0.4,0.3l-8.6,0.2    l-0.4-0.3L25.4,65l-1-22.4l-1.5,5.8l-2.2,8.9L17.2,72l-0.4,0.3c-4.1,0-5.2,0.1-9,0.2l-0.3-0.3l3.3-12l3.8-13.9l3.2-12.1l0.3-0.3    c6.8,0,8.4,0,14.9-0.2l0.3,0.3l0.3,8.6l0.2,4l0.5,10.6l6.9-14.7c0.9-1.8,3.5-7.6,3.9-8.3l0.4-0.3c6.4,0,7.9,0,14.8-0.2l0.3,0.3    l-2.1,12.2L56.1,61L54.5,72z"/>
		<path class="st0" d="M85.9,66.3c-1.4,2.2-2.8,3.3-4.6,4.3c0,0-0.1,0.1-0.3,0.1c-0.1,0-0.2,0.1-0.4,0C76.1,70,74.2,70,72.1,70    c-2,0-5.1-0.1-8.4,0.5c-0.1,0-0.2,0-0.3,0s-0.2-0.1-0.2-0.1c-2.8-2-4.3-5-4.3-9.6c0-4.4,1.6-9.6,4.5-13.2c3.9-4.5,9-5.2,12.6-5.2    c3.7,0,6.5,0.9,7.7,1.6C89,47,89,53.2,89,54.5c0,2-0.2,3.9-0.6,5.7C87.8,62.6,86.8,64.9,85.9,66.3 M78.1,52.9    c0-2.1-0.9-3.5-2.6-3.5c-2.1,0-3.2,2.3-3.5,2.8c-1.4,2.6-2.3,8.1-2.3,10.3c0,0.9,0,3.8,2.6,3.8c2.8,0,4.4-3.8,5.2-8.3    C78.1,55.3,78.1,53.1,78.1,52.9"/>
		<path class="st0" d="M87.9,69.7l2-6.9l0.5-0.2c0.9,1,3.2,3.6,7.5,3.6c1.7,0,3.8-0.5,3.8-2.2c0-1.5-1.3-2.1-3.4-3.2l-1.1-0.6    c-2.5-1.4-5.4-3-5.4-7.5c0-2.4,1-4.8,2.7-6.6c2-2.1,5.3-3.6,10.5-3.6c4.4,0,6.8,1,9.7,2.2l0.3,0.5c-0.9,2.9-1.1,3.8-1.9,6.9    l-0.5,0.1c-0.4-0.5-0.9-1.1-1.4-1.6c-1.3-1-3.3-1.7-5-1.7c-2.7,0-3.3,1.3-3.3,2c0,1.2,1.4,1.9,2.8,2.6l1.1,0.5    c3.1,1.6,6.4,3.5,6.4,8.5c0,3.2-1.5,5.3-2.4,6.3c-3.6,4.1-9.1,4.2-11.4,4.2c-6.2,0-9.2-1.7-11-2.7L87.9,69.7z"/>
		<path class="st0" d="M145.6,53.8c-0.9,3.8-1.8,7.7-2.6,11.5c-0.4,2.2-0.8,4.4-1.1,6.6l-0.3,0.3l-10.1,0.2l-0.3-0.3l0.4-2.5    c-2.2,2.2-5.1,3.3-8.2,3.3c-2.6,0-4.2-1-5.1-1.6c-3.6-2.7-3.7-7.4-3.7-9.1c0-6.6,3.2-11.5,5.6-13.8c5.3-5.2,12.1-5.2,17.2-5.3    h10.3l0.3,0.4L145.6,53.8z M135.8,50.3c-1.7-0.1-3.9-0.1-5.9,1.5c-1.5,1.3-3.7,4.6-3.7,9.5c0,2.8,1.3,4.4,3.4,4.4    c1.2,0,2-0.5,2.8-1.1L135.8,50.3z"/>
		<path class="st0" d="M159.1,61.7c-1.1,5.3-1.3,6.5-1.9,10.3l-0.3,0.3l-11.6,0.2l-0.2-0.4c1.9-6.9,2.2-8.1,3.6-14.6l0.5-2.3    c1.1-5.2,1.3-6.3,1.9-10.6l0.4-0.4c5.5-0.7,6.8-0.9,11.7-1.9l0.3,0.4l-3.8,15.9L159.1,61.7z M164.1,38.6l-0.4,0.4L153,40.6    l-0.4-0.4l1.9-8.7l0.4-0.4l10.9-1.5l0.3,0.4L164.1,38.6z"/>
		<path class="st0" d="M185,63.6c-1.1,3.9-1.2,4.6-1.9,7.8l-0.4,0.4c-2,0.7-3.9,1.2-6.7,1.2c-9.1,0-13.6-5.4-13.6-13.4    c0-8.1,5.7-17,17.3-17c5.1,0,7.3,1.4,8.7,2.2l0.1,0.4l-2.1,7.4l-0.5,0.1c-1.3-1.6-2.8-2.6-4.8-2.6c-3.7,0-7.2,3.4-7.2,9.2    c0,3,1.5,6,5.6,6c2.6,0,4.1-1.1,5.2-1.9L185,63.6z"/>
	</g>
	<g>
		<path class="st0" d="M194.5,46.1c0,1.2-1,2.2-2.2,2.2s-2.2-1-2.2-2.2s1-2.1,2.2-2.1C193.5,43.9,194.5,44.8,194.5,46.1z     M190.6,46.1c0,1,0.7,1.7,1.7,1.7c0.9,0,1.6-0.8,1.6-1.7c0-1-0.7-1.7-1.7-1.7C191.3,44.3,190.6,45.1,190.6,46.1z M191.9,47.2h-0.5    V45c0.2,0,0.5-0.1,0.8-0.1c0.4,0,0.6,0.1,0.7,0.2c0.1,0.1,0.2,0.2,0.2,0.5s-0.2,0.4-0.4,0.5l0,0c0.2,0.1,0.3,0.2,0.4,0.5    c0.1,0.3,0.1,0.4,0.2,0.5h-0.5c-0.1-0.1-0.1-0.3-0.2-0.5c0-0.2-0.2-0.3-0.4-0.3H192v0.9H191.9z M191.9,46h0.2    c0.3,0,0.5-0.1,0.5-0.3s-0.1-0.3-0.5-0.3c-0.1,0-0.2,0-0.3,0V46H191.9z"/>
	</g>
</g>
</svg>