<?xml version="1.0" encoding="UTF-8"?>
<!-- Generator: Adobe Illustrator 19.2.1, SVG Export Plug-In . SVG Version: 6.00 Build 0)  -->
<svg version="1.1" id="Layer_1" xmlns="http://www.w3.org/2000/svg" xmlns:xlink="http://www.w3.org/1999/xlink" x="0px" y="0px" viewBox="0 0 200 135" style="enable-background:new 0 0 200 135;" xml:space="preserve">
<style type="text/css">
	.st0{fill:#2C3739;}
</style>
<g id="marriott">
	<g>
		<path class="st0" d="M187.4,80.1c-2-1.1-2.3-3.9-2.2-11.2v-11h-3.8l0.9-2h3v-5.2l7-2.6v7.7h3.2l-0.9,2.2h-2.3v19    c0.1,1.5,0.6,2.5,1.4,3.1H187.4z"/>
		<path class="st0" d="M10.7,61.3c0.7,1.9,2.3,3.9,1.2,6.3c-0.5,2.3-2.8,4.2-5,4.6c-2.3,0.2-4.7-0.2-6.5-1.6C-1,64,1.7,57.8,7,54.1    L10.7,61.3z"/>
	</g>
	<g>
		<path class="st0" d="M19.9,81.7c-1.2,4.1-13.1,1.4-16.8-5.2C8,77,13.5,72.6,13.6,67.7L19.9,81.7z"/>
		<path class="st0" d="M24.8,81.2c0.5-0.2,1.6-0.7,1.9-1.9L14,51.5c-0.9-0.1-1.5-0.2-2.6,0.6L24.8,81.2z"/>
		<path class="st0" d="M30.6,75.1c5.4-8.2,0.9-21.7-10.9-23.7L30.6,75.1z"/>
		<path class="st0" d="M132.4,56.7c1.3-1.1,3.5-1.1,5-0.4c0.6,0.3,1.2,0.7,1.6,1.3l-2.9,4.4c-0.3-0.3-0.6-0.4-1.1-0.6    c-1.4-0.6-2.9-0.2-3.7,0.5v12.9c0,2.2,0.3,4.3,1.5,5.3h-6.4c-1.4-1.1-1.7-2.7-1.8-4.2V58.9c0.1-1.4-0.3-2-0.9-2.8h6.7    c0.5,0.4,0.5,1.1,0.9,1.6L132.4,56.7z"/>
		<path class="st0" d="M140.5,60.9c0-1.6,0.3-3.5-0.7-5h6.2c0.4,0.3,0.6,0.9,0.7,1.3c0.3,0.4,0.3,1.1,0.4,1.6V77    c0.2,1.1,0.6,2.1,1.5,3H142c-2.1-2.1-1.5-5.5-1.6-9.1L140.5,60.9z"/>
		<path class="st0" d="M150.3,61.1c0.6-1.8,2.8-2.8,4.3-3.8c2.3-0.9,4.9-3,7.5-1.3c2.1,1.4,4.1,3,5.4,5.2c0.3,0.9,0.5,1.8,0.7,2.7    c0,1.2,0.2,2.1,0.2,3.3c0.1,1.3,0.1,2.5,0,3.8c-0.1,2.2-1.1,4.2-2.9,5.7c-2.6,2.3-5.9,4.9-9.3,3.1c-3.1-1.5-6.8-4.4-6.6-8.4    c-0.1-2.9-0.2-5.3,0.1-8C150,62.7,149.9,61.9,150.3,61.1 M156.8,74c0.3,1.2,0.9,2.6,2.2,2.7c0.7,0,1.4-0.6,1.8-1.2    c1.5-2.9,1.3-6,1.3-9.2c-0.4-2.3,0.1-5.7-2.5-7.1c-0.9-0.3-1.6,0.3-2.1,0.9c-1,1.5-1.2,3.3-1.2,5.2C156,68.4,156.4,70.9,156.8,74"/>
		<path class="st0" d="M173,80.1c-2-1.1-2.3-3.9-2.2-11.2v-11H167l0.9-2h3v-5.2l7-2.6v7.7h3.2l-0.9,2.2h-2.3v19    c0.1,1.5,0.6,2.5,1.4,3.1H173z"/>
		<path class="st0" d="M108.7,58.8c0-1.4-0.3-2-0.9-2.8h6.7c0.5,0.4,0.5,1.1,0.9,1.6l1.2-0.9c1.3-1.1,3.5-1.1,5-0.4    c0.6,0.3,1.2,0.7,1.6,1.3l-2.9,4.4c-0.3-0.3-0.6-0.4-1.1-0.6c-1.4-0.6-2.9-0.2-3.7,0.5v12.9c0,2.2,0.3,4.3,1.5,5.3h-6.4    c-1.4-1.1-1.7-2.6-1.8-4.2L108.7,58.8z"/>
		<path class="st0" d="M58.3,65.6l-2.5,5c-1.7,3-3.9,6.5-7.6,7.5c-1.4,0.5-2.6,0-3.9,0l-4.3,7c0.3,0.3,0.7,0.6,1.2,0.9    c7.6,2.9,10.7-0.2,18-17.1l7,15h9.4l-4.5-10.1l2.6-5.2l7,14.9l9,0.1L74.1,49.1l-7.2,3.6l5.7,12.9l-2.5,5L59.7,48.2L52,52    L58.3,65.6z"/>
		<path class="st0" d="M87.1,71.7c0.2-2.5,1.6-4.8,3.8-6.1c2.3-1.4,5-2,7.4-3.2c0.4-0.3,1-0.7,1-1.3c0-0.6-0.3-1.2-0.9-1.4    c-3.6-0.7-6.6,1.5-9.2,3.7c0.3-1.6,0.6-3.4,1.4-5c0.4-0.4,0.6-1,1.2-1.3c2.6-1.3,5.8-1.6,8.6-1.4c2.3,0.1,4.5,1.8,5.3,3.9    c0.4,1,0.4,2.1,0.4,3.2v14c0,1.2,0.6,2.3,1.3,3.3h-6.7c-0.7-0.7-1.2-1.6-1.4-2.8c-1.8,1.6-5.8,4.1-8.1,2.5    C88.8,78.7,86.6,75.1,87.1,71.7 M98.9,66.8c0-1-0.7-1.1-1.3-1.1c-1.6,0.2-3,1.6-3.7,3c-0.6,1.2-0.9,2.2-0.9,3.3    c0,1.2-0.1,2,0.4,2.9c0.2,0.5,0.9,0.9,1.4,1c1.1,0.2,2-0.1,2.8-0.6c1.9-1.1,1.5-3.2,1.6-5L98.9,66.8z"/>
		<path class="st0" d="M197.7,79.7c-1.1,0-1.9-0.9-1.9-1.9c0-1.1,0.9-1.9,1.9-1.9s1.9,0.9,1.9,1.9C199.6,78.8,198.7,79.7,197.7,79.7     M197.7,80.1c1.3,0,2.3-1.1,2.3-2.3c0-1.3-1.1-2.3-2.3-2.3c-1.3,0-2.3,1.1-2.3,2.3C195.3,79,196.4,80.1,197.7,80.1 M197.5,78    c0.1,0,0.3,0,0.4,0.1c0.1,0.1,0.1,0.3,0.1,0.5s0.1,0.3,0.1,0.5h0.5c-0.1-0.2-0.1-0.5-0.2-0.7c0-0.3-0.1-0.4-0.4-0.5l0,0    c0.3-0.1,0.5-0.3,0.5-0.6c0-0.6-0.5-0.7-1.1-0.7h-0.9v2.8h0.4v-1.2h0.4V78z M197.1,77.5v-0.7h0.5c0.3,0,0.4,0.1,0.4,0.3    c0,0.2-0.1,0.4-0.5,0.4C197.5,77.5,197.1,77.5,197.1,77.5z"/>
	</g>
</g>
</svg>