<?xml version="1.0" encoding="utf-8"?>
<!-- Generator: Adobe Illustrator 16.0.0, SVG Export Plug-In . SVG Version: 6.00 Build 0)  -->
<!DOCTYPE svg PUBLIC "-//W3C//DTD SVG 1.1//EN" "http://www.w3.org/Graphics/SVG/1.1/DTD/svg11.dtd">
<svg version="1.1" id="Layer_1" xmlns="http://www.w3.org/2000/svg" xmlns:xlink="http://www.w3.org/1999/xlink" x="0px" y="0px"
	 width="124.293px" height="122.599px" viewBox="0 0 124.293 122.599" enable-background="new 0 0 124.293 122.599"
	 xml:space="preserve">
<g>
	<polygon fill="#FFFFFF" points="114.002,9.902 114.002,41.226 120.89,48.114 120.89,3.015 75.792,3.015 82.679,9.902 	"/>
	<polygon fill="#FFFFFF" points="12.146,111.497 12.146,80.174 5.259,73.286 5.259,118.385 50.359,118.385 43.47,111.497 	"/>
	<g>
		<g>
			<path fill="#FFFFFF" d="M30.068,21.057h-3.143c-0.418,0-0.76-0.138-1.025-0.416c-0.271-0.273-0.405-0.591-0.405-0.948
				c0-0.303,0.142-0.608,0.417-0.922c0.275-0.311,0.615-0.468,1.014-0.468h9.146c0.363,0,0.695,0.134,1,0.401
				c0.301,0.267,0.455,0.597,0.455,0.988c0,0.357-0.145,0.675-0.43,0.948c-0.285,0.278-0.627,0.416-1.025,0.416h-3.145v14.979
				c0,0.357-0.141,0.677-0.416,0.963c-0.275,0.285-0.615,0.428-1.014,0.428s-0.736-0.143-1.013-0.428
				c-0.277-0.286-0.417-0.605-0.417-0.963V21.057z"/>
			<path fill="#FFFFFF" d="M44.393,37.063c-0.261,0.241-0.59,0.362-0.988,0.362c-0.397,0-0.731-0.121-1.001-0.362
				c-0.27-0.243-0.4-0.558-0.4-0.938V19.628c0-0.347,0.128-0.654,0.389-0.924c0.26-0.27,0.588-0.401,0.986-0.401
				c0.4,0,0.732,0.125,1.002,0.375c0.267,0.252,0.401,0.567,0.401,0.95v5.171c0.398-0.279,0.841-0.496,1.323-0.652
				c0.486-0.154,0.998-0.232,1.535-0.232c1.523,0,2.646,0.411,3.365,1.234s1.078,1.884,1.078,3.183v7.794
				c0,0.381-0.141,0.695-0.416,0.938c-0.276,0.241-0.605,0.362-0.986,0.362c-0.398,0-0.732-0.121-1-0.362
				c-0.27-0.243-0.404-0.558-0.404-0.938v-7.896c0-0.625-0.154-1.105-0.467-1.444c-0.313-0.335-0.778-0.507-1.402-0.507
				c-0.451,0-0.916,0.095-1.39,0.286c-0.479,0.189-0.892,0.486-1.236,0.886v8.676C44.782,36.506,44.654,36.82,44.393,37.063z"/>
			<path fill="#FFFFFF" d="M62.79,32.098c-0.363,0-0.737-0.013-1.118-0.037c-0.381-0.028-0.779-0.076-1.193-0.145v1.195
				c0,0.588,0.197,1.057,0.596,1.402c0.398,0.348,1.014,0.52,1.845,0.52c0.485,0,0.919-0.059,1.299-0.18
				c0.382-0.121,0.79-0.279,1.222-0.469c0.035-0.036,0.099-0.066,0.195-0.092c0.094-0.024,0.22-0.039,0.377-0.039
				c0.448,0,0.775,0.131,0.976,0.391c0.198,0.261,0.298,0.518,0.298,0.78c0,0.397-0.17,0.723-0.506,0.974
				c-0.34,0.251-0.746,0.455-1.223,0.611c-0.477,0.154-0.979,0.264-1.509,0.323c-0.526,0.06-0.981,0.093-1.362,0.093
				c-0.795,0-1.508-0.113-2.132-0.339c-0.621-0.226-1.147-0.538-1.571-0.935c-0.424-0.4-0.75-0.872-0.973-1.418
				c-0.226-0.546-0.339-1.129-0.339-1.754v-4.6c0-0.64,0.113-1.232,0.339-1.778c0.223-0.544,0.553-1.017,0.984-1.418
				c0.436-0.396,0.972-0.714,1.613-0.945c0.64-0.234,1.377-0.352,2.208-0.352c1.577,0,2.754,0.394,3.535,1.183
				c0.778,0.787,1.169,1.83,1.169,3.129c0,1.229-0.373,2.188-1.119,2.873C65.657,31.756,64.453,32.098,62.79,32.098z M64.741,28.121
				c0-0.692-0.173-1.187-0.511-1.48c-0.336-0.294-0.826-0.443-1.469-0.443c-0.727,0-1.289,0.184-1.688,0.549
				c-0.398,0.363-0.596,0.855-0.596,1.48v1.533c0.449,0.052,0.896,0.091,1.336,0.117c0.442,0.023,0.76,0.038,0.947,0.038
				c0.746,0,1.262-0.16,1.549-0.481C64.593,29.115,64.741,28.678,64.741,28.121z"/>
		</g>
		<g>
			<path fill="#FFFFFF" d="M28.328,47.325c0.708,2.313,1.42,4.6,2.129,6.864c0.711,2.267,1.344,4.563,1.898,6.891
				c0.121-0.511,0.24-1.034,0.363-1.574c0.123-0.537,0.26-1.054,0.417-1.548l3.248-10.633c0.085-0.298,0.272-0.542,0.557-0.727
				c0.289-0.185,0.56-0.275,0.819-0.275c0.433,0,0.79,0.126,1.066,0.382c0.275,0.256,0.414,0.586,0.414,0.992
				c0,0.051-0.004,0.133-0.013,0.238c-0.008,0.104-0.022,0.185-0.038,0.238l-5.068,15.684c-0.155,0.477-0.361,0.859-0.621,1.15
				c-0.26,0.292-0.643,0.436-1.145,0.436s-0.879-0.15-1.13-0.447c-0.251-0.302-0.445-0.682-0.585-1.139l-5.067-15.684
				c-0.034-0.054-0.056-0.134-0.065-0.238c-0.008-0.105-0.013-0.188-0.013-0.238c0-0.406,0.147-0.736,0.442-0.992
				s0.64-0.382,1.038-0.382c0.243,0,0.503,0.091,0.78,0.275C28.034,46.783,28.224,47.027,28.328,47.325z"/>
			<path fill="#FFFFFF" d="M47.043,60.116c-0.364,0-0.737-0.011-1.118-0.039c-0.381-0.024-0.779-0.072-1.193-0.143v1.196
				c0,0.588,0.197,1.056,0.596,1.402s1.014,0.521,1.845,0.521c0.485,0,0.919-0.063,1.3-0.182c0.381-0.122,0.787-0.279,1.222-0.471
				c0.034-0.032,0.101-0.064,0.194-0.089c0.094-0.027,0.221-0.039,0.377-0.039c0.448,0,0.774,0.128,0.976,0.389
				c0.197,0.26,0.298,0.521,0.298,0.781c0,0.397-0.166,0.723-0.507,0.975c-0.337,0.248-0.745,0.454-1.222,0.61
				c-0.477,0.155-0.979,0.263-1.508,0.323c-0.527,0.062-0.982,0.092-1.363,0.092c-0.799,0-1.506-0.112-2.132-0.338
				c-0.624-0.225-1.146-0.537-1.571-0.936c-0.424-0.397-0.75-0.87-0.975-1.417c-0.224-0.546-0.337-1.13-0.337-1.752V56.4
				c0-0.641,0.113-1.235,0.337-1.779c0.225-0.545,0.556-1.017,0.988-1.416c0.432-0.398,0.971-0.714,1.611-0.947
				c0.639-0.235,1.377-0.352,2.208-0.352c1.577,0,2.754,0.395,3.534,1.183c0.778,0.787,1.168,1.831,1.168,3.13
				c0,1.23-0.371,2.187-1.117,2.872C49.911,59.774,48.707,60.116,47.043,60.116z M48.994,56.141c0-0.693-0.17-1.186-0.508-1.482
				c-0.338-0.293-0.828-0.44-1.467-0.44c-0.729,0-1.293,0.182-1.691,0.546c-0.398,0.363-0.596,0.857-0.596,1.48v1.534
				c0.45,0.054,0.896,0.091,1.336,0.116c0.442,0.026,0.76,0.039,0.951,0.039c0.742,0,1.258-0.158,1.546-0.482
				C48.85,57.132,48.994,56.695,48.994,56.141z"/>
			<path fill="#FFFFFF" d="M58.945,65.443c-0.208,0-0.434-0.03-0.677-0.092c-0.243-0.061-0.464-0.191-0.663-0.391
				c-0.197-0.202-0.367-0.496-0.506-0.878c-0.139-0.383-0.208-0.89-0.208-1.516V47.628c0-0.347,0.134-0.654,0.403-0.916
				c0.266-0.261,0.601-0.391,1-0.391c0.398,0,0.731,0.127,1,0.38c0.268,0.254,0.402,0.56,0.402,0.927v14.78
				c0,0.279,0.02,0.493,0.054,0.643c0.034,0.147,0.138,0.316,0.311,0.508c0.086,0.088,0.165,0.181,0.235,0.276
				c0.065,0.094,0.104,0.238,0.104,0.43c0,0.367-0.133,0.655-0.389,0.862C59.75,65.338,59.396,65.443,58.945,65.443z"/>
			<path fill="#FFFFFF" d="M75.001,54.363c-0.571,1.621-1.127,3.229-1.663,4.834c-0.536,1.602-1.082,3.223-1.638,4.86
				c-0.172,0.505-0.389,0.862-0.648,1.069c-0.261,0.211-0.605,0.316-1.039,0.316c-0.469,0-0.828-0.105-1.078-0.316
				c-0.252-0.207-0.463-0.555-0.637-1.043c-0.553-1.637-1.113-3.267-1.676-4.887s-1.123-3.248-1.676-4.885l-0.287-1.021
				c0-0.036-0.004-0.062-0.013-0.077c-0.01-0.019-0.013-0.044-0.013-0.078c0-0.349,0.147-0.642,0.44-0.878
				c0.294-0.232,0.616-0.352,0.962-0.352c0.26,0,0.52,0.078,0.78,0.235c0.259,0.157,0.433,0.384,0.521,0.681
				c0.242,0.782,0.483,1.559,0.729,2.326c0.24,0.767,0.482,1.541,0.728,2.325c0.241,0.784,0.452,1.553,0.634,2.313
				c0.182,0.756,0.377,1.526,0.586,2.311c0.191-0.784,0.373-1.555,0.547-2.311c0.172-0.761,0.379-1.529,0.623-2.313
				c0.242-0.784,0.48-1.559,0.713-2.325c0.234-0.768,0.472-1.544,0.715-2.326c0.088-0.262,0.256-0.474,0.506-0.64
				c0.253-0.167,0.517-0.25,0.793-0.25c0.363,0,0.68,0.118,0.949,0.353c0.268,0.236,0.402,0.537,0.402,0.9v0.157L75.001,54.363z"/>
			<path fill="#FFFFFF" d="M84.668,60.116c-0.364,0-0.737-0.011-1.118-0.039c-0.381-0.024-0.778-0.072-1.193-0.143v1.196
				c0,0.588,0.197,1.056,0.596,1.402s1.013,0.521,1.844,0.521c0.486,0,0.92-0.063,1.299-0.182c0.383-0.122,0.791-0.279,1.224-0.471
				c0.034-0.032,0.099-0.064,0.196-0.089c0.092-0.027,0.217-0.039,0.375-0.039c0.451,0,0.773,0.128,0.975,0.389
				c0.197,0.26,0.299,0.521,0.299,0.781c0,0.397-0.17,0.723-0.506,0.975c-0.338,0.248-0.746,0.454-1.223,0.61
				c-0.477,0.155-0.978,0.263-1.506,0.323c-0.53,0.062-0.985,0.092-1.364,0.092c-0.797,0-1.509-0.112-2.132-0.338
				c-0.623-0.225-1.146-0.537-1.572-0.936c-0.424-0.397-0.75-0.87-0.973-1.417c-0.227-0.546-0.339-1.13-0.339-1.752V56.4
				c0-0.641,0.112-1.235,0.339-1.779c0.223-0.545,0.553-1.017,0.988-1.416c0.43-0.398,0.967-0.714,1.608-0.947
				c0.642-0.235,1.377-0.352,2.208-0.352c1.578,0,2.754,0.395,3.532,1.183c0.781,0.787,1.17,1.831,1.17,3.13
				c0,1.23-0.37,2.187-1.116,2.872C87.535,59.774,86.331,60.116,84.668,60.116z M86.617,56.141c0-0.693-0.17-1.186-0.506-1.482
				c-0.338-0.293-0.828-0.44-1.468-0.44c-0.728,0-1.292,0.182-1.69,0.546c-0.398,0.363-0.596,0.857-0.596,1.48v1.534
				c0.447,0.054,0.896,0.091,1.336,0.116c0.442,0.026,0.759,0.039,0.95,0.039c0.743,0,1.258-0.158,1.546-0.482
				C86.474,57.132,86.617,56.695,86.617,56.141z"/>
			<path fill="#FFFFFF" d="M93.875,47.766c0-0.404,0.121-0.746,0.362-1.025c0.243-0.279,0.589-0.417,1.04-0.417
				s0.795,0.144,1.041,0.429c0.242,0.293,0.363,0.628,0.363,1.014v3.582h2.313c0.363,0,0.674,0.133,0.935,0.404
				c0.257,0.269,0.389,0.605,0.389,1.011c0,0.386-0.132,0.714-0.389,0.983c-0.261,0.268-0.571,0.404-0.935,0.404h-2.313v5.055
				c0,0.636,0.016,1.175,0.051,1.619c0.035,0.44,0.116,0.798,0.248,1.066c0.129,0.27,0.305,0.467,0.531,0.593
				c0.225,0.125,0.537,0.188,0.937,0.188c0.085,0,0.173-0.006,0.259-0.017c0.086-0.009,0.156-0.014,0.209-0.014
				c0.553,0,0.981,0.093,1.285,0.276c0.303,0.182,0.453,0.525,0.453,1.023c0,0.33-0.057,0.593-0.168,0.795
				c-0.112,0.201-0.263,0.356-0.454,0.463c-0.191,0.105-0.401,0.173-0.637,0.201c-0.233,0.028-0.479,0.043-0.74,0.043
				c-0.954,0-1.737-0.129-2.353-0.389s-1.104-0.643-1.468-1.141c-0.364-0.501-0.614-1.131-0.753-1.893
				c-0.139-0.76-0.207-1.634-0.207-2.614V47.766z"/>
		</g>
		<g>
			<path fill="#FFFFFF" d="M36.667,85.314c-0.207-0.896-0.393-1.8-0.559-2.709c-0.163-0.908-0.342-1.82-0.533-2.737
				c-0.398,2.028-0.822,4.038-1.273,6.028c-0.45,1.995-0.9,4.003-1.349,6.032c-0.106,0.353-0.288,0.694-0.549,1.03
				c-0.257,0.336-0.665,0.502-1.218,0.502c-0.451,0-0.837-0.158-1.156-0.474c-0.324-0.318-0.527-0.679-0.612-1.085
				c-0.676-2.717-1.339-5.417-1.989-8.105c-0.648-2.689-1.295-5.393-1.935-8.108c0-0.406,0.169-0.718,0.508-0.938
				c0.336-0.219,0.687-0.332,1.051-0.332c0.295,0,0.567,0.086,0.819,0.253c0.25,0.167,0.42,0.428,0.508,0.779
				c0.295,1.253,0.586,2.495,0.881,3.728c0.295,1.238,0.59,2.473,0.885,3.706c0.207,0.862,0.389,1.731,0.546,2.605
				c0.155,0.87,0.329,1.741,0.521,2.603c0.189-0.898,0.367-1.82,0.53-2.763c0.167-0.94,0.36-1.872,0.587-2.79l1.533-6.452
				c0.139-0.566,0.314-0.996,0.532-1.296c0.216-0.301,0.61-0.451,1.181-0.451c0.555,0,0.944,0.16,1.17,0.477
				c0.225,0.316,0.408,0.74,0.546,1.271l1.506,6.452c0.21,0.935,0.396,1.865,0.56,2.79c0.164,0.927,0.35,1.857,0.561,2.792
				c0.191-0.882,0.367-1.756,0.533-2.619c0.162-0.866,0.348-1.738,0.557-2.618l1.742-7.405c0.084-0.334,0.248-0.596,0.48-0.781
				s0.498-0.279,0.791-0.279c0.365,0,0.729,0.103,1.09,0.307c0.365,0.201,0.548,0.534,0.548,0.992c0,0.034,0,0.073,0,0.119
				c0,0.044-0.017,0.108-0.052,0.197l-3.871,15.869c-0.122,0.406-0.322,0.767-0.6,1.085c-0.275,0.315-0.667,0.474-1.169,0.474
				s-0.9-0.161-1.195-0.488c-0.293-0.324-0.484-0.691-0.571-1.096L36.667,85.314z"/>
			<path fill="#FFFFFF" d="M55.462,84.611c0-1.528-0.797-2.292-2.392-2.292c-0.347,0-0.632,0.034-0.858,0.104
				c-0.226,0.069-0.448,0.147-0.674,0.235l-0.494,0.207c-0.174,0.088-0.398,0.132-0.676,0.132c-0.381,0-0.652-0.122-0.818-0.366
				c-0.164-0.24-0.245-0.503-0.245-0.779c0-0.348,0.112-0.643,0.337-0.887c0.225-0.242,0.527-0.441,0.908-0.598
				c0.381-0.157,0.816-0.269,1.302-0.338c0.483-0.071,0.978-0.106,1.479-0.106c1.768,0,3.031,0.452,3.793,1.355
				c0.763,0.903,1.144,2.222,1.144,3.958v5.284c0,0.331,0.062,0.541,0.184,0.637c0.119,0.097,0.276,0.161,0.466,0.196
				c0.521,0.104,0.779,0.415,0.779,0.936c0,0.732-0.512,1.094-1.532,1.094c-0.901,0-1.595-0.389-2.081-1.17
				c-0.968,0.833-2.146,1.248-3.531,1.248c-1.422,0-2.491-0.365-3.209-1.092c-0.719-0.73-1.08-1.701-1.08-2.917v-0.076
				c0-2.621,1.621-3.933,4.859-3.933c0.797,0,1.578,0.104,2.34,0.311V84.611z M53.201,87.58c-0.449,0-0.818,0.047-1.104,0.141
				c-0.285,0.096-0.506,0.227-0.662,0.391c-0.156,0.165-0.261,0.362-0.314,0.586c-0.049,0.227-0.076,0.461-0.076,0.705v0.076
				c0,0.52,0.145,0.926,0.428,1.213c0.287,0.285,0.794,0.427,1.521,0.427c0.449,0,0.875-0.067,1.273-0.208
				c0.398-0.137,0.797-0.373,1.195-0.702v-2.343c-0.383-0.088-0.771-0.155-1.17-0.209C53.894,87.604,53.531,87.58,53.201,87.58z"/>
			<path fill="#FFFFFF" d="M66.714,93.461c-0.211,0-0.434-0.029-0.678-0.09c-0.242-0.061-0.461-0.192-0.662-0.394
				c-0.197-0.2-0.367-0.492-0.508-0.875c-0.139-0.382-0.207-0.891-0.207-1.518V75.648c0-0.349,0.135-0.654,0.404-0.915
				c0.267-0.262,0.601-0.394,0.999-0.394c0.399,0,0.732,0.129,1.002,0.38c0.267,0.252,0.401,0.562,0.401,0.929V90.43
				c0,0.277,0.016,0.492,0.053,0.639c0.032,0.148,0.139,0.317,0.312,0.511c0.087,0.087,0.163,0.181,0.235,0.272
				c0.067,0.098,0.104,0.244,0.104,0.435c0,0.366-0.133,0.651-0.393,0.864C67.519,93.357,67.162,93.461,66.714,93.461z"/>
			<path fill="#FFFFFF" d="M76.508,84.698l3.74-4c0.176-0.193,0.366-0.364,0.574-0.512c0.207-0.147,0.458-0.223,0.753-0.223
				c0.381,0,0.702,0.116,0.963,0.354c0.257,0.233,0.389,0.527,0.389,0.875c0,0.352-0.123,0.646-0.363,0.89l-3.511,3.661
				c0.693,0.979,1.384,1.947,2.067,2.905c0.684,0.96,1.364,1.926,2.039,2.903c0.088,0.104,0.148,0.231,0.186,0.379
				c0.032,0.149,0.049,0.284,0.049,0.406c-0.033,0.349-0.178,0.625-0.43,0.822c-0.25,0.2-0.559,0.301-0.922,0.301
				c-0.207,0-0.376-0.018-0.505-0.052c-0.128-0.034-0.247-0.096-0.352-0.184c-0.103-0.086-0.204-0.199-0.298-0.339
				c-0.098-0.139-0.213-0.313-0.352-0.525l-3.431-4.969c-0.104,0.09-0.204,0.188-0.298,0.302c-0.095,0.114-0.195,0.214-0.3,0.302
				v3.583c0,0.489-0.099,0.924-0.298,1.308c-0.199,0.383-0.568,0.574-1.104,0.574c-0.399,0-0.732-0.121-1.001-0.367
				c-0.268-0.241-0.402-0.555-0.402-0.938V76.33c0-0.262,0.018-0.513,0.053-0.748c0.031-0.235,0.104-0.445,0.207-0.627
				c0.104-0.186,0.244-0.328,0.428-0.43c0.184-0.107,0.421-0.157,0.716-0.157c0.396,0,0.732,0.124,0.999,0.376
				c0.27,0.254,0.403,0.563,0.403,0.929V84.698z"/>
		</g>
	</g>
</g>
</svg>
