<?xml version="1.0" encoding="UTF-8"?>
<!-- Generator: Adobe Illustrator 19.2.1, SVG Export Plug-In . SVG Version: 6.00 Build 0)  -->
<svg version="1.1" id="Layer_1" xmlns="http://www.w3.org/2000/svg" xmlns:xlink="http://www.w3.org/1999/xlink" x="0px" y="0px" viewBox="0 0 200 135" style="enable-background:new 0 0 200 135;" xml:space="preserve">
<style type="text/css">
	.st0{fill:#2C3739;}
</style>
<g id="eckerd">
	<g>
		<path class="st0" d="M108.3,99.3l-21.2-31l12.5-3.4l-2.1-8.3l-17.4,4c0,0-1.6-18.3-2.3-24.9H68c0.8,7.6,5.1,56.9,5.1,56.9l9.8,0    l-1.4-15.3l14,21.9H108.3z"/>
		<circle class="st0" cx="88.5" cy="47.9" r="7.2"/>
	</g>
	<path class="st0" d="M58.9,79.3h10.5c-0.8,3.6-2.2,6-4.5,8.6c-7.2,7.9-20.4,7.8-27.6,0c-6.9-7.3-6.9-18.6,0-25.9   c7.2-7.8,20.5-7.8,27.6,0c2.3,2.6,3.8,4.9,4.5,8.5H58.9c-0.3-0.7-0.7-1.2-1.1-1.8c-3.3-4-10.1-3.8-13.6,0c-3.3,3.6-3.3,9.2,0,12.8   c3.5,3.8,10.6,4.2,13.6,0C58.2,80.8,58.7,80.1,58.9,79.3"/>
	<path class="st0" d="M158.4,56.5c0.1,0,0.3,9.4,0,9.4c-6.2,0-8.5,2.4-8.5,6.5v20.3c0,0.1-9.9,0.2-9.9,0V72.4   C140.1,62.2,145.1,56.6,158.4,56.5"/>
	<path class="st0" d="M184.3,57.9v9.9c-2.1-1.7-4.3-1.9-7-1.9c-11.7,0-10.7,16.9,0,16.9c4.3,0,8.3-2.8,8.9-7v-40H197v40   c-0.4,11-9.6,17.8-19.7,17.8c-25.2,0-25.2-37.1,0-37.1C180,56.5,181.9,57,184.3,57.9"/>
	<path class="st0" d="M32.4,55.1c-5.1,0-19.8,0.1-19.8,0.1v10h13.2v9.5H12.6v8.6c0-0.2,14.7,0,19.8,0c0,0,0.2,9.4,0,9.4H3.1L3,45.5   h29.4V55.1z"/>
	<path class="st0" d="M125.5,81.3c-2.3,3.3-7.2,3.7-10.8,2l22.5-13c-0.8-3.6-2.2-5.8-4.5-8.5c-7.1-7.8-20.4-7.8-27.6,0   c-6.9,7.3-6.9,18.6,0,25.9c7.2,7.8,20.4,7.9,27.6,0c2.3-2.6,3.8-5.1,4.5-8.6h-10.5C126.4,79.9,126,80.7,125.5,81.3z M111.9,68.6   c2.9-3.2,8.3-3.9,11.9-1.5l-14.3,8.3C109.3,72.9,110.2,70.4,111.9,68.6z"/>
</g>
</svg>