<?xml version="1.0" encoding="UTF-8"?>
<!-- Generator: Adobe Illustrator 19.2.1, SVG Export Plug-In . SVG Version: 6.00 Build 0)  -->
<svg version="1.1" id="Layer_1" xmlns="http://www.w3.org/2000/svg" xmlns:xlink="http://www.w3.org/1999/xlink" x="0px" y="0px" viewBox="0 0 200 135" style="enable-background:new 0 0 200 135;" xml:space="preserve">
<style type="text/css">
	.st0{fill:#2C3739;}
</style>
<g id="fsu">
	<path class="st0" d="M100,1.2c-36.6,0-66.2,29.7-66.2,66.2c0,36.6,29.7,66.3,66.2,66.3c36.6,0,66.2-29.7,66.2-66.3   C166.2,30.9,136.6,1.2,100,1.2z M100,131.9c-35.6,0-64.4-28.8-64.4-64.4c0-35.6,28.8-64.4,64.4-64.4c35.6,0,64.4,28.8,64.4,64.4   C164.4,103.1,135.6,131.9,100,131.9z"/>
	<path class="st0" d="M110.6,52.6h11l-2.2,3.4h-11L110.6,52.6z M108.8,67.2c-1,0.5-2.4,0.9-3.9,1.3l0.4-7.7l0.9-3h1l0.3-0.5h0   l0.8,2.7L108.8,67.2z M108.9,52.7l-2.4,3.7h-13l-2.4-3.7H108.9z M96,60.7l-0.9-3h9.7l-0.9,3H96z M103.9,62l-0.4,6.7   c-0.5,0.1-1,0.2-1.6,0.2l0.2-6.9H103.9z M101.1,62l-0.1,7c-0.3,0-0.6,0-1,0c-0.3,0-0.6,0-1,0l-0.1-7H101.1z M98,69   c-0.3,0-0.9-0.1-1.6-0.2L96.1,62h1.7L98,69z M95.1,68.5c-1.5-0.3-2.8-0.8-3.9-1.3l0.4-7.2l0.8-2.8h0l0.3,0.5h1l0.9,3L95.1,68.5z    M80.6,56l-2.2-3.4h11l2.2,3.4H80.6z M83,61.2h1.6l1,36.4H85L83,61.2z M86.6,101.6l-1.9-1.5l0.2-1.2h3.4l0.2,1.2L86.6,101.6z    M85.6,61.2h2l-0.6,36.4h-0.9L85.6,61.2z M88.3,97.7h-0.6l1-36.4h1.6L88.3,97.7z M90.3,60H83l-0.8-2.7h9L90.3,60z M100,105.7   l-2.1-1.6l0.2-1.2h3.7l0.2,1.2L100,105.7z M97,79.9c0.4,0,0.9,0.1,1.3,0.1l0.6,21.4h-0.7L97,79.9z M99.2,80.1c0.3,0,0.5,0,0.8,0   c0.3,0,0.5,0,0.8,0l-0.3,21.4h-1L99.2,80.1z M101.8,101.4h-0.7l0.6-21.4c0.4,0,0.9-0.1,1.3-0.1L101.8,101.4z M109.7,61.2h1.6   l1,36.4h-0.6L109.7,61.2z M113.4,101.6l-1.9-1.5l0.2-1.2h3.4l0.2,1.2L113.4,101.6z M112.4,61.2h2l-0.6,36.4h-0.9L112.4,61.2z    M115,97.7h-0.6l1-36.4h1.6L115,97.7z M117,60h-7.3l-0.8-2.7h9L117,60z M91.1,68.6c2.7,1.1,6.2,1.8,8.9,1.8s6.2-0.7,8.9-1.8   l0.5,8.3c-2.7,1.1-6.5,1.8-9.3,1.8c-2.9,0-6.6-0.7-9.3-1.8L91.1,68.6z M105.1,41.9c0.2,0.5,0.4,1.3,0.4,2.2c0,2.6-1.1,3.8-2.4,5.8   c-0.4,0.6-0.7,1.1-1.1,1.6h-1.4c0.2-0.8,0.6-1.9,1.3-3C104.1,45.3,104.9,42.8,105.1,41.9z M101.9,46.8c-0.9,1.4-1.8,3.1-2.3,4.6   h-0.4c0-0.3-0.1-0.5-0.1-0.8c0-4.8,3.8-7.9,5.4-11.1C105.1,42,103.5,44.2,101.9,46.8z M95.4,44.5c0-2.1,2.3-6.5,2.3-8.8   c0-0.1,0-0.2-0.1-0.3c0.9,0.9,1.6,2.9,0.9,5.6c2.7-3.9,4-6.4,3.9-9.9c1.5,1.8,1.7,3.9,1.7,5.3c0,2.6-0.8,3.5-3.3,7.1   c-2.3,3.5-2.5,5.6-2.5,7.3c0,0.2,0,0.4,0,0.6h-0.4C96.4,48.9,95.4,46.8,95.4,44.5z M91.4,42.9c0.2,0.5,0.4,1.1,0.4,1.9   c0,2.3-1,3.4-2.3,5.1c-0.4,0.5-0.7,1-1,1.4h-1.4c0.2-0.7,0.6-1.7,1.3-2.6C90.5,46,91.3,43.7,91.4,42.9z M88.5,47.3   c-0.8,1.3-1.7,2.8-2.2,4.1h-0.4c0-0.2-0.1-0.5-0.1-0.7c0-4.3,3.6-7,5.1-9.9C91.4,43,90,45,88.5,47.3z M82.3,45.2   c0-1.9,2.1-5.8,2.1-7.8c0-0.1,0-0.2-0.1-0.3c0.9,0.8,1.5,2.6,0.9,5c2.6-3.5,3.8-5.7,3.6-8.8c1.4,1.6,1.6,3.5,1.6,4.7   c0,2.3-0.8,3.1-3.1,6.3c-2.2,3.1-2.3,5-2.3,6.5c0,0.2,0,0.4,0,0.5h-0.4C83.2,49.1,82.3,47.3,82.3,45.2z M118.2,42.9   c0.2,0.5,0.4,1.1,0.4,1.9c0,2.3-1,3.4-2.3,5.1c-0.4,0.5-0.7,1-1,1.4h-1.4c0.2-0.7,0.6-1.7,1.3-2.6C117.2,46,118,43.7,118.2,42.9z    M115.2,47.3c-0.8,1.3-1.7,2.8-2.2,4.1h-0.4c0-0.2-0.1-0.5-0.1-0.7c0-4.3,3.6-7,5.1-9.9C118.2,43,116.7,45,115.2,47.3z M109,45.2   c0-1.9,2.1-5.8,2.1-7.8c0-0.1,0-0.2-0.1-0.3c0.9,0.8,1.5,2.6,0.9,5c2.6-3.5,3.8-5.7,3.6-8.8c1.4,1.6,1.6,3.5,1.6,4.7   c0,2.3-0.8,3.1-3.1,6.3c-2.2,3.1-2.3,5-2.3,6.5c0,0.2,0,0.4,0,0.5h-0.4C110,49.1,109,47.3,109,45.2z M122.8,75.2   c-0.2-0.1-0.2-0.1-0.2-0.5c0.1-0.8,0.2-1.6,0.4-2.4c0-0.3,0.1-0.4,0.4-0.4l0.2,0c0.1,0,0.1-0.1,0-0.2c-0.2,0-0.3,0-0.6-0.1   c-0.1,0-0.3-0.1-0.4-0.1c-0.1,0.3-0.4,0.6-0.6,0.9l-0.7,0.9c-0.2,0.2-0.3,0.4-0.4,0.5c0-0.1-0.1-0.4-0.2-0.5l-0.4-1.3   c-0.1-0.3-0.2-0.6-0.1-0.9c-0.2,0-0.4-0.1-0.6-0.1c-0.2,0-0.3-0.1-0.5-0.1c0,0-0.1,0.1,0,0.2l0.2,0.1c0.2,0.1,0.3,0.2,0.2,0.4   c-0.1,0.3-0.2,0.8-0.2,1.1c-0.1,0.5-0.2,0.9-0.3,1.2c-0.1,0.3-0.1,0.4-0.4,0.4l-0.1,0c0,0-0.1,0.1,0,0.2c0.2,0,0.4,0.1,0.6,0.1   c0.2,0,0.4,0.1,0.6,0.1c0,0,0.1-0.1,0-0.2l-0.2-0.1c-0.2-0.1-0.2-0.2-0.2-0.5c0.1-0.4,0.2-0.9,0.2-1.2c0-0.2,0.1-0.6,0.2-0.9l0,0   c0,0.2,0.1,0.5,0.2,0.8l0.3,1.1c0.1,0.3,0.2,0.8,0.3,1.1c0,0,0.1,0,0.1,0c0.1-0.2,0.5-0.8,0.7-1.1l0.6-0.9c0.1-0.2,0.2-0.3,0.4-0.6   l0,0l-0.4,2.2c-0.1,0.4-0.1,0.4-0.3,0.4l-0.1,0c-0.1,0-0.1,0.1,0,0.2c0.2,0,0.5,0.1,0.7,0.1c0.2,0,0.4,0.1,0.6,0.1   c0.1,0,0.1-0.1,0-0.2L122.8,75.2z M127.3,74.1c-0.1,1.1-1,1.7-2.1,1.6c-1.2-0.1-1.8-1.1-1.7-2c0.1-1.1,1-1.8,2.1-1.7   C126.9,72.2,127.5,73.2,127.3,74.1z M124.3,73.7c-0.1,0.7,0.1,1.8,1,1.9c0.6,0.1,1.2-0.3,1.3-1.4c0.1-0.8-0.2-1.8-1-1.9   C125.1,72.2,124.4,72.5,124.3,73.7z M128.1,73.1c0-0.5,0-0.6-0.2-0.6l-0.1,0c0,0,0-0.1,0-0.2c0.3,0,0.8,0,1.2,0   c0.4,0,0.8,0.1,1,0.2c0.3,0.2,0.5,0.4,0.4,0.8c0,0.5-0.4,0.7-0.7,0.8c0,0,0,0.1,0,0.1c0.4,0.7,0.7,1.2,0.9,1.4   c0.1,0.1,0.3,0.2,0.4,0.2c0,0,0,0.1,0,0.1c-0.1,0-0.2,0-0.4,0c-0.5,0-0.8-0.2-1.1-0.7c-0.1-0.2-0.3-0.5-0.4-0.7   c-0.1-0.2-0.1-0.2-0.3-0.2c-0.2,0-0.2,0-0.2,0.1l0,0.7c0,0.6,0,0.6,0.3,0.6l0.1,0c0,0,0,0.1,0,0.2c-0.2,0-0.5,0-0.7,0   c-0.2,0-0.5,0-0.7,0c0,0-0.1-0.1,0-0.2l0.1,0c0.3,0,0.3,0,0.3-0.6L128.1,73.1z M128.7,73.9c0,0.2,0,0.2,0.3,0.2   c0.5,0,0.8-0.2,0.8-0.7c0-0.4-0.3-0.8-0.7-0.8c-0.3,0-0.3,0-0.3,0.3L128.7,73.9z M131.7,75.1c0.1,0.6,0,0.6-0.2,0.6l-0.2,0   c0,0,0,0.1,0,0.2c0.2,0,0.6-0.1,0.8-0.1l0.6-0.1c0.6-0.1,1.1-0.1,1.3-0.2c0.1-0.2,0.1-0.6,0.1-0.8c0,0-0.1-0.1-0.2,0   c-0.1,0.5-0.2,0.6-0.9,0.7c-0.5,0.1-0.5,0-0.6,0c-0.1-0.1-0.1-0.3-0.2-0.5l-0.1-0.7c0-0.1,0-0.1,0.1-0.2l0.3,0   c0.5-0.1,0.6-0.1,0.6,0.2l0.1,0.2c0,0,0.1,0,0.2,0c0-0.2-0.1-0.4-0.1-0.6c0-0.2,0-0.4-0.1-0.5c0,0-0.1,0-0.2,0l0,0.2   c0,0.2-0.1,0.3-0.6,0.3l-0.3,0c-0.1,0-0.1,0-0.1-0.1l-0.1-0.9c0-0.3,0-0.3,0.2-0.3l0.4,0c0.1,0,0.3,0,0.4,0c0.2,0,0.3,0.1,0.4,0.4   c0,0,0.2,0,0.2,0c-0.1-0.2-0.1-0.6-0.2-0.7c-0.1,0-0.4,0.1-0.7,0.1l-1,0.1c-0.2,0-0.5,0.1-0.7,0.1c0,0,0,0.1,0,0.2h0.1   c0.3,0,0.3,0,0.4,0.6L131.7,75.1z M135.7,75.2c0.8-0.2,1.1-0.7,1-1.3c-0.1-0.5-0.6-0.8-1-0.9l-0.4-0.1c-0.4-0.1-0.6-0.3-0.7-0.5   c-0.1-0.3,0-0.6,0.5-0.7c0.4-0.1,0.7,0.2,0.9,0.5c0.1,0,0.1,0,0.2-0.1c-0.1-0.2-0.2-0.6-0.3-0.7c-0.3,0-0.5,0-0.7,0.1   c-0.8,0.2-1,0.7-0.9,1.2c0.1,0.5,0.5,0.7,1,0.8l0.3,0.1c0.4,0.1,0.6,0.3,0.7,0.6c0.1,0.3-0.1,0.6-0.5,0.7c-0.5,0.1-0.9-0.4-1.1-0.6   c0,0-0.1,0-0.2,0.1c0.1,0.3,0.2,0.7,0.4,0.8C134.9,75.2,135.2,75.3,135.7,75.2z M66.7,73.6c0.3-0.5,0.5-0.9,0.7-1.1   c0.1-0.1,0.2-0.2,0.4-0.2l0.1,0c0,0,0-0.1,0-0.2c-0.2,0-0.3,0-0.5,0c-0.2,0-0.4,0-0.6-0.1c0,0-0.1,0.1,0,0.2l0.2,0.1   c0.2,0.1,0.2,0.1,0.1,0.3c-0.4,0.7-0.8,1.4-1.1,2.1c0-0.1-0.2-0.5-0.2-0.7l-0.3-1c-0.2-0.6-0.2-0.7-0.2-0.7c0,0,0.1-0.1,0.2-0.1   l0.1,0c0.1,0,0.1-0.1,0-0.2c-0.3,0-0.5,0-0.7-0.1c-0.2,0-0.4-0.1-0.6-0.1c-0.1,0-0.1,0.1,0,0.1l0.1,0c0.2,0.1,0.3,0.1,0.4,0.5   l0.7,2.4c0.1,0.2,0.1,0.5,0.2,0.7c0,0,0.1,0,0.1,0c0,0,0.1,0,0.1,0c0.1-0.3,0.4-0.9,0.7-1.3L66.7,73.6z M69.3,73.1   c0-0.6,0.1-0.6,0.3-0.6l0.1,0c0,0,0-0.1,0-0.2c-0.2,0-0.5,0-0.7,0c-0.2,0-0.5,0-0.7-0.1c0,0-0.1,0.1,0,0.2l0.1,0   c0.3,0,0.3,0.1,0.3,0.6l-0.1,2c0,0.6-0.1,0.6-0.3,0.6l-0.1,0c0,0,0,0.1,0,0.2c0.2,0,0.5,0,0.7,0c0.2,0,0.5,0,0.7,0.1   c0,0,0.1-0.1,0-0.2l-0.1,0c-0.3,0-0.3-0.1-0.3-0.6L69.3,73.1z M70.8,73.1c0-0.5,0-0.6-0.3-0.6l-0.1,0c0,0,0-0.1,0-0.2   c0.3,0,0.8-0.1,1.2-0.1c0.4,0,0.8,0,1,0.1c0.3,0.1,0.5,0.4,0.5,0.8c0,0.5-0.3,0.8-0.6,0.9c0,0,0,0.1,0,0.1c0.5,0.7,0.8,1.2,1,1.4   c0.2,0.1,0.3,0.1,0.4,0.1c0,0,0,0.1,0,0.1c-0.1,0-0.2,0-0.4,0c-0.5,0-0.8-0.2-1.2-0.7c-0.2-0.2-0.3-0.5-0.5-0.7   c-0.1-0.2-0.2-0.2-0.3-0.2c-0.2,0-0.2,0-0.2,0.1l0,0.7c0,0.6,0.1,0.6,0.3,0.6l0.1,0c0,0,0,0.1,0,0.2c-0.2,0-0.5,0-0.7,0   c-0.2,0-0.5,0-0.7,0.1c0,0-0.1-0.1,0-0.2l0.1,0c0.3,0,0.3-0.1,0.3-0.6L70.8,73.1z M71.5,73.8c0,0.2,0,0.2,0.3,0.2   c0.5,0,0.8-0.3,0.7-0.8c0-0.4-0.3-0.8-0.8-0.8c-0.3,0-0.3,0-0.3,0.3L71.5,73.8z M74.8,74.8c0.1,0.6,0,0.6-0.2,0.6l-0.2,0   c0,0,0,0.1,0,0.2c0.2,0,0.6-0.1,0.8-0.1l0.6-0.1c0.6-0.1,1.1-0.1,1.3-0.2c0.1-0.2,0.1-0.6,0.1-0.8c0,0-0.1-0.1-0.2,0   c-0.1,0.5-0.2,0.6-0.9,0.7c-0.5,0.1-0.5,0-0.6,0c-0.1-0.1-0.1-0.3-0.2-0.5l-0.1-0.7c0-0.1,0-0.1,0.1-0.2l0.3,0   c0.5-0.1,0.6-0.1,0.6,0.2l0.1,0.2c0,0,0.1,0,0.2,0c0-0.2-0.1-0.4-0.1-0.6c0-0.2,0-0.4-0.1-0.5c0,0-0.1,0-0.2,0l0,0.2   c0,0.2-0.1,0.3-0.6,0.3l-0.3,0c-0.1,0-0.1,0-0.1-0.1l-0.1-0.9c0-0.3,0-0.3,0.2-0.3l0.4,0c0.1,0,0.3,0,0.4,0c0.2,0,0.3,0.1,0.4,0.4   c0,0,0.2,0,0.2,0c-0.1-0.2-0.1-0.6-0.2-0.7c-0.1,0-0.4,0.1-0.7,0.1l-1,0.1c-0.2,0-0.5,0.1-0.7,0.1c0,0,0,0.1,0,0.2h0.1   c0.3,0,0.3,0,0.4,0.6L74.8,74.8z M78.8,75.1c0.8-0.1,1.2-0.6,1.1-1.2c-0.1-0.5-0.5-0.8-0.9-0.9l-0.4-0.1c-0.4-0.1-0.6-0.4-0.6-0.6   c0-0.3,0.1-0.6,0.5-0.6c0.5-0.1,0.7,0.3,0.8,0.5c0.1,0,0.1,0,0.2,0c0-0.3-0.1-0.6-0.2-0.7c-0.3,0-0.5,0-0.7,0   c-0.8,0.1-1.1,0.6-1,1.1c0.1,0.5,0.5,0.8,0.9,0.9l0.2,0.1c0.4,0.2,0.6,0.4,0.7,0.7c0,0.3-0.1,0.6-0.6,0.7c-0.5,0.1-0.9-0.5-1-0.7   c0,0-0.1,0-0.2,0c0,0.3,0.2,0.7,0.3,0.8C78,75,78.3,75.2,78.8,75.1z M92.8,73.9c-0.1,0-0.1,0-0.2,0.1l-0.4,0.6   c-0.2,0.3-0.2,0.3,0,0.4l0.1,0.1c0,0,0,0.1,0,0.1c-0.2-0.1-0.3-0.1-0.6-0.2c-0.2,0-0.3-0.1-0.5-0.1c0,0,0-0.1,0-0.2l0.2,0   c0.2,0,0.2,0,0.3-0.2c0.1-0.1,0.2-0.3,0.4-0.6l1.2-1.7c0.1-0.2,0.2-0.3,0.2-0.4c0.2,0,0.4-0.2,0.4-0.2c0,0,0.1,0,0.1,0.1   c0,0.3,0,0.5,0.1,0.8l0.2,2.4c0,0.4,0,0.4,0.3,0.5l0.1,0c0,0,0,0.1,0,0.2c-0.2-0.1-0.4-0.1-0.7-0.2c-0.2-0.1-0.5-0.1-0.6-0.1   c0,0,0-0.1,0-0.2l0.1,0c0.2,0,0.2,0,0.2-0.2l-0.1-0.8c0-0.2,0-0.2-0.2-0.2L92.8,73.9z M93.5,73.9c0.1,0,0.2,0,0.2-0.1l-0.1-0.7   c0-0.3,0-0.4,0-0.5l0,0c0,0-0.1,0.1-0.3,0.4l-0.4,0.6c-0.1,0.1-0.1,0.1,0,0.2L93.5,73.9z M96.1,73.3c0.1-0.5,0.1-0.6-0.2-0.6   l-0.1,0c0,0,0-0.1,0-0.1c0.3,0,0.8,0.1,1.2,0.1c0.4,0.1,0.8,0.2,1,0.3c0.2,0.2,0.4,0.5,0.3,0.9c-0.1,0.5-0.5,0.7-0.8,0.7   c0,0,0,0.1,0,0.1c0.3,0.8,0.5,1.3,0.7,1.5c0.1,0.2,0.3,0.2,0.3,0.2c0,0,0,0.1,0,0.1c-0.1,0-0.2,0-0.4,0c-0.5-0.1-0.8-0.3-1-0.9   C97.2,75.4,97,75,97,74.8c-0.1-0.2-0.1-0.2-0.3-0.2c-0.2,0-0.2,0-0.2,0.1l-0.1,0.7c-0.1,0.6,0,0.6,0.2,0.7l0.1,0c0,0,0,0.1,0,0.2   c-0.2,0-0.5-0.1-0.7-0.1c-0.2,0-0.5-0.1-0.7-0.1c0,0,0-0.1,0-0.2l0.1,0c0.3,0,0.3,0,0.4-0.6L96.1,73.3z M96.5,74.2   c0,0.2,0,0.2,0.2,0.2c0.5,0.1,0.8-0.1,0.9-0.6c0.1-0.4-0.1-0.8-0.6-0.9c-0.3,0-0.3,0-0.3,0.2L96.5,74.2z M100.2,75.7   c0,0.6,0,0.6-0.3,0.6l-0.2,0c0,0,0,0.1,0,0.2c0.3,0,0.6,0,0.8,0c0.2,0,0.5,0,0.8,0c0,0,0-0.1,0-0.2l-0.2,0c-0.3,0-0.3,0-0.3-0.6   l-0.1-2.3c0-0.2,0-0.2,0.1-0.2l0.3,0c0.6,0,0.7,0.1,0.8,0.5c0,0,0.1,0,0.2,0c0-0.2,0-0.6,0-0.9c0,0,0,0-0.1,0c0,0,0,0-0.1,0   c-0.1,0.1-0.1,0.1-0.4,0.2l-2.2,0.1c-0.4,0-0.4,0-0.5-0.1c0,0,0,0-0.1,0c0,0,0,0-0.1,0c0,0.2-0.1,0.5-0.2,0.8c0,0.1,0.1,0.1,0.2,0   c0.2-0.4,0.3-0.5,0.8-0.5l0.3,0c0.1,0,0.1,0,0.2,0.2L100.2,75.7z M103.5,75.4c0.1,0.6,0.1,0.6-0.2,0.7l-0.2,0.1c0,0,0,0.1,0,0.2   c0.2-0.1,0.6-0.1,0.8-0.2l0.6-0.1c0.6-0.1,1.1-0.2,1.3-0.2c0-0.2,0.1-0.6,0.1-0.8c0,0-0.1,0-0.2,0c-0.1,0.5-0.2,0.6-0.9,0.8   c-0.4,0.1-0.5,0.1-0.6,0c-0.1-0.1-0.1-0.3-0.2-0.5l-0.1-0.7c0-0.1,0-0.1,0.1-0.2l0.3,0c0.5-0.1,0.6-0.1,0.6,0.1l0.1,0.2   c0,0,0.1,0,0.2,0c0-0.2-0.1-0.3-0.1-0.6c0-0.2-0.1-0.4-0.1-0.5c0,0-0.1,0-0.2,0l0,0.2c0,0.2-0.1,0.3-0.5,0.3l-0.3,0.1   c-0.1,0-0.1,0-0.2-0.1l-0.2-0.9c-0.1-0.3-0.1-0.3,0.2-0.4l0.4-0.1c0.1,0,0.3,0,0.4,0c0.2,0,0.3,0.1,0.4,0.4c0,0,0.2,0,0.2-0.1   c-0.1-0.2-0.2-0.6-0.2-0.7c-0.1,0-0.4,0.1-0.7,0.2l-1,0.2c-0.2,0-0.5,0.1-0.7,0.1c0,0,0,0.1,0,0.2l0.1,0c0.3,0,0.3,0,0.4,0.6   L103.5,75.4z M107.4,75.3c0.8-0.2,1.1-0.7,0.9-1.3c-0.1-0.5-0.6-0.7-1-0.8l-0.4-0.1c-0.4-0.1-0.6-0.3-0.7-0.5   c-0.1-0.3,0-0.6,0.4-0.7c0.4-0.1,0.7,0.2,0.9,0.4c0.1,0,0.2,0,0.2-0.1c-0.1-0.2-0.2-0.6-0.3-0.7c-0.3,0-0.5,0-0.7,0.1   c-0.8,0.2-1,0.7-0.9,1.3c0.1,0.5,0.6,0.7,1,0.8l0.3,0.1c0.5,0.1,0.7,0.3,0.7,0.6c0.1,0.3-0.1,0.6-0.5,0.7c-0.5,0.1-0.9-0.3-1.1-0.6   c-0.1,0-0.1,0-0.2,0.1c0.1,0.3,0.2,0.7,0.4,0.8C106.6,75.4,107,75.4,107.4,75.3z M82.6,76.7c-3.5,0.6-8.5,1.5-12.6,1.5   c-3.7,0-6.2-0.8-7.2-2.2c-0.6-2.4-1.2-5.4-1.4-7.4c4.2,1.3,7.4,1.4,9.5,1.4c3.3,0,7.2-0.7,11.3-1.6L82.6,76.7z M69.4,57.2   c0.9,1.3,2,3,2.8,4.4c1.2-1.2,2.1-2,3.5-3.9c0.2,3.1-0.3,6.8-4.3,11c-3.3,0.1-6.7-0.3-10-1.5c0-0.9,0.6-1.2,1.1-1.4   c1.6-0.5,4.4-1.1,5.5-2.8C68.9,61.5,69.2,59.1,69.4,57.2z M117.9,68.4c4,0.8,8,1.6,11.3,1.6c2.1,0,5.3-0.1,9.5-1.4   c-0.2,1.9-0.7,4.9-1.4,7.4c-1,1.3-3.5,2.2-7.2,2.2c-4.1,0-9.1-0.9-12.6-1.5L117.9,68.4z M89.9,51.4c1.4-1.8,2.8-3.3,2.8-6.1   c0-2.3-0.7-4.2-1.6-5.2c0.2-0.6,0.4-1.1,0.4-1.7c0-4-2.3-6.8-4.4-8.6c0.5,1.4,0.9,2.2,0.9,3.6c0,1.8-0.3,3.5-1.9,5.7   c-0.3-1.6-1.7-3.7-3.3-5.1c0.2,1.5,0.4,2.3,0.4,3.2c0,2-2.2,6.6-2.2,8.1c0,2,0.9,4.1,2.1,6.2h-7.1l3.8,5.9h0.9l0.8,2.7l0.4,7   c-3.3,0.7-6.1,1.2-8.8,1.5c4.6-5.1,4.5-11.6,2.6-14.5c-0.8,2.7-1.9,3.9-3.4,5.4c-1.3-2.2-2.6-4-4.1-5.9c-0.1,3.3-0.5,7.8-1.6,8.9   c-1.8,1.8-4.4,1.3-6,2.9c-1.5,1.5-0.3,6.5,0.8,11.2c1.3,1.8,4.1,2.9,8.4,2.9c4.2,0,9.1-0.8,12.7-1.5l1.1,20.3l-0.4,2.2l3.3,2.6   l3.3-2.6l-0.4-2.2l1.1-20c1.4,0.5,3.2,1,5.1,1.4l1.2,22.5l-0.5,2.4l3.6,2.8l3.6-2.8l-0.5-2.4l1.2-22.5c1.9-0.3,3.7-0.8,5.1-1.4   l1.1,20l-0.4,2.2l3.3,2.6l3.3-2.6l-0.4-2.2l1.1-20.3c3.6,0.6,8.5,1.5,12.7,1.5c4.3,0,7.2-1.1,8.4-2.9c1.1-4.6,2.3-9.7,0.8-11.2   c-1.6-1.6-4.2-1.1-6-2.9c-1.1-1.1-1.5-5.6-1.6-8.9c-1.5,1.9-2.9,3.7-4.1,5.9c-1.5-1.5-2.5-2.7-3.4-5.4c-1.9,2.9-2,9.4,2.6,14.5   c-2.7-0.2-5.5-0.8-8.8-1.5l0.4-7l0.8-2.8h0.9l3.8-5.9h-7.2c1.4-1.8,2.8-3.3,2.8-6.1c0-2.3-0.7-4.2-1.6-5.2c0.2-0.6,0.4-1.1,0.4-1.7   c0-4-2.3-6.8-4.4-8.6c0.5,1.4,0.9,2.2,0.9,3.6c0,1.8-0.3,3.5-1.9,5.7c-0.3-1.6-1.7-3.7-3.3-5.1c0.2,1.5,0.4,2.3,0.4,3.2   c0,2-2.2,6.6-2.2,8.1c0,2,0.9,4.1,2.1,6.2h-6.5c1.5-2,3-3.7,3-6.8c0-2.6-0.7-4.7-1.7-5.9c0.2-0.6,0.4-1.3,0.4-1.9   c0-4.5-2.5-7.6-4.7-9.7c0.6,1.6,1,2.5,1,4c0,2-0.4,3.9-2,6.4c-0.3-1.8-1.8-4.1-3.5-5.7c0.3,1.7,0.4,2.6,0.4,3.6   c0,2.2-2.3,7.4-2.3,9.1c0,2.2,0.9,4.6,2.3,6.9H89.9z M132,63c1.1,1.8,3.9,2.3,5.5,2.8c0.5,0.2,1.1,0.5,1.1,1.4   c-3.2,1.1-6.6,1.6-10,1.5c-4-4.1-4.5-7.8-4.3-11c1.3,1.9,2.2,2.7,3.5,3.9c0.8-1.4,1.8-3.1,2.8-4.4C130.8,59.1,131.1,61.5,132,63z"/>
	<g>
		<path class="st0" d="M44.4,65.8l2.9,0.1c0.5,0,0.6,0,0.6-0.9c0-0.5-0.1-0.8-0.4-1.1c-0.2-0.3-0.7-0.6-1.6-0.6    c-1.3-0.1-2.2,0.7-2.3,1.8C43.7,65.8,43.7,65.8,44.4,65.8z"/>
		<path class="st0" d="M52.9,75.1c-0.3-1.9-2.3-2.3-4.6-2c-2.5,0.4-4.3,1.8-4,3.6c0.3,1.8,2.1,2.5,4.5,2.1    C50.6,78.6,53.3,77.5,52.9,75.1z"/>
		<path class="st0" d="M94.8,119.9c-0.6,0.5-0.9,1.2-1,1.9c-0.1,1.1,0.5,2,1.5,2.1c0.7,0.1,1.3-0.4,1.4-1.4    C96.8,121.4,96,120.7,94.8,119.9z"/>
		<path class="st0" d="M95.9,115.2c-0.7-0.1-1.3,0.5-1.4,1.3c-0.1,0.7,0.4,1.4,1.6,2.1c0.5-0.3,0.8-0.9,0.9-1.6    C97.2,115.9,96.6,115.2,95.9,115.2z"/>
		<path class="st0" d="M57.7,37.5c0.2,0.3,0.3,0.3,0.5,0l0.8-1c0.2-0.3,0.2-0.4-0.2-0.5l-1.2-0.4c-0.6-0.2-1.2-0.4-1.6-0.5    c0.2,0.3,0.5,0.9,0.9,1.5L57.7,37.5z"/>
		<path class="st0" d="M100,5.5c-34.2,0-62,27.7-62,62c0,34.2,27.7,62,62,62c34.2,0,62-27.7,62-62C162,33.3,134.2,5.5,100,5.5z     M155.2,55.7l0-0.4c0.1-0.2,0.4-0.2,0.5,0c0.2,1.1,0.4,2.2,0.6,3.6c0.2,1.2,0.1,2.3-0.1,2.9c-0.4,0.9-1,1.5-2,1.6    c-1.3,0.2-2-0.6-2.4-1.2c-0.1-0.1-0.2-0.1-0.3,0c-1.8,1.2-2.8,2-3.3,2.8c-0.3,0.4-0.3,0.8-0.3,1c-0.1,0.1-0.3,0.2-0.4,0.1    c-0.1-0.2-0.2-0.7-0.3-1.1c-0.2-1.3,0.2-2.3,1.1-3c0.7-0.6,1.4-1,2.1-1.5c0.4-0.2,0.5-0.5,0.4-0.8c-0.1-0.5-0.1-0.5-0.4-0.5    l-1.8,0.3c-1.3,0.2-1.4,0.3-1.5,1l0,0.4c-0.1,0.1-0.4,0.2-0.5,0.1c-0.1-0.8-0.2-1.4-0.3-2.1c-0.1-0.7-0.2-1.4-0.3-2.1    c0.1-0.1,0.4-0.2,0.5-0.1l0.1,0.4c0.2,0.6,0.3,0.7,1.7,0.5l5.2-0.7C155,56.4,155.2,56.4,155.2,55.7z M151.9,45.1l-0.1-0.4    c0-0.2,0.4-0.3,0.5-0.1c0.2,0.7,0.4,1.3,0.7,2l1.1,2.9c0.3,0.9,0.6,1.7,0.7,1.8c-0.2,0.1-1.2,0.6-2.1,1c-0.2,0-0.3-0.3-0.2-0.5    c0.4-0.3,0.8-0.7,0.9-0.9c0.2-0.4,0.2-0.8-0.1-1.5l-0.4-1.1c-0.2-0.5-0.2-0.4-0.7-0.3l-2.4,0.9c-0.4,0.1-0.4,0.2-0.3,0.5l0.3,1    c0.3,0.7,0.4,0.9,1.1,0.7l0.4-0.1c0.1,0.1,0.3,0.4,0.2,0.5c-0.5,0.1-1,0.3-1.5,0.5c-0.5,0.2-1,0.4-1.5,0.6c-0.1,0-0.3-0.4-0.2-0.5    l0.3-0.2c0.6-0.4,0.7-0.6,0.4-1.3l-0.3-1c-0.1-0.4-0.2-0.4-0.6-0.2l-1.6,0.6c-0.6,0.2-1.1,0.4-1.2,0.7c-0.2,0.3-0.2,0.6,0.2,1.6    c0.4,1.2,0.6,1.7,2.5,1.9c0.2,0.1,0.3,0.4,0.1,0.5c-0.7,0.2-2,0.3-2.4,0.2c-0.2-0.7-0.7-2.1-1.1-3.2l-0.6-1.8    c-0.2-0.7-0.5-1.3-0.9-2.4c0-0.1,0.4-0.3,0.5-0.2l0.3,0.6c0.3,0.6,0.4,0.6,1.7,0.2l5.2-1.9C152,45.9,152,45.8,151.9,45.1z     M146,34.6l-0.2-0.6c0.1-0.2,0.3-0.3,0.5-0.2c0.4,0.7,0.6,1.1,1,1.7c0.3,0.6,0.7,1.1,1.2,1.9c0,0.1-0.3,0.3-0.4,0.3l-0.3-0.3    c-0.2-0.2-0.3-0.2-0.4-0.2c-0.1,0.1-0.5,0.6-1.1,1.3l-2.2,2.8c-0.4,0.5-0.6,0.8-0.7,1c0.3,0,0.7-0.1,1.2-0.2l1.5-0.2    c1-0.2,2.7-0.5,3.2-0.6c0.3-0.1,0.5-0.1,0.5-0.1c0.1-0.1,0.1-0.1,0-0.5l-0.1-0.4c0-0.2,0.3-0.3,0.5-0.2c0.3,0.6,0.6,1.1,0.9,1.6    c0.3,0.4,0.5,0.8,0.7,1.1c0,0.1-0.3,0.3-0.4,0.3l-0.3-0.3c-0.3-0.3-0.5-0.4-0.9-0.4c-0.6,0-1.5,0-2.7,0.2l-2.7,0.4    c-1.9,0.3-3.1,0.5-4,0.7c-0.1-0.1-0.3-0.2-0.4-0.4c-0.1-0.2-0.1-0.3-0.1-0.4c0.3-0.3,0.8-1,1.1-1.4l3.9-5.1    C146.1,35.1,146.1,35.1,146,34.6z M141.9,29.6l-0.2-0.4c0-0.1,0.2-0.4,0.4-0.3c0.5,0.6,1,1.2,1.4,1.7c0.4,0.5,0.9,1.1,1.5,1.7    c0,0.1-0.3,0.4-0.4,0.3l-0.3-0.3c-0.5-0.4-0.7-0.4-1.7,0.5l-4.1,3.5c-1.1,0.9-1.1,1-0.7,1.6l0.2,0.4c0,0.1-0.3,0.4-0.4,0.3    c-0.5-0.6-0.9-1.2-1.4-1.7c-0.5-0.5-0.9-1.1-1.5-1.7c0-0.1,0.2-0.4,0.4-0.3l0.3,0.3c0.5,0.4,0.7,0.4,1.7-0.5l4.1-3.5    C142.2,30.4,142.2,30.2,141.9,29.6z M132,20.7l-0.3-0.3c0-0.2,0.2-0.4,0.4-0.4c0.5,0.5,1.1,0.9,1.5,1.3c0.4,0.3,0.7,0.6,1,0.8    c-0.3,0.6-0.3,2.1-0.2,4.1l0,1.9c0,1,0,1.7,0.1,2.1c0.1-0.1,0.3-0.3,0.5-0.5l1.3-1.6c0.8-0.9,1.4-1.8,1.5-2.2    c0.1-0.3-0.1-0.6-0.4-0.9l-0.3-0.3c0-0.2,0.2-0.4,0.3-0.4c0.6,0.5,1,0.9,1.5,1.3c0.4,0.3,0.8,0.7,1.3,1c0,0.1-0.2,0.4-0.3,0.4    l-0.2-0.1c-0.3-0.2-0.6-0.3-0.9-0.1c-0.4,0.2-1.1,1-1.9,1.9l-2.2,2.7c-0.6,0.7-1.2,1.5-1.5,1.9c-0.2,0.1-0.6-0.1-0.9-0.3    c0,0,0.1-0.9,0.1-2l0-5.4c0-1.4,0-2.1,0-2.5c-0.1,0.1-0.3,0.3-0.7,0.7l-1.8,2.2c-0.8,0.9-1.4,1.8-1.5,2.2    c-0.1,0.3,0.1,0.6,0.4,0.9l0.3,0.3c0,0.2-0.2,0.4-0.3,0.4c-0.6-0.5-1-0.9-1.5-1.3c-0.4-0.3-0.9-0.7-1.3-1c0-0.1,0.2-0.4,0.3-0.4    l0.2,0.1c0.4,0.2,0.6,0.3,0.9,0.1c0.4-0.2,1.1-1,1.9-2l2.4-2.9c0.5-0.6,0.7-0.8,0.7-1C132.4,21.4,132.3,21.1,132,20.7z     M118.6,19.7l1.6-3.3c0.6-1.2,0.5-1.4,0-1.8l-0.3-0.2c-0.1-0.1,0.1-0.4,0.2-0.4c0.6,0.3,1.3,0.7,1.9,1c0.6,0.3,1.3,0.6,2,0.9    c0.1,0.1-0.1,0.4-0.2,0.5l-0.3-0.1c-0.6-0.2-0.8-0.1-1.4,1.1l-1.5,3.1c-0.7,1.6-1.4,3.3,0.6,4.3c1.7,0.8,2.9-0.4,3.8-2.2l0.8-1.6    c0.5-1.1,0.9-2.1,1-2.5c0-0.3-0.2-0.6-0.6-0.8l-0.3-0.2c-0.1-0.2,0.1-0.4,0.2-0.5c0.7,0.4,1.2,0.6,1.8,0.9c0.5,0.2,1,0.5,1.5,0.7    c0,0.1-0.1,0.4-0.2,0.5l-0.3-0.1c-0.4-0.1-0.7-0.1-0.9,0.1c-0.3,0.3-0.8,1.3-1.4,2.3l-0.7,1.5c-0.6,1.2-1.3,2.3-2.4,2.8    c-0.9,0.3-2,0.2-3.1-0.3c-1-0.5-1.8-1.1-2.3-2C117.7,22.3,117.9,21.1,118.6,19.7z M101.6,19.6l0.7,0c0.7,0,0.8-0.1,0.9-1.4    l0.6-5.5c0.2-1.3,0.1-1.4-0.6-1.6l-0.4-0.1c-0.1-0.1-0.1-0.4,0.1-0.5c0.7,0.1,1.4,0.2,2.1,0.3l3.1,0.4c0.9,0.1,1.8,0.2,2,0.2    c0,0.2,0,1.3-0.1,2.3c-0.1,0.2-0.4,0.1-0.5,0c-0.1-0.5-0.3-1-0.4-1.2c-0.2-0.3-0.7-0.5-1.4-0.6l-1.2-0.1c-0.5-0.1-0.5,0-0.6,0.5    l-0.3,2.6c0,0.4,0,0.4,0.4,0.5l1,0.1c0.8,0.1,0.9,0,1.2-0.7l0.1-0.4c0.1-0.1,0.5-0.1,0.5,0.1c-0.1,0.5-0.2,1-0.2,1.5    c-0.1,0.6-0.1,1.1-0.1,1.6c-0.1,0.1-0.5,0.1-0.5,0l0-0.4c-0.1-0.7-0.2-0.9-1-0.9l-1-0.1c-0.4,0-0.4,0-0.5,0.4l-0.2,1.7    c-0.1,0.7-0.1,1.1,0.1,1.4c0.2,0.3,0.4,0.4,1.5,0.6c1.3,0.1,1.8,0.2,2.8-1.4c0.1-0.1,0.5,0,0.5,0.1c-0.1,0.8-0.6,1.9-0.9,2.3    c-0.8-0.1-2.2-0.3-3.4-0.4l-1.9-0.2c-0.7-0.1-1.4-0.2-2.5-0.3C101.4,20.1,101.4,19.7,101.6,19.6z M91.2,10.8    c0.1,0,0.1-0.1,0.2-0.1c0.1,0,0.1,0,0.2,0c0.1,0.2,0.1,0.3,1.3,0.2l5.5-0.4c1-0.1,1.2-0.1,1.3-0.4c0.1,0,0.1-0.1,0.2-0.1    c0.1,0,0.2,0,0.2,0.1c-0.1,0.5-0.1,1.7,0,2.5c-0.1,0.1-0.5,0.2-0.5,0.1c-0.3-0.9-0.6-1.6-1.7-1.5l-0.9,0.1c-0.4,0-0.4,0.1-0.4,0.5    l0.5,6.5c0.1,1.4,0.2,1.5,0.9,1.5l0.6,0c0.1,0.1,0.1,0.4,0,0.5c-1,0-1.7,0.1-2.4,0.1c-0.7,0.1-1.5,0.1-2.5,0.2    c-0.1-0.1-0.2-0.4,0-0.5l0.7-0.1c0.7-0.1,0.7-0.3,0.6-1.6l-0.5-6.5c0-0.4,0-0.4-0.4-0.4l-0.9,0.1c-1.1,0.1-1.3,0.7-1.7,1.8    c-0.2,0.1-0.5,0.1-0.6-0.1C91.1,12.3,91.1,11.4,91.2,10.8z M82.6,22.8l0.4-0.1c0.3-0.1,0.6-0.3,0.7-0.9c0.1-0.6,0.2-1.4,0.3-2.5    l0.3-3.8c0.1-1,0.2-1.6,0.1-2c0.6-0.3,1-1.2,1-1.2c0.2-0.1,0.3,0,0.4,0.2c0.2,0.4,0.5,0.9,1.2,1.8l3.5,5c0.5,0.8,0.7,1.1,1.3,1    l0.6-0.1c0.1,0,0.2,0.4,0.1,0.5c-0.7,0.2-1.5,0.4-2.2,0.6c-0.7,0.2-1.3,0.4-1.9,0.6c-0.2,0-0.3-0.3-0.2-0.5l0.4-0.2    c0.3-0.1,0.3-0.3,0.3-0.3c0-0.1-0.2-0.4-0.5-0.9l-0.7-1.1c-0.1-0.2-0.3-0.2-0.8-0.1l-1.6,0.4c-0.3,0.1-0.4,0.1-0.4,0.4l-0.1,1.8    c0,0.3,0,0.4,0,0.5c0,0.1,0.2,0.1,0.6,0.1l0.4,0c0.1,0.1,0.2,0.4,0.1,0.5c-0.5,0.1-1.1,0.3-1.7,0.4c-0.5,0.1-0.8,0.3-1.4,0.4    C82.6,23.2,82.5,22.9,82.6,22.8z M71.8,17.4c0.1,0,0.1-0.1,0.2,0c0.2,0.2,0.2,0.2,1.2-0.3l4.9-2.4c0.9-0.4,1.1-0.5,1.1-0.9    c0-0.1,0.1-0.1,0.2-0.1c0.1,0,0.2,0,0.2,0c0.1,0.5,0.5,1.6,0.9,2.4c0,0.2-0.4,0.3-0.5,0.3c-0.6-0.7-1.1-1.3-2.1-0.8L77.2,16    c-0.3,0.2-0.3,0.2-0.2,0.6l2.8,5.9c0.6,1.2,0.7,1.3,1.4,1.1l0.6-0.2c0.1,0,0.3,0.3,0.2,0.5c-0.9,0.4-1.5,0.7-2.1,1    c-0.6,0.3-1.3,0.6-2.2,1.1c-0.1,0-0.3-0.3-0.2-0.5l0.6-0.4c0.6-0.4,0.6-0.5,0-1.7l-2.8-5.9c-0.2-0.3-0.2-0.4-0.5-0.2l-0.8,0.4    c-1,0.5-1,1.1-0.9,2.3c-0.1,0.2-0.4,0.3-0.5,0.1c-0.2-1.1-0.5-1.9-0.6-2.5C71.7,17.5,71.7,17.5,71.8,17.4z M66.8,20.9    c0.4-0.3,0.9-0.6,1.5-0.8c0.2-0.1,0.3-0.1,0.5-0.2c0.3,0.2,0.9,0.7,1.5,1.5c0,0.2-0.2,0.4-0.4,0.4c-0.6-0.5-1.8-1-2.6-0.3    c-0.8,0.6-0.8,1.4-0.4,2c0.4,0.5,1.2,0.7,2.1,0.6l1.1-0.2c1-0.1,2.5-0.1,3.4,1.2c1.1,1.5,0.6,3.3-1.2,4.6c-1.1,0.8-2,1-2.4,1    c-0.4-0.1-1.2-0.8-1.8-1.7c0-0.2,0.2-0.4,0.4-0.4c0.8,0.6,2.4,1.1,3.4,0.4c0.9-0.6,0.8-1.5,0.4-2.1c-0.7-1-2-0.9-3-0.7    c-1.2,0.2-2.6,0.2-3.5-1C64.7,23.9,65.1,22.2,66.8,20.9z M54.6,32.7c0.1-0.2,0.2-0.2,0.4-0.1c0.4,0.2,1,0.4,2,0.7l5.8,1.9    c0.9,0.3,1.2,0.4,1.6,0l0.4-0.4c0.1,0,0.4,0.2,0.4,0.3c-0.4,0.5-0.9,1.2-1.4,1.8c-0.4,0.6-0.8,1.1-1.2,1.6    c-0.2,0.1-0.4-0.1-0.4-0.3l0.2-0.4c0.2-0.3,0.1-0.4,0-0.5c-0.1-0.1-0.4-0.2-1-0.4l-1.3-0.4c-0.2-0.1-0.3,0-0.6,0.4l-1,1.3    c-0.2,0.3-0.2,0.3-0.1,0.6l1,1.5c0.2,0.2,0.3,0.3,0.4,0.4c0.1,0.1,0.2,0,0.5-0.3l0.3-0.3c0.1,0,0.4,0.2,0.4,0.3    c-0.3,0.4-0.7,0.9-1.1,1.3c-0.3,0.4-0.5,0.7-0.9,1.2c-0.2,0.1-0.4-0.1-0.4-0.3l0.2-0.3c0.2-0.3,0.3-0.6,0-1.2    c-0.3-0.6-0.7-1.2-1.3-2.1l-2.1-3.2c-0.5-0.8-0.8-1.4-1.1-1.6C54.8,33.6,54.6,32.7,54.6,32.7z M46.3,48.1c0.5-1.2,0.9-2.2,1.6-3.6    c0.5-1.1,1.1-2.1,1.9-2.9c1.4-1.5,3.5-1.7,5.1-0.9c1.8,0.8,2.8,2.4,2.9,4.3c0,1.1-0.3,2.3-1,3.7c-0.3,0.6-0.7,1.3-0.9,1.7    c-0.3,0.6-0.6,1.3-0.9,2.1c-0.1,0.1-0.5-0.1-0.5-0.2l0.1-0.4c0.2-0.6,0.1-0.8-1.1-1.3l-4.7-2.2c-1.3-0.6-1.5-0.7-1.9-0.1l-0.1,0.2    C46.6,48.4,46.2,48.3,46.3,48.1z M44.6,54.3c0.2-0.7,0.3-1.4,0.5-2.2c0.1-0.1,0.4,0,0.5,0.1l0,0.4c0,0.7,0,0.8,1.4,1.1l5.3,1.3    c1.3,0.3,1.5,0.3,1.7-0.4l0.2-0.4c0.1-0.1,0.4,0,0.5,0.1c-0.2,0.8-0.4,1.5-0.6,2.1c-0.2,0.7-0.3,1.4-0.5,2.2    c-0.1,0.1-0.4,0-0.5-0.1l0-0.4c0-0.7,0-0.8-1.4-1.1l-5.3-1.3c-1.3-0.3-1.5-0.3-1.7,0.4l-0.2,0.4c-0.1,0.1-0.4,0-0.5-0.1    C44.2,55.7,44.4,55,44.6,54.3z M43,68.8c0-1.1,0-2.3,0.1-3.7c0.1-1.2,0.3-2.3,0.7-2.9c0.5-0.8,1.3-1.2,2.2-1.2    c1.3,0.1,1.8,1,2.1,1.7c0.1,0.2,0.2,0.2,0.3,0.1c2-0.9,3.2-1.4,3.8-2.1c0.3-0.4,0.4-0.7,0.5-1c0.1-0.1,0.3-0.1,0.4,0    c0.1,0.2,0.1,0.7,0.1,1.2c-0.1,1.4-0.6,2.2-1.7,2.8c-0.8,0.4-1.5,0.7-2.3,1c-0.4,0.2-0.5,0.4-0.6,0.8c0,0.5,0,0.5,0.3,0.6l1.8,0.1    c1.4,0.1,1.5,0,1.6-0.7l0.1-0.4c0.1-0.1,0.4-0.1,0.5,0c-0.1,0.8-0.1,1.5-0.2,2.2c0,0.7-0.1,1.4-0.1,2.1c-0.1,0.1-0.4,0.1-0.5,0    L52.1,69c-0.1-0.7-0.2-0.8-1.5-0.8l-5.2-0.3c-1.5-0.1-1.6-0.1-1.8,0.6l-0.1,0.4C43.4,69,43.1,69,43,68.8z M43.6,76.8    c-0.5-3,1.2-5.4,4.1-5.9c3.2-0.5,5.4,1.3,5.9,4.4c0.5,2.9-1.1,5.4-4.1,5.9C46.6,81.6,44.1,79.8,43.6,76.8z M48.5,92.3    c-0.3-0.7-0.5-1.4-0.8-2.1c-0.3-0.7-0.6-1.3-0.9-2c0-0.1,0.4-0.3,0.5-0.2l0.2,0.3c0.3,0.6,0.5,0.6,1.8,0.1l4.8-1.9    c0.6-0.3,1.1-0.5,1.2-0.8c0.2-0.3,0.2-0.6-0.2-1.6c-0.5-1.2-0.7-1.6-2.6-1.8c-0.2-0.1-0.3-0.4-0.1-0.6c0.7-0.2,2-0.3,2.4-0.3    c0.3,0.7,0.8,2.1,1.2,3.2l0.7,1.8c0.3,0.6,0.5,1.3,0.9,2.1c0,0.2-0.3,0.3-0.5,0.2l-0.3-0.5c-0.3-0.6-0.5-0.6-1.7-0.1l-5.1,2    c-1.3,0.5-1.4,0.6-1.2,1.3l0.1,0.4C49,92.3,48.7,92.4,48.5,92.3z M61.9,96.4L61.6,96c-0.4-0.5-0.6-0.5-1.7,0.2l-4.6,3    c-1.1,0.7-1.2,0.9-0.9,1.5l0.1,0.3c0,0.2-0.3,0.4-0.4,0.3c-0.3-0.5-0.7-1.2-1.1-1.8l-1.7-2.6c-0.5-0.8-1-1.5-1.1-1.6    c0.2-0.1,1.1-0.7,1.9-1.3c0.2,0,0.4,0.2,0.4,0.4c-0.4,0.5-0.7,0.8-0.7,1c-0.1,0.4,0,0.8,0.4,1.5l0.6,1c0.3,0.4,0.3,0.4,0.8,0.1    l2.2-1.4c0.3-0.2,0.4-0.3,0.1-0.6l-0.6-1c-0.4-0.7-0.6-0.7-1.3-0.5l-0.3,0.1c-0.2,0-0.4-0.3-0.3-0.5c0.4-0.2,0.9-0.5,1.3-0.8    c0.5-0.3,0.9-0.6,1.3-0.9c0.2,0,0.4,0.3,0.3,0.5l-0.3,0.3c-0.5,0.5-0.5,0.7-0.1,1.4l0.6,1c0.2,0.3,0.3,0.3,0.6,0.1l1.7-1.1    c1.1-0.7,1.2-0.9,0.9-1.5l-0.2-0.5c0-0.1,0.3-0.3,0.4-0.3c0.5,0.8,0.9,1.4,1.2,2c0.4,0.6,0.8,1.2,1.3,1.9    C62.3,96.3,62,96.5,61.9,96.4z M89.5,115.5l-1.4,5.9c-0.3,1.2-0.2,1.4,0.5,1.6l0.6,0.2c0.1,0.1,0,0.5-0.2,0.5    c-0.5-0.2-1.5-0.4-2.4-0.6c-1-0.2-1.9-0.4-2.5-0.5c-0.1-0.1-0.1-0.5,0.1-0.5l0.6,0.1c0.8,0.1,0.9,0,1.2-1.2l1.2-5    c0.2-1,0.2-1.3-0.4-1.5l-0.7-0.3c-0.1-0.1,0-0.5,0.1-0.5c0.6,0.1,1.4,0.1,2.1,0c0.7,0,1.4-0.2,1.5-0.2c0.1,0,0.2,0.1,0.2,0.2    C89.9,114,89.7,114.7,89.5,115.5z M98.8,117.2c-0.1,1.1-1,1.6-1.9,2c1.1,0.7,2,1.6,1.8,3.1c-0.1,1.5-1.4,2.6-3.8,2.4    c-1.8-0.2-3.4-1.1-3.2-2.8c0.1-1.2,1-1.9,2.3-2.4c-0.9-0.6-1.5-1.4-1.5-2.6c0.1-1.5,1.5-2.6,3.4-2.4    C97.8,114.6,99,115.7,98.8,117.2z M105.3,124.4c-1.2,0.8-2.9,1.2-4.2,1.3c-0.2-0.1-0.3-0.6-0.1-0.7c1.1-0.1,2.4-0.4,3.1-0.9    c0.9-0.6,1.4-1.4,1.3-2.2c-0.2-2.2-2.5-2.3-4.1-2.3c-0.5,0-0.6-0.1-0.5-0.5l0.7-3.7c0.1-0.4,0.2-0.4,0.7-0.5l4.1-0.8    c0.1,0,0.2,0.1,0.2,0.2c-0.1,0.6-0.4,1.3-0.7,1.7l-3.5,0.7c-0.2,0-0.3,0.2-0.3,0.5l-0.1,0.4c-0.1,0.4,0.1,0.4,0.5,0.4    c0.8,0,2.3,0.1,3.3,0.5c0.9,0.4,1.8,1.2,1.9,2.5C107.4,122.5,106.6,123.6,105.3,124.4z M116,122.5c-0.6,0.1-1.5,0.3-2.4,0.5    c-1,0.2-1.9,0.5-2.5,0.6c-0.2,0-0.3-0.4-0.2-0.5l0.6-0.2c0.7-0.2,0.8-0.4,0.5-1.6l-1.2-5c-0.2-1-0.4-1.2-1.1-1.2l-0.7,0.1    c-0.2,0-0.3-0.4-0.2-0.5c0.6-0.2,1.3-0.6,1.8-0.9c0.6-0.4,1.1-0.8,1.2-0.8c0.1,0,0.2,0,0.3,0.1c0.1,0.4,0.2,1.1,0.4,1.8l1.4,5.9    c0.3,1.2,0.4,1.4,1.2,1.2l0.6-0.1C116,122,116.1,122.4,116,122.5z M100,109.9c-23.4,0-42.4-19-42.4-42.4c0-23.4,19-42.4,42.4-42.4    s42.4,19,42.4,42.4C142.4,90.9,123.4,109.9,100,109.9z M150.4,94.5c-0.4,0.5-0.7,1-1.2,1.7c-0.5,0.8-0.9,1.4-1.1,1.8    c-0.1,0.1-0.4-0.1-0.5-0.3l0.2-0.5c0.1-0.3,0.1-0.4,0.1-0.4c-0.1-0.1-0.3-0.1-1.1-0.2l-1.7-0.3c-0.5-0.1-1.2-0.2-1.6-0.2    c0.4,0.7,0.9,1.6,1.3,2.3c0.6,1,0.9,1.5,1,1.6c0.1,0,0.2,0,0.4-0.3l0.2-0.3c0.1-0.1,0.4,0.1,0.4,0.3c-0.3,0.5-0.6,0.9-0.9,1.4    c-0.3,0.5-0.5,0.9-0.7,1.2c-0.1,0.1-0.4-0.1-0.5-0.2l0.1-0.4c0.1-0.2,0.2-0.5,0.1-0.8c-0.1-0.3-0.4-0.9-1.1-2.2l-0.9-1.7    c-0.4-0.7-0.6-1-1.3-1.5l-0.9-0.6c-1.2-0.7-1.3-0.7-1.7-0.2l-0.4,0.5c-0.1,0-0.4-0.1-0.4-0.3c0.5-0.8,0.9-1.4,1.3-2    c0.4-0.6,0.8-1.2,1.2-2c0.1,0,0.4,0.1,0.4,0.3l-0.2,0.5c-0.3,0.6-0.2,0.7,0.9,1.5l0.6,0.4c0.6,0.4,0.8,0.5,1.7,0.6l4,0.5    c0.7,0.1,0.9,0.1,1.3-0.3l0.3-0.4C150.2,94.1,150.5,94.3,150.4,94.5z M155,84.3c0,0.1-0.1,0.1-0.1,0.2c-0.3,0-0.3,0-0.7,1l-2,5.1    c-0.3,0.9-0.4,1.1-0.2,1.4c0,0.1,0,0.1,0,0.2c0,0.1-0.1,0.2-0.2,0.2c-0.4-0.3-1.5-0.8-2.3-1.1c-0.1-0.1,0-0.5,0.2-0.5    c1,0.1,1.7,0.2,2.1-0.9L152,89c0.1-0.3,0.1-0.4-0.3-0.5l-6.1-2.3c-1.3-0.5-1.4-0.4-1.7,0.1l-0.3,0.5c-0.1,0.1-0.4-0.1-0.5-0.2    c0.4-0.9,0.6-1.6,0.9-2.2c0.3-0.7,0.5-1.4,0.9-2.4c0.1-0.1,0.4,0,0.5,0.2l-0.2,0.6c-0.2,0.6-0.1,0.8,1.2,1.3l6.1,2.3    c0.3,0.1,0.4,0.2,0.5-0.2l0.3-0.9c0.4-1-0.1-1.5-0.9-2.3c0-0.2,0.1-0.4,0.3-0.5c0.8,0.7,1.7,1,2.2,1.3C155,84.1,155,84.2,155,84.3    z M155.8,79c-0.1,0.7-0.3,1.4-0.4,2.2c-0.1,0.1-0.4,0-0.5-0.1l0-0.4c0-0.7-0.1-0.8-1.4-1.1l-5.3-1.1c-1.4-0.3-1.5-0.2-1.7,0.4    l-0.2,0.4c-0.1,0.1-0.4,0-0.5-0.1c0.2-0.8,0.3-1.5,0.5-2.2c0.1-0.7,0.3-1.4,0.4-2.2c0.1-0.1,0.4,0,0.5,0.1l0,0.4    c0,0.7,0.1,0.8,1.4,1.1l5.3,1.1c1.4,0.3,1.5,0.2,1.7-0.4l0.2-0.4c0.1-0.1,0.4,0,0.5,0.1C156.1,77.6,155.9,78.3,155.8,79z     M156.7,72.8c-0.1,0.2-0.1,0.3-0.1,0.5c-0.3,0.1-1.1,0.2-2.1,0.2c-0.2-0.1-0.2-0.5,0-0.6c0.8-0.2,1.9-0.8,1.9-1.8    c0.1-1-0.6-1.5-1.3-1.6c-0.7,0-1.3,0.5-1.7,1.2l-0.6,0.9c-0.5,0.9-1.4,2-3.1,1.9c-1.8-0.1-2.9-1.6-2.8-3.9    c0.1-1.4,0.5-2.2,0.7-2.5c0.3-0.3,1.4-0.4,2.4-0.3c0.2,0.1,0.2,0.5,0,0.6c-1,0.2-2.4,1.2-2.4,2.4c-0.1,1.1,0.7,1.6,1.4,1.7    c1.2,0.1,2-1,2.4-1.9c0.6-1,1.5-2.1,3-2.1c1.7,0.1,2.7,1.4,2.6,3.6C157,71.6,157,72.2,156.7,72.8z"/>
		<path class="st0" d="M151.6,59.9c0.1,0.5,0.2,0.8,0.6,1.1c0.3,0.2,0.8,0.4,1.6,0.3c1.3-0.2,2-1.1,1.9-2.2    c-0.1-0.6-0.1-0.6-0.8-0.5l-2.8,0.4C151.5,59,151.5,59,151.6,59.9z"/>
		<path class="st0" d="M85.3,18.3l1.2-0.3c0.3-0.1,0.4-0.2,0.2-0.5l-0.7-1c-0.4-0.6-0.7-1.1-0.9-1.3c-0.1,0.4-0.1,1-0.2,1.7    l-0.1,1.2C84.8,18.4,84.9,18.4,85.3,18.3z"/>
		<path class="st0" d="M49,46l4.9,2.3c0.7,0.3,1.2,0.5,1.6,0.4c0.4-0.1,0.7-0.4,0.9-0.9c1.1-2.3-0.6-4.1-2.4-4.9    c-2.4-1.1-4.4-0.5-5.6,1.9c-0.2,0.4-0.2,0.6-0.2,0.8C48.4,45.7,48.6,45.8,49,46z"/>
	</g>
</g>
</svg>