<?xml version="1.0" encoding="UTF-8"?>
<!-- Generator: Adobe Illustrator 19.2.1, SVG Export Plug-In . SVG Version: 6.00 Build 0)  -->
<svg version="1.1" id="Layer_1" xmlns="http://www.w3.org/2000/svg" xmlns:xlink="http://www.w3.org/1999/xlink" x="0px" y="0px" viewBox="0 0 200 135" style="enable-background:new 0 0 200 135;" xml:space="preserve">
<style type="text/css">
	.st0{fill:#2C3739;}
</style>
<g id="fl_chamber">
	<path class="st0" d="M75.5,45.8c0-2.6,0.9-5,2.4-7c0.5,0.1,1,0.2,1.4,0.4c1.5,0.7,2.2,2,2.2,2s0.8,0.3,1.6,0c0.5-0.2,1.9-1,2.6-0.9   s1.8,0.7,2.1,1.2c0.3,0.5,0.5,1,1,1.3s1.6,1.2,1.9,2.6c0.2,1.4-0.3,1.9-0.3,1.9s-0.3,0.3-0.1,0.6c0.2,0.3,0.6,0.5,0.6,0.9   c0,0.5-0.3,0.5-0.1,1c0.2,0.5,0.4,0.5,0.4,0.9s0,0.7,0.4,1c0.5,0.3,0.7,0,1,0.4s0.4,1.4,0.7,1.7c0.3,0.3,0.7,0.4,1,0.7   s0.3,0.8,0.3,1.2c-1.9,1.2-4.2,1.9-6.7,1.9C81.1,57.7,75.5,52.4,75.5,45.8"/>
	<path class="st0" d="M80.5,36.2c2.1-1.5,4.7-2.4,7.5-2.4c6.9,0,12.5,5.3,12.5,11.9c0,2.3-0.7,4.5-1.9,6.4c0-0.2,0-0.3,0.1-0.5   c0.2-0.7,0.4-1.8,0.2-2.6c-0.2-0.9-0.5-1.7-0.8-2s-0.7-0.7-0.7-1c0-0.4-0.3-1-0.4-1.7c-0.2-0.7-0.7-1.4-1.1-2.2s-1.4-4.6-1.4-4.6   s-0.1-0.4-0.3-0.4c-0.3,0-0.7,0-0.7,0s-0.4,0.1-0.3,0.4c0.1,0.4-0.3,0.7-0.6,0.7c-0.3,0-0.5-0.3-0.6-0.5s-0.3-0.3-0.7-0.3   c-0.3,0-5.9,0-5.9,0s-0.6,0-0.8-0.2c-0.2-0.2-0.5-0.7-1-0.9c-0.6-0.3-1.9-0.1-2.5-0.1C81,36.3,80.7,36.3,80.5,36.2"/>
	<path class="st0" d="M94.4,99.2c0-2.1-1.1-3.5-3.7-3.5c-3.2,0-5.7,2.8-5.7,6.7c0,2.3,1.1,3.5,3.6,3.5   C91.6,105.9,94.4,103.3,94.4,99.2 M92.5,99.4c0,2.9-1.7,4.9-3.6,4.9c-1.5,0-2.1-0.8-2.1-2.3c0-2.5,1.4-4.9,3.6-4.9   C91.9,97.2,92.5,98,92.5,99.4"/>
	<path class="st0" d="M104.2,91.3c-0.6-0.1-1.1-0.2-1.6-0.2c-2.6,0-4,1.4-4.5,4L98,95.9h-2l-0.3,1.4h2l-1.7,9c-0.4,2.3-1.2,3-2.6,3   c-0.4,0-0.9-0.1-1.4-0.2l-0.4,1.5c0.5,0.1,1.1,0.2,1.7,0.2c2.4,0,3.9-1.3,4.5-4.5l1.7-9h2.7l0.3-1.4h-2.7l0.1-0.7   c0.3-1.8,1.1-2.6,2.6-2.6c0.4,0,1,0.1,1.4,0.2L104.2,91.3z"/>
	<path class="st0" d="M117.7,92.6c-0.9-0.2-1.8-0.4-3-0.4c-5.1,0-7.7,4.4-7.7,9.1c0,2.4,1,4.6,4.8,4.6c1.2,0,2.5-0.2,3.6-0.6   l0.1-1.6c-0.9,0.4-2,0.7-3.1,0.7c-2.6,0-3.4-1.3-3.4-3.3c0-3.4,1.6-7.2,5.4-7.2c0.9,0,1.8,0.1,2.8,0.5L117.7,92.6z"/>
	<path class="st0" d="M126.9,99.2c0-2.1-1.1-3.5-3.7-3.5c-3.2,0-5.7,2.8-5.7,6.7c0,2.3,1.1,3.5,3.6,3.5   C124.1,105.9,126.9,103.3,126.9,99.2 M125.1,99.4c0,2.9-1.7,4.9-3.6,4.9c-1.5,0-2.1-0.8-2.1-2.3c0-2.5,1.4-4.9,3.6-4.9   C124.4,97.2,125.1,98,125.1,99.4"/>
	<path class="st0" d="M143.8,99c0.4-2.1-0.2-3.3-2-3.3c-2,0-3.6,2-4.5,4.1l0,0c0.3-1,0.5-1.6,0.5-2.2c0-1.2-0.7-1.9-2-1.9   c-2,0-3.6,2-4.5,4.1l0,0c0.4-1.3,0.9-2.6,1.1-3.9c-1.1-0.1-2.5,0-3.4,0.1l-0.2,1.1c0.6,0,1.2,0.1,1.7,0.2v0.1l-1.6,8.4h1.8l0.4-2.2   c0.6-2.9,2.7-6.3,4.2-6.3c0.8,0,1.1,0.7,0.8,2.2l-1.2,6.3h1.7l0.4-2.2c0.6-3,2.7-6.3,4.2-6.3c0.8,0,1.1,0.7,0.8,2.2l-1.2,6.3h1.7   L143.8,99z"/>
	<path class="st0" d="M161.4,99c0.4-2.1-0.2-3.3-2-3.3c-2,0-3.6,2-4.5,4.1l0,0c0.3-1,0.5-1.6,0.5-2.2c0-1.2-0.7-1.9-2-1.9   c-2,0-3.6,2-4.5,4.1l0,0c0.4-1.3,0.9-2.6,1.1-3.9c-1.1-0.1-2.5,0-3.4,0.1l-0.2,1.1c0.6,0,1.2,0.1,1.7,0.2v0.1l-1.6,8.4h1.8l0.4-2.2   c0.6-2.9,2.7-6.3,4.2-6.3c0.8,0,1.1,0.7,0.8,2.2l-1.2,6.3h1.7l0.4-2.2c0.6-3,2.7-6.3,4.2-6.3c0.8,0,1.1,0.7,0.8,2.2l-1.2,6.3h1.7   L161.4,99z"/>
	<path class="st0" d="M171.7,97.9c0-1.2-0.8-2.2-2.9-2.2c-3.3,0-5.4,3.2-5.4,7c0,2.2,1,3.2,3.3,3.2c1.3,0,2.4-0.2,3.4-0.6v-1.4   c-0.9,0.4-1.8,0.6-2.8,0.6c-1.6,0-2.1-0.4-2.1-1.9c0-0.4,0-0.9,0.1-1.1C169.5,101.2,171.7,100.1,171.7,97.9 M169.9,98.2   c0,1.2-1.3,1.8-4.4,1.9c0.5-1.7,1.5-3,3.1-3C169.4,97,169.9,97.4,169.9,98.2"/>
	<path class="st0" d="M180.3,95.7c-2.1-0.4-3.2,1.4-4.4,3.8l0,0c0.6-1.7,0.9-2.8,1-3.6c-1-0.1-2.4,0-3.4,0.1l-0.2,1   c0.6,0,1.2,0.1,1.7,0.2v0.1l-1.6,8.4h1.8l0.4-2.2c0.5-2.7,2.4-6.8,4.4-6L180.3,95.7z"/>
	<path class="st0" d="M187.9,96c-0.6-0.2-1.3-0.3-2.1-0.3c-3.5,0-5.6,3.2-5.6,6.9c0,1.9,0.9,3.2,3.4,3.2c1,0,1.9-0.2,2.6-0.5   l0.1-1.6c-0.6,0.3-1.4,0.5-2.2,0.5c-1.7,0-2.1-1.1-2.1-2.1c0-2.2,1.2-5.1,3.7-5.1c0.7,0,1.3,0.1,1.8,0.4L187.9,96z"/>
	<path class="st0" d="M196.6,97.9c0-1.2-0.8-2.2-2.9-2.2c-3.3,0-5.4,3.2-5.4,7c0,2.2,1,3.2,3.3,3.2c1.3,0,2.4-0.2,3.4-0.6v-1.4   c-0.9,0.4-1.8,0.6-2.8,0.6c-1.6,0-2.1-0.4-2.1-1.9c0-0.4,0-0.9,0.1-1.1C194.5,101.2,196.6,100.1,196.6,97.9 M194.9,98.2   c0,1.2-1.3,1.8-4.4,1.9c0.5-1.7,1.5-3,3.1-3C194.3,97,194.9,97.4,194.9,98.2"/>
	<path class="st0" d="M25.5,61.9c-2.1-0.7-4.4-1.1-6.7-1.1c-8,0-14.3,6.4-14.3,14.4c0,7.8,6.1,13.9,13.9,13.9c1.8,0,5.5-0.3,7.1-1.1   l0.3-10.2c-1.6,1.6-3.4,2.5-5.7,2.5c-3,0-5.6-2.3-5.6-5.3s2.4-5.3,5.4-5.3c2.3,0,4.3,1.3,5.9,2.8L25.5,61.9z"/>
	<polygon class="st0" points="28.3,88.6 37.9,88.6 37.9,79.1 44,79.1 44,88.6 53.6,88.6 53.6,61.2 44,61.2 44,70.4 37.9,70.4    37.9,61.2 28.3,61.2  "/>
	<path class="st0" d="M65.9,85.2h7.5l0.9,3.4h10.5L75,61.2H64l-9.5,27.4H65L65.9,85.2z M67.7,78.7l1.8-8.4h0.4   c0.2,1.2,0.4,2.4,0.7,3.5l1.2,4.8L67.7,78.7L67.7,78.7z"/>
	<path class="st0" d="M85.8,88.6h9.6l1.2-11.7c0.1-1.1,0.2-2.2,0.3-3.3h0.3c0.1,1.2,0.3,2.3,0.6,3.4l3.6,11.6h5.8l4-12.3   c0.3-0.9,0.5-1.8,0.7-2.7h0.2l1.3,15h9.6l-4.5-27.4h-10.1L105.3,72c-0.3,1.2-0.5,2.4-0.7,3.6h-0.3l-3.8-14.4H90.2L85.8,88.6z"/>
	<path class="st0" d="M124.7,88.6h13.6c4.8,0,10-1.9,10-7.6c0-3.3-1.9-5.5-4.9-6.5v-0.2c2.4-0.8,3.6-3.1,3.6-5.5   c0-6.3-5.4-7.6-10.7-7.6h-11.6L124.7,88.6L124.7,88.6z M134,71.7v-3.9h0.7c1.5,0,3.3-0.1,3.3,1.9c0,1.9-1.6,2-3.1,2H134z M134,77.5   h1c1.6,0,4.1,0,4.1,2.3s-2.4,2.3-4,2.3H134V77.5z"/>
	<polygon class="st0" points="150,88.6 168.7,88.6 168.7,81.1 160,81.1 160,78.4 167.7,78.4 167.7,71.3 160,71.3 160,68.7    168.4,68.7 168.4,61.2 150,61.2  "/>
	<path class="st0" d="M171,88.6h9.7v-8.8h0.2l4.4,8.8h11.5l-6-8.9c-0.5-0.8-1.2-1.2-1.7-1.6v-0.2c3.7-1.2,5.3-3,5.3-7.1   c0-6.9-5.2-9.5-11.4-9.5h-12V88.6z M180.7,68.7h0.8c1.7,0,3.2,0.3,3.2,2.4c0,2-1.6,2.3-3.3,2.3h-0.7V68.7z"/>
	<polygon class="st0" points="44.1,57.7 52.8,57.7 52.8,49.4 59.2,49.4 59.2,43.2 52.8,43.2 52.8,40.7 60.1,40.7 60.1,33.8    44.1,33.8  "/>
	<polygon class="st0" points="61.5,57.7 74.9,57.7 74.9,50.1 70.2,50.1 70.2,33.8 61.5,33.8  "/>
	<path class="st0" d="M102.3,57.7h8.5V50h0.2l3.8,7.7h10l-5.2-7.8c-0.5-0.7-1-1.1-1.5-1.4v-0.2c3.2-1.1,4.6-2.6,4.6-6.2   c0-6-4.6-8.3-9.9-8.3h-10.5V57.7z M110.7,40.4h0.7c1.5,0,2.8,0.2,2.8,2.1c0,1.8-1.4,2-2.8,2h-0.6L110.7,40.4L110.7,40.4z"/>
	<rect x="124.1" y="33.8" class="st0" width="8.7" height="23.9"/>
	<path class="st0" d="M134.6,57.7h11c7,0,12-4.5,12-11.6c0-8.8-6.1-12.3-14.1-12.3h-8.8L134.6,57.7L134.6,57.7z M143.3,41.3h0.5   c3.2,0,5.1,1.4,5.1,4.8c0,3.1-2.2,4.5-5.1,4.5h-0.5V41.3z"/>
	<path class="st0" d="M165.2,54.7h6.6l0.8,3h9.2l-8.5-23.9h-9.6l-8.3,23.9h9.2L165.2,54.7z M166.8,49.1l1.6-7.3h0.3   c0.2,1,0.3,2.1,0.6,3.1l1,4.2H166.8z"/>
</g>
</svg>