<?xml version="1.0" encoding="UTF-8"?>
<!-- Generator: Adobe Illustrator 21.0.2, SVG Export Plug-In . SVG Version: 6.00 Build 0)  -->
<svg version="1.1" id="Layer_1" xmlns="http://www.w3.org/2000/svg" xmlns:xlink="http://www.w3.org/1999/xlink" x="0px" y="0px" viewBox="0 0 200 135" style="enable-background:new 0 0 200 135;" xml:space="preserve">
<style type="text/css">
	.st0{clip-path:url(#SVGID_2_);fill:#2C3739;}
	.st1{clip-path:url(#SVGID_4_);fill:#2C3739;}
	.st2{clip-path:url(#SVGID_6_);fill:#2C3739;}
	.st3{clip-path:url(#SVGID_8_);fill:#2C3739;}
	.st4{clip-path:url(#SVGID_10_);fill:#2C3739;}
	.st5{clip-path:url(#SVGID_12_);fill:#2C3739;}
	.st6{clip-path:url(#SVGID_14_);fill:#2C3739;}
	.st7{clip-path:url(#SVGID_16_);fill:#2C3739;}
</style>
<g>
	<g>
		<defs>
			<path id="SVGID_1_" d="M102,67.3c0-6.1-4.5-11-10.9-11v0c0,0,0,0,0,0c0,0,0,0,0,0v0c-6.3,0-10.8,5.2-10.8,11.3     c0,6.1,4.5,10.9,10.8,10.9c4.8,0,10.1-2.2,10.8-6.6l-3.8,0c-0.8,5.1-9.7,5-10,0.1C88,71.1,88,68.8,88,68.8h14h0     C102.1,68.4,102,67.7,102,67.3z M88.1,66.1l0.1-3.7c0,0,0-3.4,2.9-3.4c2.6,0,2.6,3.5,2.6,3.5l0.1,3.6H88.1z"/>
		</defs>
		<use xlink:href="#SVGID_1_" style="overflow:visible;fill-rule:evenodd;clip-rule:evenodd;fill:#2C3739;"/>
		<clipPath id="SVGID_2_">
			<use xlink:href="#SVGID_1_" style="overflow:visible;"/>
		</clipPath>
		<rect x="71.6" y="47.5" class="st0" width="39.3" height="39.7"/>
	</g>
	<g>
		<defs>
			<path id="SVGID_3_" d="M173.7,67.3c0-6.1-4.6-11-10.9-11v0c0,0,0,0,0,0c0,0,0,0,0,0v0c-6.3,0-10.8,5.2-10.8,11.3     c0,6.1,4.5,10.9,10.8,10.9c4.8,0,10.1-2.2,10.8-6.6l-3.8,0c-0.8,5.1-9.7,5-10,0.1c-0.1-0.8-0.1-3.1-0.1-3.1h14h0.1     C173.8,68.4,173.7,67.7,173.7,67.3z M159.8,66.1l0.1-3.7c0,0,0-3.4,2.9-3.4c2.6,0,2.6,3.5,2.6,3.5l0.1,3.6H159.8z"/>
		</defs>
		<use xlink:href="#SVGID_3_" style="overflow:visible;fill-rule:evenodd;clip-rule:evenodd;fill:#2C3739;"/>
		<clipPath id="SVGID_4_">
			<use xlink:href="#SVGID_3_" style="overflow:visible;"/>
		</clipPath>
		<rect x="143.2" y="47.5" class="st1" width="39.3" height="39.7"/>
	</g>
	<g>
		<defs>
			<rect id="SVGID_5_" x="175.5" y="49.8" width="7.8" height="27.7"/>
		</defs>
		<use xlink:href="#SVGID_5_" style="overflow:visible;fill-rule:evenodd;clip-rule:evenodd;fill:#2C3739;"/>
		<clipPath id="SVGID_6_">
			<use xlink:href="#SVGID_5_" style="overflow:visible;"/>
		</clipPath>
		<rect x="166.8" y="41" class="st2" width="25.3" height="45.2"/>
	</g>
	<g>
		<defs>
			<rect id="SVGID_7_" x="186.2" y="49.8" width="7.8" height="27.7"/>
		</defs>
		<use xlink:href="#SVGID_7_" style="overflow:visible;fill-rule:evenodd;clip-rule:evenodd;fill:#2C3739;"/>
		<clipPath id="SVGID_8_">
			<use xlink:href="#SVGID_7_" style="overflow:visible;"/>
		</clipPath>
		<rect x="177.4" y="41" class="st3" width="25.3" height="45.2"/>
	</g>
	<g>
		<defs>
			<path id="SVGID_9_" d="M43.3,56.3c-4,0-11.3,2.8-11.3,11.1c0,9.2,7.4,11,11.3,11c4,0,11.4-2.3,11.4-11     C54.6,58.9,47.3,56.3,43.3,56.3z M43.3,75.7c-2.1,0-3-3.3-3-8.3c0-5,0.4-8.4,3-8.4c2.4,0,2.9,3.4,2.9,8.4     C46.1,72.5,45.7,75.7,43.3,75.7z"/>
		</defs>
		<use xlink:href="#SVGID_9_" style="overflow:visible;fill-rule:evenodd;clip-rule:evenodd;fill:#2C3739;"/>
		<clipPath id="SVGID_10_">
			<use xlink:href="#SVGID_9_" style="overflow:visible;"/>
		</clipPath>
		<rect x="23.2" y="47.6" class="st4" width="40.2" height="39.6"/>
	</g>
	<g>
		<defs>
			<polyline id="SVGID_11_" points="6,49.8 14.5,49.8 14.5,61.1 21.1,61.1 21.1,49.8 30,49.8 30,77.4 21.1,77.4 21.1,65.2      14.6,65.2 14.6,77.5 6,77.5    "/>
		</defs>
		<use xlink:href="#SVGID_11_" style="overflow:visible;fill-rule:evenodd;clip-rule:evenodd;fill:#2C3739;"/>
		<clipPath id="SVGID_12_">
			<use xlink:href="#SVGID_11_" style="overflow:visible;"/>
		</clipPath>
		<rect x="-2.7" y="41" class="st5" width="41.5" height="45.2"/>
	</g>
	<g>
		<defs>
			<path id="SVGID_13_" d="M57.1,77.4V57.1h7.7v2c0,0,2.8-2.3,6.2-2.3c3.1,0,6.1,2.2,6.7,4.7c0.2,0.8,0.2,1.4,0.2,1.4v14.6h-7.6V64     c0,0,0.3-3-2-2.9c-1.8,0.1-3,1.1-3.4,1.7v14.6"/>
		</defs>
		<use xlink:href="#SVGID_13_" style="overflow:visible;fill-rule:evenodd;clip-rule:evenodd;fill:#2C3739;"/>
		<clipPath id="SVGID_14_">
			<use xlink:href="#SVGID_13_" style="overflow:visible;"/>
		</clipPath>
		<rect x="48.3" y="47.9" class="st6" width="38.3" height="38.3"/>
	</g>
	<g>
		<defs>
			<path id="SVGID_15_" d="M100.1,80.7c0,1.8,1.1,4.5,4.5,4.5c2.8,0,5.4-1.6,6.4-3.8c0.8-1.8,9.7-24.3,9.7-24.3l5.9,20.4h6.4     l3.3-12.2l3.9,12.2h6.1l5.2-20.4H148l-2.8,10.7l-3.6-10.7h-6.3l-3.2,11l-3.2-11h-11.1l-3.9,9.8l-3.7-9.8h-8.9     c0,0,8.3,18.9,8.2,20.3c-0.1,3.4-2.7,4.9-3,5h0c0.3-0.4,0.6-1.2,0.6-1.9c0-1.9-1.5-3.4-3.4-3.4C101.6,77.2,100.1,78.7,100.1,80.7     "/>
		</defs>
		<use xlink:href="#SVGID_15_" style="overflow:visible;fill-rule:evenodd;clip-rule:evenodd;fill:#2C3739;"/>
		<clipPath id="SVGID_16_">
			<use xlink:href="#SVGID_15_" style="overflow:visible;"/>
		</clipPath>
		<rect x="91.3" y="48.4" class="st7" width="68.9" height="45.7"/>
	</g>
</g>
</svg>