<?xml version="1.0" encoding="UTF-8"?>
<!-- Generator: Adobe Illustrator 19.2.1, SVG Export Plug-In . SVG Version: 6.00 Build 0)  -->
<svg version="1.1" id="Layer_1" xmlns="http://www.w3.org/2000/svg" xmlns:xlink="http://www.w3.org/1999/xlink" x="0px" y="0px" viewBox="0 0 200 135" style="enable-background:new 0 0 200 135;" xml:space="preserve">
<style type="text/css">
	.st0{fill:#2C3739;}
</style>
<g id="rayonier">
	<path class="st0" d="M128.1,46.9c-8.5-5-28.8-17.7-28.8-17.7s-4.2,6-25.2,13.3c5.6-0.6,11.3-0.9,16.9-0.9   C108.6,41.6,121.2,44.6,128.1,46.9"/>
	<path class="st0" d="M38.2,55.1c0,0,37.4-11.4,90.6-3.7C128.8,51.3,92.7,33.4,38.2,55.1"/>
	<path class="st0" d="M49.6,91.4h7.6V79.6c0-6,0-10-1.5-12.3c-1.5-2.3-4.6-3.1-11-3.1h-7.1l-3.1,6.6l12.2,0c1.8,0.1,2.9,0.4,2.9,2.7   v0.8H42c-5.4,0-9,1.5-9,8.6c0,7.5,4.8,8.5,10,8.5h2.8l3.8-2.8V91.4z M44.5,84.9c-1,0-3.8,0-3.8-2.3c0-2.2,1.7-2.4,3-2.4h5.9v4.6   L44.5,84.9z"/>
	<path class="st0" d="M56.3,95.1l3.6,6.7c7.7,0,10.3-0.5,13.2-8.7l10.1-28.8h-8.3l-4.8,17.3l-4.8-17.3H57c1,3.1,8.7,26.1,8.7,27.1   c0,3.9-3.7,3.9-4.9,3.9L56.3,95.1z"/>
	<path class="st0" d="M94.1,64.2c-8.7,0-12.6,4.1-12.6,13.2c0,10.9,3.4,14.4,14.1,14.4c9,0,12.6-4,12.6-13.6   C108.2,67.8,104.5,64.2,94.1,64.2 M94.6,86.2c-5.1,0-5.1-5.3-5.1-8.2c0-3.5,0.6-7.6,5.1-7.6c4.7,0,5.4,4.3,5.4,8   C100,83.6,98.3,86.2,94.6,86.2"/>
	<path class="st0" d="M126.7,91.4h7.6V76.1c0-4.7,0.1-8.1-1.8-10c-1.3-1.3-3.5-1.9-6.9-1.9l-3.9,0.1l-3.7,3.3v-3.3h-7.6v27.2h7.6   V71.2h0.3c4.1,0,6.3,0,7.4,1.2c1.1,1.1,1.1,3.1,1,7V91.4L126.7,91.4z"/>
	<path class="st0" d="M137.4,91.4h7.6V64.2h-7.6V91.4z M137.4,61.2h7.6v-6.7h-7.6V61.2z"/>
	<path class="st0" d="M159.1,64c-7.7,0-12,4.8-12,13.6c0,8.8,3,13.3,9.2,13.7c1.4,0.1,9.9,0.1,11.1,0.1l3.3-6.5   c-1.1,0-9.6,0.1-10.8,0c-2.7-0.2-4.1-1.3-5-4l-0.1-0.3h16.5c0.1-0.5,0.1-1.6,0.1-2.2V78C171.3,68.3,167.5,64,159.1,64 M163.7,75.1   h-9.1l0-0.3c0.3-3.1,2-4.7,4.8-4.7c3.2,0,4,1.9,4.3,4.7L163.7,75.1z"/>
	<path class="st0" d="M172.9,91.4h7.6V76.5c0-3.6,0.2-5.8,4.1-5.8c0.5,0,1,0,1.5,0c0.4,0,0.9,0,1.3,0l3.5-6.6h-6.7l-3.6,2.9v-2.9   h-7.6V91.4z"/>
	<path class="st0" d="M27.6,78.6c3.8-2,4.8-3.5,4.8-8c0-7.2-3.1-9.7-11.6-9.7H5.2v30.5h7.9v-11h4.2c0.7,0,2.7,0.2,3.4,1.8   c1.4,3.1,4,9,4.2,9.2h8.8C33,90.1,28.6,80.5,27.6,78.6 M19.8,74.1H13V67h6.5c3.5,0,5,0.5,5,3.6C24.5,73.5,23.3,74.1,19.8,74.1"/>
	<polygon class="st0" points="193.8,64.2 193.8,64.6 193.2,64.6 193.2,66.5 192.6,66.5 192.6,64.6 191.9,64.6 191.9,64.2  "/>
	<polygon class="st0" points="194.1,64.2 195,64.2 195.4,65.8 195.4,65.8 195.9,64.2 196.8,64.2 196.8,66.5 196.2,66.5 196.2,64.7    196.2,64.7 195.7,66.5 195.2,66.5 194.7,64.7 194.7,64.7 194.7,66.5 194.1,66.5  "/>
</g>
</svg>