<?xml version="1.0" encoding="utf-8"?>
<!-- Generator: Adobe Illustrator 16.0.0, SVG Export Plug-In . SVG Version: 6.00 Build 0)  -->
<!DOCTYPE svg PUBLIC "-//W3C//DTD SVG 1.1//EN" "http://www.w3.org/Graphics/SVG/1.1/DTD/svg11.dtd">
<svg version="1.1" id="Layer_1" xmlns="http://www.w3.org/2000/svg" xmlns:xlink="http://www.w3.org/1999/xlink" x="0px" y="0px"
	 viewBox="0 0 88.496 85.496" enable-background="new 0 0 88.496 85.496" xml:space="preserve">
<g display="none">
	<polygon display="inline" points="83.677,-171.331 83.677,-140.007 90.565,-133.119 90.565,-178.218 45.466,-178.218 
		52.354,-171.331 	"/>
	<polygon display="inline" points="-18.179,-69.736 -18.179,-101.059 -25.066,-107.947 -25.066,-62.848 20.034,-62.848 
		13.145,-69.736 	"/>
	<g display="inline">
		<g>
			<path d="M-0.257-160.176H-3.4c-0.418,0-0.76-0.138-1.025-0.416c-0.271-0.273-0.405-0.591-0.405-0.948
				c0-0.303,0.142-0.608,0.417-0.922c0.275-0.311,0.615-0.468,1.014-0.468h9.146c0.363,0,0.695,0.134,1,0.401
				c0.301,0.267,0.455,0.597,0.455,0.988c0,0.357-0.145,0.675-0.43,0.948c-0.285,0.278-0.627,0.416-1.025,0.416H2.602v14.979
				c0,0.357-0.141,0.677-0.416,0.963c-0.275,0.285-0.615,0.428-1.014,0.428s-0.736-0.143-1.013-0.428
				c-0.277-0.286-0.417-0.605-0.417-0.963V-160.176z"/>
			<path d="M14.068-144.169c-0.261,0.241-0.59,0.362-0.988,0.362c-0.397,0-0.731-0.121-1.001-0.362c-0.27-0.243-0.4-0.558-0.4-0.938
				v-16.497c0-0.347,0.128-0.654,0.389-0.924c0.26-0.27,0.588-0.401,0.986-0.401c0.4,0,0.732,0.125,1.002,0.375
				c0.267,0.252,0.401,0.567,0.401,0.95v5.171c0.398-0.279,0.841-0.496,1.323-0.652c0.486-0.154,0.998-0.232,1.535-0.232
				c1.523,0,2.646,0.411,3.365,1.234s1.078,1.884,1.078,3.183v7.794c0,0.381-0.141,0.695-0.416,0.938
				c-0.276,0.241-0.605,0.362-0.986,0.362c-0.398,0-0.732-0.121-1-0.362c-0.27-0.243-0.404-0.558-0.404-0.938v-7.896
				c0-0.625-0.154-1.105-0.467-1.444c-0.313-0.335-0.778-0.507-1.402-0.507c-0.451,0-0.916,0.095-1.39,0.286
				c-0.479,0.189-0.892,0.486-1.236,0.886v8.676C14.457-144.727,14.329-144.413,14.068-144.169z"/>
			<path d="M32.464-149.135c-0.363,0-0.737-0.013-1.118-0.037c-0.381-0.028-0.779-0.076-1.193-0.145v1.195
				c0,0.588,0.197,1.057,0.596,1.402c0.398,0.348,1.014,0.52,1.845,0.52c0.485,0,0.919-0.059,1.299-0.18
				c0.382-0.121,0.79-0.279,1.222-0.469c0.035-0.036,0.099-0.066,0.195-0.092c0.094-0.024,0.22-0.039,0.377-0.039
				c0.448,0,0.775,0.131,0.976,0.391c0.198,0.261,0.298,0.518,0.298,0.78c0,0.397-0.17,0.723-0.506,0.974
				c-0.34,0.251-0.746,0.455-1.223,0.611c-0.477,0.154-0.979,0.264-1.509,0.323c-0.526,0.06-0.981,0.093-1.362,0.093
				c-0.795,0-1.508-0.113-2.132-0.339c-0.621-0.226-1.147-0.538-1.571-0.935c-0.424-0.4-0.75-0.872-0.973-1.418
				c-0.226-0.546-0.339-1.129-0.339-1.754v-4.6c0-0.64,0.113-1.232,0.339-1.778c0.223-0.544,0.553-1.017,0.984-1.418
				c0.436-0.396,0.972-0.714,1.613-0.945c0.64-0.234,1.377-0.352,2.208-0.352c1.577,0,2.754,0.394,3.535,1.183
				c0.778,0.787,1.169,1.83,1.169,3.129c0,1.229-0.373,2.188-1.119,2.873C35.332-149.477,34.127-149.135,32.464-149.135z
				 M34.416-153.112c0-0.692-0.173-1.187-0.511-1.48c-0.336-0.294-0.826-0.443-1.469-0.443c-0.727,0-1.289,0.184-1.688,0.549
				c-0.398,0.363-0.596,0.855-0.596,1.48v1.533c0.449,0.052,0.896,0.091,1.336,0.117c0.442,0.023,0.76,0.038,0.947,0.038
				c0.746,0,1.262-0.16,1.549-0.481C34.268-152.118,34.416-152.555,34.416-153.112z"/>
		</g>
		<g>
			<path d="M-1.998-133.908c0.708,2.313,1.42,4.6,2.129,6.864c0.711,2.267,1.344,4.563,1.898,6.891
				c0.121-0.511,0.24-1.034,0.363-1.574c0.123-0.537,0.26-1.054,0.417-1.548l3.248-10.633c0.085-0.298,0.272-0.542,0.557-0.727
				c0.289-0.185,0.56-0.275,0.819-0.275c0.433,0,0.79,0.126,1.066,0.382c0.275,0.256,0.414,0.586,0.414,0.992
				c0,0.051-0.004,0.133-0.013,0.238c-0.008,0.104-0.022,0.185-0.038,0.238l-5.068,15.684c-0.155,0.477-0.361,0.859-0.621,1.15
				c-0.26,0.292-0.643,0.436-1.145,0.436s-0.879-0.15-1.13-0.447c-0.251-0.302-0.445-0.682-0.585-1.139l-5.067-15.684
				c-0.034-0.054-0.056-0.134-0.065-0.238c-0.008-0.105-0.013-0.188-0.013-0.238c0-0.406,0.147-0.736,0.442-0.992
				s0.64-0.382,1.038-0.382c0.243,0,0.503,0.091,0.78,0.275C-2.292-134.45-2.101-134.206-1.998-133.908z"/>
			<path d="M16.718-121.117c-0.364,0-0.737-0.011-1.118-0.039c-0.381-0.024-0.779-0.072-1.193-0.143v1.196
				c0,0.588,0.197,1.056,0.596,1.402s1.014,0.521,1.845,0.521c0.485,0,0.919-0.063,1.3-0.182c0.381-0.122,0.787-0.279,1.222-0.471
				c0.034-0.032,0.101-0.064,0.194-0.089c0.094-0.027,0.221-0.039,0.377-0.039c0.448,0,0.774,0.128,0.976,0.389
				c0.197,0.26,0.298,0.521,0.298,0.781c0,0.397-0.166,0.723-0.507,0.975c-0.337,0.248-0.745,0.454-1.222,0.61
				c-0.477,0.155-0.979,0.263-1.508,0.323c-0.527,0.062-0.982,0.092-1.363,0.092c-0.799,0-1.506-0.112-2.132-0.338
				c-0.624-0.225-1.146-0.537-1.571-0.936c-0.424-0.397-0.75-0.87-0.975-1.417c-0.224-0.546-0.337-1.13-0.337-1.752v-4.601
				c0-0.641,0.113-1.235,0.337-1.779c0.225-0.545,0.556-1.017,0.988-1.416c0.432-0.398,0.971-0.714,1.611-0.947
				c0.639-0.235,1.377-0.352,2.208-0.352c1.577,0,2.754,0.395,3.534,1.183c0.778,0.787,1.168,1.831,1.168,3.13
				c0,1.23-0.371,2.187-1.117,2.872C19.585-121.458,18.381-121.117,16.718-121.117z M18.668-125.092c0-0.693-0.17-1.186-0.508-1.482
				c-0.338-0.293-0.828-0.44-1.467-0.44c-0.729,0-1.293,0.182-1.691,0.546c-0.398,0.363-0.596,0.857-0.596,1.48v1.534
				c0.45,0.054,0.896,0.091,1.336,0.116c0.442,0.026,0.76,0.039,0.951,0.039c0.742,0,1.258-0.158,1.546-0.482
				C18.525-124.101,18.668-124.538,18.668-125.092z"/>
			<path d="M28.62-115.79c-0.208,0-0.434-0.03-0.677-0.092c-0.243-0.061-0.464-0.191-0.663-0.391
				c-0.197-0.202-0.367-0.496-0.506-0.878c-0.139-0.383-0.208-0.89-0.208-1.516v-14.939c0-0.347,0.134-0.654,0.403-0.916
				c0.266-0.261,0.601-0.391,1-0.391c0.398,0,0.731,0.127,1,0.38c0.268,0.254,0.402,0.56,0.402,0.927v14.78
				c0,0.279,0.02,0.493,0.054,0.643c0.034,0.147,0.138,0.316,0.311,0.508c0.086,0.088,0.165,0.181,0.235,0.276
				c0.065,0.094,0.104,0.238,0.104,0.43c0,0.367-0.133,0.655-0.389,0.862C29.425-115.895,29.071-115.79,28.62-115.79z"/>
			<path d="M44.676-126.87c-0.571,1.621-1.127,3.229-1.663,4.834c-0.536,1.602-1.082,3.223-1.638,4.86
				c-0.172,0.505-0.389,0.862-0.648,1.069c-0.261,0.211-0.605,0.316-1.039,0.316c-0.469,0-0.828-0.105-1.078-0.316
				c-0.252-0.207-0.463-0.555-0.637-1.043c-0.553-1.637-1.113-3.267-1.676-4.887s-1.123-3.248-1.676-4.885l-0.287-1.021
				c0-0.036-0.004-0.062-0.013-0.077c-0.01-0.019-0.013-0.044-0.013-0.078c0-0.349,0.147-0.642,0.44-0.878
				c0.294-0.232,0.616-0.352,0.962-0.352c0.26,0,0.52,0.078,0.78,0.235c0.259,0.157,0.433,0.384,0.521,0.681
				c0.242,0.782,0.483,1.559,0.729,2.326c0.24,0.767,0.482,1.541,0.728,2.325c0.241,0.784,0.452,1.553,0.634,2.313
				c0.182,0.756,0.377,1.526,0.586,2.311c0.191-0.784,0.373-1.555,0.547-2.311c0.172-0.761,0.379-1.529,0.623-2.313
				c0.242-0.784,0.48-1.559,0.713-2.325c0.234-0.768,0.472-1.544,0.715-2.326c0.088-0.262,0.256-0.474,0.506-0.64
				c0.253-0.167,0.517-0.25,0.793-0.25c0.363,0,0.68,0.118,0.949,0.353c0.268,0.236,0.402,0.537,0.402,0.9v0.157L44.676-126.87z"/>
			<path d="M54.343-121.117c-0.364,0-0.737-0.011-1.118-0.039c-0.381-0.024-0.778-0.072-1.193-0.143v1.196
				c0,0.588,0.197,1.056,0.596,1.402s1.013,0.521,1.844,0.521c0.486,0,0.92-0.063,1.299-0.182c0.383-0.122,0.791-0.279,1.224-0.471
				c0.034-0.032,0.099-0.064,0.196-0.089c0.092-0.027,0.217-0.039,0.375-0.039c0.451,0,0.773,0.128,0.975,0.389
				c0.197,0.26,0.299,0.521,0.299,0.781c0,0.397-0.17,0.723-0.506,0.975c-0.338,0.248-0.746,0.454-1.223,0.61
				c-0.477,0.155-0.978,0.263-1.506,0.323c-0.53,0.062-0.985,0.092-1.364,0.092c-0.797,0-1.509-0.112-2.132-0.338
				c-0.623-0.225-1.146-0.537-1.572-0.936c-0.424-0.397-0.75-0.87-0.973-1.417c-0.227-0.546-0.339-1.13-0.339-1.752v-4.601
				c0-0.641,0.112-1.235,0.339-1.779c0.223-0.545,0.553-1.017,0.988-1.416c0.43-0.398,0.967-0.714,1.608-0.947
				c0.642-0.235,1.377-0.352,2.208-0.352c1.578,0,2.754,0.395,3.532,1.183c0.781,0.787,1.17,1.831,1.17,3.13
				c0,1.23-0.37,2.187-1.116,2.872C57.209-121.458,56.005-121.117,54.343-121.117z M56.292-125.092c0-0.693-0.17-1.186-0.506-1.482
				c-0.338-0.293-0.828-0.44-1.468-0.44c-0.728,0-1.292,0.182-1.69,0.546c-0.398,0.363-0.596,0.857-0.596,1.48v1.534
				c0.447,0.054,0.896,0.091,1.336,0.116c0.442,0.026,0.759,0.039,0.95,0.039c0.743,0,1.258-0.158,1.546-0.482
				C56.149-124.101,56.292-124.538,56.292-125.092z"/>
			<path d="M63.549-133.467c0-0.404,0.121-0.746,0.362-1.025c0.243-0.279,0.589-0.417,1.04-0.417s0.795,0.144,1.041,0.429
				c0.242,0.293,0.363,0.628,0.363,1.014v3.582h2.313c0.363,0,0.674,0.133,0.935,0.404c0.257,0.269,0.389,0.605,0.389,1.011
				c0,0.386-0.132,0.714-0.389,0.983c-0.261,0.268-0.571,0.404-0.935,0.404h-2.313v5.055c0,0.636,0.016,1.175,0.051,1.619
				c0.035,0.44,0.116,0.798,0.248,1.066c0.129,0.27,0.305,0.467,0.531,0.593c0.225,0.125,0.537,0.188,0.937,0.188
				c0.085,0,0.173-0.006,0.259-0.017c0.086-0.009,0.156-0.014,0.209-0.014c0.553,0,0.981,0.093,1.285,0.276
				c0.303,0.182,0.453,0.525,0.453,1.023c0,0.33-0.057,0.593-0.168,0.795c-0.112,0.201-0.263,0.356-0.454,0.463
				c-0.191,0.105-0.401,0.173-0.637,0.201c-0.233,0.028-0.479,0.043-0.74,0.043c-0.954,0-1.737-0.129-2.353-0.389
				s-1.104-0.643-1.468-1.141c-0.364-0.501-0.614-1.131-0.753-1.893c-0.139-0.76-0.207-1.634-0.207-2.614V-133.467z"/>
		</g>
		<g>
			<path d="M6.342-95.918c-0.207-0.896-0.393-1.8-0.559-2.709c-0.163-0.908-0.342-1.82-0.533-2.737
				c-0.398,2.028-0.822,4.038-1.273,6.028c-0.45,1.995-0.9,4.003-1.349,6.032c-0.106,0.353-0.288,0.694-0.549,1.03
				c-0.257,0.336-0.665,0.502-1.218,0.502c-0.451,0-0.837-0.158-1.156-0.474c-0.324-0.318-0.527-0.679-0.612-1.085
				c-0.676-2.717-1.339-5.417-1.989-8.105c-0.648-2.689-1.295-5.393-1.935-8.108c0-0.406,0.169-0.718,0.508-0.938
				c0.336-0.219,0.687-0.332,1.051-0.332c0.295,0,0.567,0.086,0.819,0.253c0.25,0.167,0.42,0.428,0.508,0.779
				c0.295,1.253,0.586,2.495,0.881,3.728c0.295,1.238,0.59,2.473,0.885,3.706c0.207,0.862,0.389,1.731,0.546,2.605
				c0.155,0.87,0.329,1.741,0.521,2.603c0.189-0.898,0.367-1.82,0.53-2.763c0.167-0.94,0.36-1.872,0.587-2.79l1.533-6.452
				c0.139-0.566,0.314-0.996,0.532-1.296c0.216-0.301,0.61-0.451,1.181-0.451c0.555,0,0.944,0.16,1.17,0.477
				c0.225,0.316,0.408,0.74,0.546,1.271l1.506,6.452c0.21,0.935,0.396,1.865,0.56,2.79c0.164,0.927,0.35,1.857,0.561,2.792
				c0.191-0.882,0.367-1.756,0.533-2.619c0.162-0.866,0.348-1.738,0.557-2.618l1.742-7.405c0.084-0.334,0.248-0.596,0.48-0.781
				s0.498-0.279,0.791-0.279c0.365,0,0.729,0.103,1.09,0.307c0.365,0.201,0.548,0.534,0.548,0.992c0,0.034,0,0.073,0,0.119
				c0,0.044-0.017,0.108-0.052,0.197l-3.871,15.869c-0.122,0.406-0.322,0.767-0.6,1.085c-0.275,0.315-0.667,0.474-1.169,0.474
				s-0.9-0.161-1.195-0.488c-0.293-0.324-0.484-0.691-0.571-1.096L6.342-95.918z"/>
			<path d="M25.137-96.622c0-1.528-0.797-2.292-2.392-2.292c-0.347,0-0.632,0.034-0.858,0.104c-0.226,0.069-0.448,0.147-0.674,0.235
				l-0.494,0.207c-0.174,0.088-0.398,0.132-0.676,0.132c-0.381,0-0.652-0.122-0.818-0.366c-0.164-0.24-0.245-0.503-0.245-0.779
				c0-0.348,0.112-0.643,0.337-0.887c0.225-0.242,0.527-0.441,0.908-0.598c0.381-0.157,0.816-0.269,1.302-0.338
				c0.483-0.071,0.978-0.106,1.479-0.106c1.768,0,3.031,0.452,3.793,1.355c0.763,0.903,1.144,2.222,1.144,3.958v5.284
				c0,0.331,0.062,0.541,0.184,0.637c0.119,0.097,0.276,0.161,0.466,0.196c0.521,0.104,0.779,0.415,0.779,0.936
				c0,0.732-0.512,1.094-1.532,1.094c-0.901,0-1.595-0.389-2.081-1.17c-0.968,0.833-2.146,1.248-3.531,1.248
				c-1.422,0-2.491-0.365-3.209-1.092c-0.719-0.73-1.08-1.701-1.08-2.917v-0.076c0-2.621,1.621-3.933,4.859-3.933
				c0.797,0,1.578,0.104,2.34,0.311V-96.622z M22.875-93.653c-0.449,0-0.818,0.047-1.104,0.141
				c-0.285,0.096-0.506,0.227-0.662,0.391c-0.156,0.165-0.261,0.362-0.314,0.586c-0.049,0.227-0.076,0.461-0.076,0.705v0.076
				c0,0.52,0.145,0.926,0.428,1.213c0.287,0.285,0.794,0.427,1.521,0.427c0.449,0,0.875-0.067,1.273-0.208
				c0.398-0.137,0.797-0.373,1.195-0.702v-2.343c-0.383-0.088-0.771-0.155-1.17-0.209C23.569-93.628,23.206-93.653,22.875-93.653z"
				/>
			<path d="M36.389-87.772c-0.211,0-0.434-0.029-0.678-0.09c-0.242-0.061-0.461-0.192-0.662-0.394
				c-0.197-0.2-0.367-0.492-0.508-0.875c-0.139-0.382-0.207-0.891-0.207-1.518v-14.937c0-0.349,0.135-0.654,0.404-0.915
				c0.267-0.262,0.601-0.394,0.999-0.394c0.399,0,0.732,0.129,1.002,0.38c0.267,0.252,0.401,0.562,0.401,0.929v14.781
				c0,0.277,0.016,0.492,0.053,0.639c0.032,0.148,0.139,0.317,0.312,0.511c0.087,0.087,0.163,0.181,0.235,0.272
				c0.067,0.098,0.104,0.244,0.104,0.435c0,0.366-0.133,0.651-0.393,0.864C37.194-87.875,36.836-87.772,36.389-87.772z"/>
			<path d="M46.183-96.535l3.74-4c0.176-0.193,0.366-0.364,0.574-0.512c0.207-0.147,0.458-0.223,0.753-0.223
				c0.381,0,0.702,0.116,0.963,0.354c0.257,0.233,0.389,0.527,0.389,0.875c0,0.352-0.123,0.646-0.363,0.89l-3.511,3.661
				c0.693,0.979,1.384,1.947,2.067,2.905c0.684,0.96,1.364,1.926,2.039,2.903c0.088,0.104,0.148,0.231,0.186,0.379
				c0.032,0.149,0.049,0.284,0.049,0.406c-0.033,0.349-0.178,0.625-0.43,0.822c-0.25,0.2-0.559,0.301-0.922,0.301
				c-0.207,0-0.376-0.018-0.505-0.052c-0.128-0.034-0.247-0.096-0.352-0.184c-0.103-0.086-0.204-0.199-0.298-0.339
				c-0.098-0.139-0.213-0.313-0.352-0.525l-3.431-4.969c-0.104,0.09-0.204,0.188-0.298,0.302c-0.095,0.114-0.195,0.214-0.3,0.302
				v3.583c0,0.489-0.099,0.924-0.298,1.308c-0.199,0.383-0.568,0.574-1.104,0.574c-0.399,0-0.732-0.121-1.001-0.367
				c-0.268-0.241-0.402-0.555-0.402-0.938v-15.826c0-0.262,0.018-0.513,0.053-0.748c0.031-0.235,0.104-0.445,0.207-0.627
				c0.104-0.186,0.244-0.328,0.428-0.43c0.184-0.107,0.421-0.157,0.716-0.157c0.396,0,0.732,0.124,0.999,0.376
				c0.27,0.254,0.403,0.563,0.403,0.929V-96.535z"/>
		</g>
	</g>
</g>
<g>
	<rect x="-80.534" y="-28.884" display="none" fill="#3A2166" width="252" height="144"/>
	<g>
		<polygon fill="#FBCA6D" points="77.177,11.486 77.177,30.99 81.466,35.279 81.466,7.197 53.384,7.197 57.673,11.486 		"/>
		<polygon fill="#FBCA6D" points="13.754,74.746 13.754,55.242 9.466,50.953 9.466,79.035 37.548,79.035 33.259,74.746 		"/>
		<g>
			<g>
				<path fill="#FBCA6D" d="M24.914,18.431h-1.957c-0.26,0-0.473-0.086-0.639-0.259c-0.168-0.171-0.252-0.368-0.252-0.591
					c0-0.188,0.088-0.379,0.26-0.574c0.172-0.193,0.383-0.291,0.631-0.291h5.695c0.227,0,0.434,0.083,0.623,0.25
					c0.188,0.166,0.283,0.371,0.283,0.615c0,0.223-0.09,0.42-0.268,0.591c-0.178,0.173-0.391,0.259-0.639,0.259h-1.958v9.326
					c0,0.223-0.087,0.422-0.259,0.6s-0.383,0.267-0.631,0.267s-0.459-0.089-0.631-0.267c-0.173-0.178-0.26-0.377-0.26-0.6V18.431z"
					/>
				<path fill="#FBCA6D" d="M33.833,28.398c-0.162,0.15-0.367,0.226-0.615,0.226s-0.456-0.075-0.623-0.226
					c-0.168-0.151-0.25-0.347-0.25-0.584V17.542c0-0.216,0.08-0.407,0.242-0.575s0.366-0.25,0.614-0.25
					c0.249,0,0.456,0.078,0.624,0.233c0.166,0.157,0.25,0.354,0.25,0.592v3.22c0.248-0.174,0.523-0.309,0.824-0.406
					c0.303-0.096,0.621-0.145,0.955-0.145c0.949,0,1.648,0.256,2.096,0.769s0.672,1.173,0.672,1.981v4.854
					c0,0.237-0.088,0.433-0.26,0.584c-0.172,0.15-0.377,0.226-0.614,0.226c-0.248,0-0.456-0.075-0.622-0.226
					c-0.168-0.151-0.252-0.347-0.252-0.584v-4.917c0-0.39-0.096-0.688-0.291-0.899c-0.194-0.209-0.484-0.315-0.873-0.315
					c-0.281,0-0.57,0.059-0.865,0.178c-0.298,0.118-0.555,0.303-0.77,0.552v5.402C34.076,28.051,33.996,28.247,33.833,28.398z"/>
				<path fill="#FBCA6D" d="M45.289,25.306c-0.227,0-0.459-0.008-0.696-0.023c-0.237-0.018-0.485-0.047-0.743-0.09v0.744
					c0,0.366,0.123,0.658,0.371,0.873c0.248,0.217,0.631,0.324,1.148,0.324c0.303,0,0.572-0.037,0.809-0.112
					c0.238-0.075,0.492-0.174,0.761-0.292c0.022-0.022,0.062-0.041,0.122-0.057c0.059-0.016,0.137-0.024,0.234-0.024
					c0.279,0,0.482,0.081,0.607,0.243c0.123,0.162,0.186,0.322,0.186,0.485c0,0.248-0.105,0.45-0.315,0.606
					c-0.211,0.156-0.464,0.283-0.761,0.381c-0.297,0.096-0.609,0.164-0.939,0.201c-0.328,0.037-0.611,0.058-0.849,0.058
					c-0.495,0-0.938-0.07-1.327-0.211c-0.387-0.141-0.715-0.335-0.979-0.582c-0.264-0.249-0.467-0.543-0.605-0.883
					c-0.141-0.34-0.211-0.703-0.211-1.092v-2.864c0-0.398,0.07-0.768,0.211-1.107c0.139-0.339,0.344-0.633,0.613-0.883
					c0.271-0.246,0.604-0.444,1.004-0.589c0.398-0.146,0.857-0.219,1.375-0.219c0.982,0,1.715,0.245,2.201,0.736
					c0.484,0.49,0.729,1.14,0.729,1.948c0,0.766-0.232,1.362-0.697,1.789C47.074,25.093,46.324,25.306,45.289,25.306z M46.503,22.83
					c0-0.431-0.107-0.738-0.318-0.922c-0.209-0.183-0.514-0.275-0.914-0.275c-0.452,0-0.803,0.114-1.051,0.342
					c-0.248,0.226-0.371,0.532-0.371,0.922v0.954c0.279,0.032,0.558,0.057,0.832,0.073c0.275,0.015,0.473,0.023,0.59,0.023
					c0.465,0,0.785-0.1,0.964-0.3C46.412,23.449,46.503,23.176,46.503,22.83z"/>
			</g>
			<g>
				<path fill="#FBCA6D" d="M23.83,34.788c0.441,1.44,0.885,2.864,1.326,4.274c0.442,1.411,0.837,2.841,1.182,4.29
					c0.076-0.317,0.15-0.644,0.227-0.979c0.076-0.335,0.162-0.656,0.26-0.964l2.022-6.621c0.053-0.186,0.17-0.337,0.347-0.452
					c0.18-0.115,0.349-0.172,0.51-0.172c0.27,0,0.492,0.079,0.664,0.238s0.258,0.364,0.258,0.617c0,0.032-0.002,0.083-0.008,0.148
					c-0.005,0.065-0.014,0.115-0.023,0.148l-3.156,9.766c-0.097,0.297-0.225,0.535-0.387,0.717s-0.4,0.271-0.713,0.271
					s-0.547-0.094-0.703-0.279c-0.156-0.188-0.277-0.424-0.364-0.709l-3.155-9.766c-0.021-0.033-0.035-0.083-0.041-0.148
					c-0.005-0.065-0.008-0.116-0.008-0.148c0-0.253,0.092-0.458,0.275-0.617s0.398-0.238,0.646-0.238
					c0.151,0,0.313,0.057,0.486,0.172S23.765,34.602,23.83,34.788z"/>
				<path fill="#FBCA6D" d="M35.484,42.752c-0.227,0-0.459-0.007-0.696-0.024c-0.237-0.016-0.485-0.045-0.743-0.089v0.745
					c0,0.366,0.123,0.657,0.371,0.873s0.631,0.324,1.148,0.324c0.303,0,0.572-0.039,0.81-0.113c0.237-0.076,0.49-0.174,0.761-0.293
					c0.021-0.021,0.063-0.04,0.121-0.056c0.059-0.017,0.138-0.024,0.234-0.024c0.279,0,0.482,0.08,0.607,0.242
					c0.123,0.162,0.186,0.324,0.186,0.486c0,0.248-0.104,0.45-0.315,0.607c-0.21,0.154-0.464,0.282-0.761,0.38
					c-0.297,0.097-0.609,0.163-0.938,0.201s-0.612,0.058-0.85,0.058c-0.497,0-0.938-0.07-1.327-0.211
					c-0.389-0.14-0.713-0.334-0.979-0.582c-0.264-0.248-0.467-0.542-0.606-0.883c-0.14-0.34-0.21-0.703-0.21-1.091v-2.864
					c0-0.399,0.07-0.77,0.21-1.108s0.346-0.633,0.615-0.882c0.269-0.248,0.604-0.444,1.003-0.59
					c0.398-0.146,0.857-0.219,1.375-0.219c0.982,0,1.715,0.246,2.201,0.736c0.484,0.49,0.727,1.141,0.727,1.949
					c0,0.766-0.23,1.361-0.695,1.788C37.269,42.54,36.519,42.752,35.484,42.752z M36.698,40.277c0-0.432-0.105-0.738-0.315-0.923
					c-0.211-0.183-0.516-0.274-0.914-0.274c-0.453,0-0.805,0.113-1.053,0.34s-0.371,0.534-0.371,0.922v0.955
					c0.28,0.033,0.559,0.057,0.832,0.072c0.275,0.017,0.473,0.024,0.592,0.024c0.463,0,0.783-0.099,0.963-0.3
					C36.609,40.894,36.698,40.623,36.698,40.277z"/>
				<path fill="#FBCA6D" d="M42.894,46.07c-0.129,0-0.27-0.02-0.421-0.058s-0.289-0.119-0.413-0.243
					c-0.123-0.126-0.229-0.309-0.314-0.547c-0.087-0.238-0.13-0.554-0.13-0.943v-9.303c0-0.216,0.083-0.407,0.251-0.57
					c0.166-0.162,0.374-0.243,0.623-0.243c0.248,0,0.455,0.079,0.622,0.236c0.167,0.158,0.251,0.349,0.251,0.577v9.203
					c0,0.174,0.012,0.308,0.033,0.4c0.021,0.092,0.086,0.197,0.193,0.316c0.054,0.055,0.103,0.112,0.146,0.172
					c0.041,0.059,0.064,0.148,0.064,0.268c0,0.229-0.082,0.408-0.242,0.537C43.396,46.003,43.175,46.07,42.894,46.07z"/>
				<path fill="#FBCA6D" d="M52.892,39.17c-0.355,1.009-0.701,2.011-1.035,3.01c-0.334,0.997-0.674,2.007-1.02,3.026
					c-0.107,0.314-0.242,0.537-0.404,0.666c-0.162,0.131-0.377,0.197-0.646,0.197c-0.292,0-0.516-0.066-0.672-0.197
					c-0.156-0.129-0.288-0.346-0.396-0.649c-0.344-1.02-0.693-2.034-1.043-3.043c-0.351-1.009-0.699-2.022-1.044-3.042l-0.179-0.636
					c0-0.022-0.002-0.038-0.008-0.048c-0.006-0.012-0.008-0.027-0.008-0.049c0-0.217,0.092-0.399,0.274-0.547
					c0.183-0.145,0.384-0.219,0.599-0.219c0.162,0,0.324,0.049,0.486,0.146c0.161,0.098,0.27,0.239,0.324,0.424
					c0.15,0.487,0.301,0.971,0.453,1.448c0.149,0.478,0.301,0.96,0.453,1.448c0.15,0.488,0.281,0.967,0.395,1.44
					c0.113,0.471,0.234,0.95,0.365,1.438c0.119-0.488,0.232-0.968,0.34-1.438c0.107-0.474,0.236-0.952,0.389-1.44
					c0.15-0.488,0.299-0.971,0.443-1.448c0.146-0.478,0.294-0.961,0.445-1.448c0.055-0.163,0.159-0.295,0.315-0.398
					c0.157-0.104,0.321-0.155,0.493-0.155c0.227,0,0.424,0.073,0.592,0.22c0.166,0.146,0.25,0.334,0.25,0.561v0.098L52.892,39.17z"
					/>
				<path fill="#FBCA6D" d="M58.912,42.752c-0.227,0-0.459-0.007-0.696-0.024c-0.237-0.016-0.484-0.045-0.743-0.089v0.745
					c0,0.366,0.123,0.657,0.371,0.873s0.631,0.324,1.148,0.324c0.303,0,0.572-0.039,0.809-0.113
					c0.238-0.076,0.492-0.174,0.762-0.293c0.021-0.021,0.062-0.04,0.122-0.056c0.058-0.017,0.136-0.024,0.233-0.024
					c0.281,0,0.482,0.08,0.607,0.242c0.123,0.162,0.186,0.324,0.186,0.486c0,0.248-0.105,0.45-0.314,0.607
					c-0.211,0.154-0.465,0.282-0.762,0.38c-0.297,0.097-0.608,0.163-0.938,0.201c-0.33,0.038-0.613,0.058-0.85,0.058
					c-0.496,0-0.939-0.07-1.327-0.211c-0.388-0.14-0.714-0.334-0.979-0.582c-0.264-0.248-0.467-0.542-0.605-0.883
					c-0.141-0.34-0.211-0.703-0.211-1.091v-2.864c0-0.399,0.07-0.77,0.211-1.108c0.139-0.339,0.345-0.633,0.615-0.882
					c0.268-0.248,0.603-0.444,1.002-0.59c0.399-0.146,0.857-0.219,1.375-0.219c0.982,0,1.715,0.246,2.199,0.736
					c0.486,0.49,0.729,1.141,0.729,1.949c0,0.766-0.23,1.361-0.695,1.788C60.697,42.54,59.947,42.752,58.912,42.752z M60.125,40.277
					c0-0.432-0.105-0.738-0.314-0.923c-0.211-0.183-0.516-0.274-0.914-0.274c-0.453,0-0.805,0.113-1.053,0.34
					s-0.371,0.534-0.371,0.922v0.955c0.279,0.033,0.559,0.057,0.832,0.072c0.275,0.017,0.473,0.024,0.592,0.024
					c0.463,0,0.783-0.099,0.963-0.3C60.037,40.894,60.125,40.623,60.125,40.277z"/>
				<path fill="#FBCA6D" d="M64.644,35.062c0-0.252,0.075-0.465,0.226-0.639c0.151-0.174,0.367-0.26,0.647-0.26
					c0.281,0,0.495,0.09,0.648,0.268c0.15,0.182,0.227,0.391,0.227,0.631v2.23h1.439c0.227,0,0.42,0.083,0.582,0.252
					c0.16,0.167,0.242,0.377,0.242,0.629c0,0.24-0.082,0.444-0.242,0.612c-0.162,0.167-0.355,0.252-0.582,0.252h-1.439v3.147
					c0,0.396,0.01,0.731,0.031,1.008c0.021,0.274,0.072,0.497,0.154,0.664c0.08,0.168,0.19,0.291,0.331,0.369
					c0.14,0.078,0.334,0.117,0.583,0.117c0.053,0,0.107-0.003,0.161-0.01c0.054-0.006,0.098-0.009,0.13-0.009
					c0.345,0,0.611,0.058,0.801,0.172c0.188,0.113,0.282,0.327,0.282,0.638c0,0.205-0.035,0.369-0.104,0.495
					c-0.07,0.125-0.164,0.222-0.283,0.288c-0.119,0.065-0.25,0.107-0.396,0.125c-0.146,0.018-0.299,0.027-0.461,0.027
					c-0.594,0-1.082-0.081-1.465-0.242c-0.383-0.162-0.688-0.4-0.914-0.711c-0.227-0.312-0.383-0.704-0.469-1.178
					s-0.129-1.018-0.129-1.628V35.062z"/>
			</g>
			<g>
				<path fill="#FBCA6D" d="M29.023,58.443c-0.129-0.559-0.244-1.121-0.348-1.688c-0.102-0.565-0.213-1.133-0.332-1.704
					c-0.248,1.263-0.512,2.515-0.793,3.754c-0.28,1.242-0.561,2.492-0.84,3.756c-0.066,0.22-0.18,0.433-0.342,0.642
					c-0.16,0.209-0.414,0.313-0.758,0.313c-0.281,0-0.521-0.099-0.721-0.295c-0.201-0.198-0.328-0.423-0.381-0.676
					c-0.421-1.691-0.834-3.373-1.238-5.047c-0.404-1.675-0.807-3.357-1.205-5.049c0-0.253,0.105-0.447,0.316-0.584
					c0.209-0.137,0.428-0.207,0.654-0.207c0.184,0,0.354,0.054,0.51,0.157c0.156,0.104,0.262,0.267,0.316,0.485
					c0.184,0.78,0.365,1.554,0.549,2.321c0.184,0.771,0.367,1.539,0.551,2.308c0.129,0.537,0.242,1.078,0.34,1.622
					c0.097,0.542,0.205,1.084,0.324,1.621c0.118-0.56,0.229-1.134,0.33-1.721c0.104-0.586,0.225-1.166,0.365-1.737l0.955-4.018
					c0.086-0.353,0.195-0.62,0.331-0.807c0.135-0.188,0.38-0.281,0.735-0.281c0.346,0,0.588,0.1,0.729,0.297
					c0.14,0.197,0.254,0.461,0.34,0.791l0.938,4.018c0.131,0.582,0.246,1.161,0.349,1.737c0.103,0.577,0.218,1.156,0.349,1.738
					c0.119-0.549,0.229-1.093,0.332-1.631c0.102-0.539,0.217-1.082,0.347-1.63l1.085-4.611c0.053-0.208,0.154-0.371,0.299-0.486
					c0.146-0.115,0.311-0.174,0.493-0.174c0.228,0,0.454,0.063,0.679,0.19c0.228,0.126,0.341,0.333,0.341,0.618
					c0,0.021,0,0.046,0,0.074c0,0.027-0.011,0.067-0.032,0.123l-2.41,9.881c-0.076,0.253-0.201,0.478-0.374,0.676
					c-0.171,0.196-0.415,0.295-0.728,0.295s-0.561-0.101-0.744-0.304c-0.183-0.202-0.302-0.431-0.355-0.683L29.023,58.443z"/>
				<path fill="#FBCA6D" d="M40.726,58.004c0-0.951-0.496-1.427-1.489-1.427c-0.216,0-0.394,0.021-0.534,0.064
					s-0.279,0.092-0.42,0.146l-0.308,0.129C37.867,56.972,37.727,57,37.554,57c-0.237,0-0.406-0.076-0.51-0.228
					c-0.102-0.15-0.152-0.313-0.152-0.485c0-0.217,0.07-0.4,0.21-0.553c0.14-0.15,0.328-0.274,0.565-0.372s0.508-0.167,0.811-0.21
					c0.301-0.045,0.608-0.066,0.921-0.066c1.101,0,1.888,0.281,2.362,0.844s0.712,1.384,0.712,2.465v3.29
					c0,0.206,0.038,0.337,0.114,0.396c0.074,0.061,0.172,0.101,0.29,0.122c0.324,0.064,0.485,0.259,0.485,0.583
					c0,0.456-0.318,0.681-0.954,0.681c-0.562,0-0.993-0.242-1.296-0.729c-0.603,0.519-1.336,0.777-2.199,0.777
					c-0.885,0-1.551-0.228-1.998-0.68c-0.447-0.455-0.672-1.06-0.672-1.816v-0.048c0-1.632,1.009-2.448,3.025-2.448
					c0.496,0,0.982,0.064,1.457,0.193V58.004z M39.318,59.853c-0.28,0-0.51,0.029-0.688,0.088c-0.178,0.06-0.314,0.141-0.412,0.243
					s-0.162,0.226-0.195,0.365c-0.031,0.141-0.048,0.286-0.048,0.438v0.048c0,0.323,0.09,0.576,0.267,0.755
					c0.179,0.178,0.494,0.266,0.947,0.266c0.279,0,0.545-0.042,0.793-0.129c0.248-0.086,0.496-0.232,0.744-0.438v-1.459
					c-0.238-0.055-0.48-0.097-0.729-0.13C39.75,59.869,39.523,59.853,39.318,59.853z"/>
				<path fill="#FBCA6D" d="M47.732,63.515c-0.131,0-0.27-0.019-0.422-0.056c-0.15-0.038-0.287-0.12-0.412-0.245
					c-0.123-0.125-0.229-0.307-0.316-0.545c-0.086-0.238-0.129-0.555-0.129-0.945v-9.301c0-0.217,0.084-0.407,0.252-0.569
					c0.166-0.163,0.374-0.245,0.622-0.245c0.249,0,0.456,0.08,0.624,0.236c0.166,0.157,0.25,0.35,0.25,0.578v9.204
					c0,0.173,0.01,0.307,0.033,0.397c0.02,0.093,0.086,0.198,0.193,0.318c0.055,0.054,0.102,0.112,0.146,0.17
					c0.042,0.061,0.064,0.151,0.064,0.271c0,0.228-0.082,0.405-0.244,0.538C48.234,63.451,48.011,63.515,47.732,63.515z"/>
				<path fill="#FBCA6D" d="M53.831,58.059l2.329-2.491c0.109-0.12,0.229-0.227,0.357-0.318s0.285-0.139,0.469-0.139
					c0.237,0,0.438,0.072,0.6,0.221c0.16,0.146,0.242,0.328,0.242,0.545c0,0.219-0.076,0.402-0.227,0.554l-2.186,2.28
					c0.432,0.609,0.861,1.212,1.287,1.809c0.426,0.598,0.85,1.199,1.27,1.808c0.055,0.064,0.093,0.145,0.115,0.236
					c0.021,0.093,0.031,0.177,0.031,0.253c-0.021,0.217-0.111,0.389-0.268,0.512c-0.156,0.125-0.348,0.188-0.574,0.188
					c-0.129,0-0.234-0.011-0.314-0.032s-0.154-0.06-0.219-0.114c-0.064-0.054-0.127-0.124-0.186-0.211
					c-0.061-0.087-0.133-0.195-0.219-0.327l-2.137-3.094c-0.064,0.056-0.127,0.117-0.186,0.188
					c-0.059,0.071-0.121,0.133-0.187,0.188v2.231c0,0.305-0.062,0.575-0.186,0.814c-0.124,0.238-0.354,0.357-0.688,0.357
					c-0.249,0-0.456-0.075-0.623-0.229c-0.167-0.15-0.251-0.346-0.251-0.584v-9.854c0-0.163,0.012-0.319,0.033-0.466
					c0.02-0.146,0.064-0.277,0.129-0.391c0.064-0.115,0.152-0.204,0.267-0.268c0.114-0.066,0.262-0.098,0.445-0.098
					c0.247,0,0.456,0.077,0.622,0.234c0.168,0.158,0.251,0.351,0.251,0.578V58.059z"/>
			</g>
		</g>
	</g>
	
		<text transform="matrix(0 -0.583 0.583 0 153.7808 77.4063)" display="none" fill="#FFFFFF" font-family="'BloggerSans-Light'" font-size="12">enhance your image</text>
</g>
<g display="none">
	<rect x="-191.598" y="158.245" display="inline" fill="#FFFFFF" width="464.284" height="358.765"/>
	<g display="inline">
		<rect x="-191.598" y="158.245" fill="#1C004D" width="232.143" height="77.413"/>
		<rect x="-191.598" y="235.658" fill="#3A2166" width="77.381" height="203.938"/>
		<rect x="-114.217" y="235.658" fill="#5E35A6" width="77.381" height="203.938"/>
		<rect x="-36.836" y="235.658" fill="#DBCAFF" width="77.381" height="203.938"/>
		<rect x="40.544" y="158.245" fill="#FBCA6D" width="232.142" height="77.413"/>
		<g opacity="0.5">
			<rect x="40.544" y="235.658" fill="#FBCA6D" width="77.38" height="203.938"/>
		</g>
		<g opacity="0.25">
			<rect x="117.924" y="235.658" fill="#FBCA6D" width="77.381" height="203.938"/>
		</g>
		<g opacity="0.1">
			<rect x="195.305" y="235.658" fill="#FBCA6D" width="77.381" height="203.938"/>
		</g>
		<g>
			<rect x="-191.598" y="158.245" fill="#1C004D" width="232.143" height="77.413"/>
			<text transform="matrix(1 0 0 1 -110.6919 202.7891)" fill="#FFFFFF" font-family="'Bariol'" font-size="19.6074">#1c004d</text>
		</g>
		<g>
			<rect x="-191.614" y="439.597" fill="#EBEBEB" width="464.3" height="77.413"/>
			<g>
				<g>
					<text transform="matrix(1 0 0 1 5.3784 484.1416)" fill="#C6C6C6" font-family="'Bariol'" font-size="19.6074">#ebebeb</text>
				</g>
			</g>
		</g>
		<g>
			<rect x="-191.598" y="413.793" fill="#5E35A6" width="77.381" height="25.804"/>
			<text transform="matrix(1 0 0 1 -170.1733 429.5713)" fill="#FFFFFF" font-family="'Bariol'" font-size="9.6623">#3a2166</text>
		</g>
		<g>
			<text transform="matrix(1 0 0 1 121.4507 202.7891)" fill="#FFFFFF" font-family="'Bariol'" font-size="19.6074">#fbca6d</text>
		</g>
		<g>
			<rect x="-114.217" y="413.793" fill="#DBCAFF" width="77.381" height="25.804"/>
			<text transform="matrix(1 0 0 1 -92.7925 429.5713)" fill="#FFFFFF" font-family="'Bariol'" font-size="9.6623">#5e35a6</text>
		</g>
		<g>
			<rect x="-36.836" y="413.793" fill="#1C004D" width="77.381" height="25.804"/>
			<text transform="matrix(1 0 0 1 -15.4126 429.5713)" fill="#FFFFFF" font-family="'Bariol'" font-size="9.6623">#dbcaff</text>
		</g>
		<g>
			<rect x="40.544" y="413.793" fill="#FBCA6D" width="77.38" height="25.804"/>
			<text transform="matrix(1 0 0 1 61.9683 429.5713)" fill="#FFFFFF" font-family="'Bariol'" font-size="9.6623">#fce4b5</text>
		</g>
		<g>
			<rect x="117.924" y="413.793" fill="#FEF9F0" width="77.381" height="25.804"/>
			<text transform="matrix(1 0 0 1 139.3491 429.5713)" fill="#FBCA6D" font-family="'Bariol'" font-size="9.6623">#fef1da</text>
		</g>
		<g>
			<rect x="195.305" y="413.793" fill="#FEF1DA" width="77.381" height="25.804"/>
			<g>
				<text transform="matrix(1 0 0 1 216.73 429.5713)" fill="#FBCA6D" font-family="'Bariol'" font-size="9.6623">#fef9f0</text>
			</g>
		</g>
	</g>
</g>
</svg>
